M48
; DRILL file {KiCad 7.0.7} date Sat Oct 21 14:21:21 2023
; FORMAT={-:-/ absolute / metric / decimal}
; #@! TF.CreationDate,2023-10-21T14:21:21+02:00
; #@! TF.GenerationSoftware,Kicad,Pcbnew,7.0.7
; #@! TF.FileFunction,Plated,1,2,PTH
FMAT,2
METRIC
; #@! TA.AperFunction,Plated,PTH,ViaDrill
T1C0.400
; #@! TA.AperFunction,Plated,PTH,ComponentDrill
T2C0.650
; #@! TA.AperFunction,Plated,PTH,ComponentDrill
T3C0.800
; #@! TA.AperFunction,Plated,PTH,ComponentDrill
T4C1.000
%
G90
G05
T1
X98.552Y-81.28
X98.552Y-91.44
X101.092Y-91.44
X103.632Y-91.44
X106.172Y-68.58
X106.172Y-91.44
X108.712Y-68.58
X108.712Y-91.44
X111.252Y-91.44
X113.792Y-60.96
X113.792Y-91.44
X116.332Y-60.96
X116.332Y-91.44
X118.872Y-68.58
X118.872Y-91.44
X121.412Y-91.44
X122.682Y-68.453
X123.952Y-91.44
X125.222Y-64.516
X125.958Y-64.516
X126.492Y-68.58
X126.492Y-91.44
X129.032Y-91.44
X129.794Y-72.644
X131.572Y-91.44
X132.842Y-60.833
X134.112Y-91.44
X134.239Y-64.516
X134.747Y-66.294
X136.652Y-91.44
X139.192Y-91.44
X139.827Y-68.961
X141.732Y-91.44
X143.51Y-76.2
X144.272Y-91.44
X146.812Y-91.44
X148.082Y-66.802
X148.336Y-79.248
X148.844Y-71.12
X148.844Y-76.2
X149.352Y-91.44
X151.384Y-78.232
X151.892Y-91.44
X152.4Y-73.406
X153.924Y-75.692
X154.178Y-71.882
X154.432Y-91.44
X156.464Y-73.66
X156.871Y-68.072
X156.972Y-91.44
X158.75Y-68.072
X159.512Y-91.44
X161.671Y-83.439
X162.052Y-75.184
X162.052Y-91.44
X163.195Y-67.183
X163.322Y-69.088
X164.592Y-91.44
X166.116Y-69.088
X166.878Y-78.232
X167.132Y-91.44
X168.148Y-70.866
X169.672Y-76.2
X169.672Y-80.772
X169.672Y-91.44
X170.434Y-73.914
X170.942Y-70.612
X172.212Y-91.44
X172.72Y-60.452
X174.371Y-82.169
X174.752Y-75.184
X174.752Y-91.44
X177.292Y-63.5
X177.292Y-81.28
X177.292Y-91.44
X177.673Y-79.121
X179.832Y-63.5
X179.832Y-66.04
X179.832Y-68.58
X179.832Y-71.12
X179.832Y-73.66
X179.832Y-91.44
X180.721Y-76.454
X181.991Y-84.074
X182.372Y-63.5
X182.372Y-73.66
X182.372Y-91.44
X184.912Y-63.5
X184.912Y-73.66
X184.912Y-91.44
X186.944Y-78.359
X186.944Y-79.502
X187.452Y-63.5
X187.452Y-73.66
X187.452Y-91.44
X188.087Y-78.232
X188.087Y-79.502
X188.595Y-83.82
X189.992Y-66.04
X189.992Y-73.66
X189.992Y-83.82
X189.992Y-91.44
X192.532Y-68.58
X192.532Y-71.12
X192.532Y-73.66
X192.532Y-91.44
X193.294Y-86.36
T2
X135.382Y-60.96
X136.652Y-60.96
X137.922Y-60.96
X139.192Y-60.96
X140.462Y-60.96
X141.732Y-60.96
X143.002Y-60.96
X144.272Y-60.96
X145.542Y-60.96
X146.812Y-60.96
X148.082Y-60.96
X149.352Y-60.96
X150.622Y-60.96
X151.892Y-60.96
X153.162Y-60.96
X154.432Y-60.96
X155.702Y-60.96
X156.972Y-60.96
X158.242Y-60.96
X159.512Y-60.96
X160.782Y-60.96
X162.052Y-60.96
X163.322Y-60.96
X164.592Y-60.96
X165.862Y-60.96
X167.132Y-60.96
X168.402Y-60.96
X169.672Y-60.96
T3
X113.792Y-66.58
X113.792Y-68.58
X113.792Y-70.58
X113.792Y-72.58
X113.792Y-74.58
T4
X101.092Y-67.31
X101.092Y-69.85
X101.092Y-72.39
X101.092Y-74.93
X101.092Y-77.47
X184.912Y-86.36
X184.912Y-88.9
X187.452Y-86.36
X187.452Y-88.9
X189.992Y-86.36
X189.992Y-88.9
T0
M30
