%TF.GenerationSoftware,KiCad,Pcbnew,7.0.7*%
%TF.CreationDate,2023-10-21T14:21:18+02:00*%
%TF.ProjectId,G84-4100,4738342d-3431-4303-902e-6b696361645f,rev?*%
%TF.SameCoordinates,Original*%
%TF.FileFunction,Copper,L1,Top*%
%TF.FilePolarity,Positive*%
%FSLAX46Y46*%
G04 Gerber Fmt 4.6, Leading zero omitted, Abs format (unit mm)*
G04 Created by KiCad (PCBNEW 7.0.7) date 2023-10-21 14:21:18*
%MOMM*%
%LPD*%
G01*
G04 APERTURE LIST*
G04 Aperture macros list*
%AMRoundRect*
0 Rectangle with rounded corners*
0 $1 Rounding radius*
0 $2 $3 $4 $5 $6 $7 $8 $9 X,Y pos of 4 corners*
0 Add a 4 corners polygon primitive as box body*
4,1,4,$2,$3,$4,$5,$6,$7,$8,$9,$2,$3,0*
0 Add four circle primitives for the rounded corners*
1,1,$1+$1,$2,$3*
1,1,$1+$1,$4,$5*
1,1,$1+$1,$6,$7*
1,1,$1+$1,$8,$9*
0 Add four rect primitives between the rounded corners*
20,1,$1+$1,$2,$3,$4,$5,0*
20,1,$1+$1,$4,$5,$6,$7,0*
20,1,$1+$1,$6,$7,$8,$9,0*
20,1,$1+$1,$8,$9,$2,$3,0*%
G04 Aperture macros list end*
%TA.AperFunction,SMDPad,CuDef*%
%ADD10RoundRect,0.237500X-0.300000X-0.237500X0.300000X-0.237500X0.300000X0.237500X-0.300000X0.237500X0*%
%TD*%
%TA.AperFunction,SMDPad,CuDef*%
%ADD11RoundRect,0.237500X-0.237500X0.300000X-0.237500X-0.300000X0.237500X-0.300000X0.237500X0.300000X0*%
%TD*%
%TA.AperFunction,ComponentPad*%
%ADD12R,1.700000X1.700000*%
%TD*%
%TA.AperFunction,ComponentPad*%
%ADD13O,1.700000X1.700000*%
%TD*%
%TA.AperFunction,SMDPad,CuDef*%
%ADD14RoundRect,0.237500X-0.237500X0.250000X-0.237500X-0.250000X0.237500X-0.250000X0.237500X0.250000X0*%
%TD*%
%TA.AperFunction,SMDPad,CuDef*%
%ADD15R,1.600000X1.400000*%
%TD*%
%TA.AperFunction,SMDPad,CuDef*%
%ADD16R,1.400000X1.200000*%
%TD*%
%TA.AperFunction,SMDPad,CuDef*%
%ADD17RoundRect,0.237500X0.300000X0.237500X-0.300000X0.237500X-0.300000X-0.237500X0.300000X-0.237500X0*%
%TD*%
%TA.AperFunction,SMDPad,CuDef*%
%ADD18RoundRect,0.237500X-0.250000X-0.237500X0.250000X-0.237500X0.250000X0.237500X-0.250000X0.237500X0*%
%TD*%
%TA.AperFunction,SMDPad,CuDef*%
%ADD19RoundRect,0.237500X0.237500X-0.250000X0.237500X0.250000X-0.237500X0.250000X-0.237500X-0.250000X0*%
%TD*%
%TA.AperFunction,SMDPad,CuDef*%
%ADD20RoundRect,0.250000X-0.400000X-1.075000X0.400000X-1.075000X0.400000X1.075000X-0.400000X1.075000X0*%
%TD*%
%TA.AperFunction,ComponentPad*%
%ADD21R,1.350000X1.350000*%
%TD*%
%TA.AperFunction,ComponentPad*%
%ADD22O,1.350000X1.350000*%
%TD*%
%TA.AperFunction,SMDPad,CuDef*%
%ADD23RoundRect,0.062500X0.062500X-0.375000X0.062500X0.375000X-0.062500X0.375000X-0.062500X-0.375000X0*%
%TD*%
%TA.AperFunction,SMDPad,CuDef*%
%ADD24RoundRect,0.062500X0.375000X-0.062500X0.375000X0.062500X-0.375000X0.062500X-0.375000X-0.062500X0*%
%TD*%
%TA.AperFunction,ComponentPad*%
%ADD25R,1.000000X1.000000*%
%TD*%
%TA.AperFunction,ComponentPad*%
%ADD26O,1.000000X1.000000*%
%TD*%
%TA.AperFunction,SMDPad,CuDef*%
%ADD27RoundRect,0.237500X0.237500X-0.300000X0.237500X0.300000X-0.237500X0.300000X-0.237500X-0.300000X0*%
%TD*%
%TA.AperFunction,ViaPad*%
%ADD28C,0.800000*%
%TD*%
%TA.AperFunction,Conductor*%
%ADD29C,0.250000*%
%TD*%
%TA.AperFunction,Conductor*%
%ADD30C,0.500000*%
%TD*%
%TA.AperFunction,Conductor*%
%ADD31C,0.800000*%
%TD*%
G04 APERTURE END LIST*
D10*
%TO.P,C10,1*%
%TO.N,+5V*%
X156871500Y-68072000D03*
%TO.P,C10,2*%
%TO.N,GND*%
X158596500Y-68072000D03*
%TD*%
D11*
%TO.P,C2,1*%
%TO.N,Net-(U2-XTAL2)*%
X170942000Y-68987500D03*
%TO.P,C2,2*%
%TO.N,GND*%
X170942000Y-70712500D03*
%TD*%
D12*
%TO.P,J3,1,Pin_1*%
%TO.N,Net-(J2-Pin_1)*%
X101092000Y-77470000D03*
D13*
%TO.P,J3,2,Pin_2*%
%TO.N,Net-(J2-Pin_2)*%
X101092000Y-74930000D03*
%TO.P,J3,3,Pin_3*%
%TO.N,Net-(J2-Pin_3)*%
X101092000Y-72390000D03*
%TO.P,J3,4,Pin_4*%
%TO.N,GND*%
X101092000Y-69850000D03*
%TO.P,J3,5,Pin_5*%
X101092000Y-67310000D03*
%TD*%
D14*
%TO.P,R3,1*%
%TO.N,RST*%
X178919500Y-82399500D03*
%TO.P,R3,2*%
%TO.N,+5V*%
X178919500Y-84224500D03*
%TD*%
D15*
%TO.P,SW1,1,1*%
%TO.N,GND*%
X183452000Y-76780000D03*
X191452000Y-76780000D03*
%TO.P,SW1,2,2*%
%TO.N,RST*%
X183452000Y-81280000D03*
X191452000Y-81280000D03*
%TD*%
D16*
%TO.P,Y1,1,1*%
%TO.N,Net-(U2-XTAL1)*%
X166032000Y-70820000D03*
%TO.P,Y1,2,2*%
%TO.N,GND*%
X168232000Y-70820000D03*
%TO.P,Y1,3,3*%
%TO.N,Net-(U2-XTAL2)*%
X168232000Y-69120000D03*
%TO.P,Y1,4,4*%
%TO.N,GND*%
X166032000Y-69120000D03*
%TD*%
D17*
%TO.P,C6,1*%
%TO.N,+5V*%
X151992500Y-79502000D03*
%TO.P,C6,2*%
%TO.N,GND*%
X150267500Y-79502000D03*
%TD*%
D18*
%TO.P,R2,1*%
%TO.N,Net-(J2-Pin_2)*%
X129897500Y-70612000D03*
%TO.P,R2,2*%
%TO.N,Net-(U2-D-)*%
X131722500Y-70612000D03*
%TD*%
D17*
%TO.P,C5,1*%
%TO.N,+5V*%
X149198500Y-69596000D03*
%TO.P,C5,2*%
%TO.N,GND*%
X147473500Y-69596000D03*
%TD*%
%TO.P,C4,1*%
%TO.N,+5V*%
X147166500Y-77216000D03*
%TO.P,C4,2*%
%TO.N,GND*%
X145441500Y-77216000D03*
%TD*%
%TO.P,C11,1*%
%TO.N,Net-(U2-AREF)*%
X147166500Y-75692000D03*
%TO.P,C11,2*%
%TO.N,GND*%
X145441500Y-75692000D03*
%TD*%
D10*
%TO.P,C7,1*%
%TO.N,+5V*%
X160274000Y-75184000D03*
%TO.P,C7,2*%
%TO.N,GND*%
X161999000Y-75184000D03*
%TD*%
D12*
%TO.P,J1,1,Pin_1*%
%TO.N,row5*%
X184912000Y-88900000D03*
D13*
%TO.P,J1,2,Pin_2*%
%TO.N,+5V*%
X184912000Y-86360000D03*
%TO.P,J1,3,Pin_3*%
%TO.N,row3*%
X187452000Y-88900000D03*
%TO.P,J1,4,Pin_4*%
%TO.N,row4*%
X187452000Y-86360000D03*
%TO.P,J1,5,Pin_5*%
%TO.N,RST*%
X189992000Y-88900000D03*
%TO.P,J1,6,Pin_6*%
%TO.N,GND*%
X189992000Y-86360000D03*
%TD*%
D19*
%TO.P,R4,1*%
%TO.N,Net-(U2-PF5)*%
X141732000Y-65682500D03*
%TO.P,R4,2*%
%TO.N,led1*%
X141732000Y-63857500D03*
%TD*%
%TO.P,R6,1*%
%TO.N,col10*%
X138684000Y-65682500D03*
%TO.P,R6,2*%
%TO.N,led3*%
X138684000Y-63857500D03*
%TD*%
D20*
%TO.P,F1,1*%
%TO.N,Net-(J2-Pin_1)*%
X125958000Y-64516000D03*
%TO.P,F1,2*%
%TO.N,+5V*%
X129058000Y-64516000D03*
%TD*%
D18*
%TO.P,R1,1*%
%TO.N,Net-(J2-Pin_3)*%
X129897500Y-72644000D03*
%TO.P,R1,2*%
%TO.N,Net-(U2-D+)*%
X131722500Y-72644000D03*
%TD*%
D19*
%TO.P,R5,1*%
%TO.N,Net-(U2-PF4)*%
X140208000Y-65682500D03*
%TO.P,R5,2*%
%TO.N,led2*%
X140208000Y-63857500D03*
%TD*%
D17*
%TO.P,C8,1*%
%TO.N,+5V*%
X131418500Y-67564000D03*
%TO.P,C8,2*%
%TO.N,GND*%
X129693500Y-67564000D03*
%TD*%
D21*
%TO.P,J2,1,Pin_1*%
%TO.N,Net-(J2-Pin_1)*%
X113792000Y-74580000D03*
D22*
%TO.P,J2,2,Pin_2*%
%TO.N,Net-(J2-Pin_2)*%
X113792000Y-72580000D03*
%TO.P,J2,3,Pin_3*%
%TO.N,Net-(J2-Pin_3)*%
X113792000Y-70580000D03*
%TO.P,J2,4,Pin_4*%
%TO.N,GND*%
X113792000Y-68580000D03*
%TO.P,J2,5,Pin_5*%
X113792000Y-66580000D03*
%TD*%
D23*
%TO.P,U2,1,PE6*%
%TO.N,row1*%
X151932000Y-77097500D03*
%TO.P,U2,2,UVCC*%
%TO.N,+5V*%
X152432000Y-77097500D03*
%TO.P,U2,3,D-*%
%TO.N,Net-(U2-D-)*%
X152932000Y-77097500D03*
%TO.P,U2,4,D+*%
%TO.N,Net-(U2-D+)*%
X153432000Y-77097500D03*
%TO.P,U2,5,UGND*%
%TO.N,GND*%
X153932000Y-77097500D03*
%TO.P,U2,6,UCAP*%
%TO.N,Net-(U2-UCAP)*%
X154432000Y-77097500D03*
%TO.P,U2,7,VBUS*%
%TO.N,+5V*%
X154932000Y-77097500D03*
%TO.P,U2,8,PB0*%
%TO.N,row2*%
X155432000Y-77097500D03*
%TO.P,U2,9,PB1*%
%TO.N,row3*%
X155932000Y-77097500D03*
%TO.P,U2,10,PB2*%
%TO.N,row4*%
X156432000Y-77097500D03*
%TO.P,U2,11,PB3*%
%TO.N,row5*%
X156932000Y-77097500D03*
D24*
%TO.P,U2,12,PB7*%
%TO.N,row6*%
X157869500Y-76160000D03*
%TO.P,U2,13,~{RESET}*%
%TO.N,RST*%
X157869500Y-75660000D03*
%TO.P,U2,14,VCC*%
%TO.N,+5V*%
X157869500Y-75160000D03*
%TO.P,U2,15,GND*%
%TO.N,GND*%
X157869500Y-74660000D03*
%TO.P,U2,16,XTAL2*%
%TO.N,Net-(U2-XTAL2)*%
X157869500Y-74160000D03*
%TO.P,U2,17,XTAL1*%
%TO.N,Net-(U2-XTAL1)*%
X157869500Y-73660000D03*
%TO.P,U2,18,PD0*%
%TO.N,row7*%
X157869500Y-73160000D03*
%TO.P,U2,19,PD1*%
%TO.N,row8*%
X157869500Y-72660000D03*
%TO.P,U2,20,PD2*%
%TO.N,col1*%
X157869500Y-72160000D03*
%TO.P,U2,21,PD3*%
%TO.N,col2*%
X157869500Y-71660000D03*
%TO.P,U2,22,PD5*%
%TO.N,col3*%
X157869500Y-71160000D03*
D23*
%TO.P,U2,23,GND*%
%TO.N,GND*%
X156932000Y-70222500D03*
%TO.P,U2,24,AVCC*%
%TO.N,+5V*%
X156432000Y-70222500D03*
%TO.P,U2,25,PD4*%
%TO.N,col4*%
X155932000Y-70222500D03*
%TO.P,U2,26,PD6*%
%TO.N,col5*%
X155432000Y-70222500D03*
%TO.P,U2,27,PD7*%
%TO.N,col6*%
X154932000Y-70222500D03*
%TO.P,U2,28,PB4*%
%TO.N,col7*%
X154432000Y-70222500D03*
%TO.P,U2,29,PB5*%
%TO.N,col8*%
X153932000Y-70222500D03*
%TO.P,U2,30,PB6*%
%TO.N,col9*%
X153432000Y-70222500D03*
%TO.P,U2,31,PC6*%
%TO.N,col10*%
X152932000Y-70222500D03*
%TO.P,U2,32,PC7*%
%TO.N,col11*%
X152432000Y-70222500D03*
%TO.P,U2,33,~{HWB}/PE2*%
%TO.N,col12*%
X151932000Y-70222500D03*
D24*
%TO.P,U2,34,VCC*%
%TO.N,+5V*%
X150994500Y-71160000D03*
%TO.P,U2,35,GND*%
%TO.N,GND*%
X150994500Y-71660000D03*
%TO.P,U2,36,PF7*%
%TO.N,col13*%
X150994500Y-72160000D03*
%TO.P,U2,37,PF6*%
%TO.N,col14*%
X150994500Y-72660000D03*
%TO.P,U2,38,PF5*%
%TO.N,Net-(U2-PF5)*%
X150994500Y-73160000D03*
%TO.P,U2,39,PF4*%
%TO.N,Net-(U2-PF4)*%
X150994500Y-73660000D03*
%TO.P,U2,40,PF1*%
%TO.N,col15*%
X150994500Y-74160000D03*
%TO.P,U2,41,PF0*%
%TO.N,col16*%
X150994500Y-74660000D03*
%TO.P,U2,42,AREF*%
%TO.N,Net-(U2-AREF)*%
X150994500Y-75160000D03*
%TO.P,U2,43,GND*%
%TO.N,GND*%
X150994500Y-75660000D03*
%TO.P,U2,44,AVCC*%
%TO.N,+5V*%
X150994500Y-76160000D03*
%TD*%
D25*
%TO.P,J4,1,Pin_1*%
%TO.N,row1*%
X169672000Y-60960000D03*
D26*
%TO.P,J4,2,Pin_2*%
%TO.N,row2*%
X168402000Y-60960000D03*
%TO.P,J4,3,Pin_3*%
%TO.N,row3*%
X167132000Y-60960000D03*
%TO.P,J4,4,Pin_4*%
%TO.N,row4*%
X165862000Y-60960000D03*
%TO.P,J4,5,Pin_5*%
%TO.N,row5*%
X164592000Y-60960000D03*
%TO.P,J4,6,Pin_6*%
%TO.N,row6*%
X163322000Y-60960000D03*
%TO.P,J4,7,Pin_7*%
%TO.N,row7*%
X162052000Y-60960000D03*
%TO.P,J4,8,Pin_8*%
%TO.N,row8*%
X160782000Y-60960000D03*
%TO.P,J4,9,Pin_9*%
%TO.N,col1*%
X159512000Y-60960000D03*
%TO.P,J4,10,Pin_10*%
%TO.N,col2*%
X158242000Y-60960000D03*
%TO.P,J4,11,Pin_11*%
%TO.N,col3*%
X156972000Y-60960000D03*
%TO.P,J4,12,Pin_12*%
%TO.N,col4*%
X155702000Y-60960000D03*
%TO.P,J4,13,Pin_13*%
%TO.N,col5*%
X154432000Y-60960000D03*
%TO.P,J4,14,Pin_14*%
%TO.N,col6*%
X153162000Y-60960000D03*
%TO.P,J4,15,Pin_15*%
%TO.N,col7*%
X151892000Y-60960000D03*
%TO.P,J4,16,Pin_16*%
%TO.N,col8*%
X150622000Y-60960000D03*
%TO.P,J4,17,Pin_17*%
%TO.N,col9*%
X149352000Y-60960000D03*
%TO.P,J4,18,Pin_18*%
%TO.N,col10*%
X148082000Y-60960000D03*
%TO.P,J4,19,Pin_19*%
%TO.N,col11*%
X146812000Y-60960000D03*
%TO.P,J4,20,Pin_20*%
%TO.N,col12*%
X145542000Y-60960000D03*
%TO.P,J4,21,Pin_21*%
%TO.N,col13*%
X144272000Y-60960000D03*
%TO.P,J4,22,Pin_22*%
%TO.N,col14*%
X143002000Y-60960000D03*
%TO.P,J4,23,Pin_23*%
%TO.N,led1*%
X141732000Y-60960000D03*
%TO.P,J4,24,Pin_24*%
%TO.N,led2*%
X140462000Y-60960000D03*
%TO.P,J4,25,Pin_25*%
%TO.N,led3*%
X139192000Y-60960000D03*
%TO.P,J4,26,Pin_26*%
%TO.N,col15*%
X137922000Y-60960000D03*
%TO.P,J4,27,Pin_27*%
%TO.N,col16*%
X136652000Y-60960000D03*
%TO.P,J4,28,Pin_28*%
%TO.N,+5V*%
X135382000Y-60960000D03*
%TD*%
D11*
%TO.P,C3,1*%
%TO.N,Net-(U2-UCAP)*%
X154432000Y-79909500D03*
%TO.P,C3,2*%
%TO.N,GND*%
X154432000Y-81634500D03*
%TD*%
D27*
%TO.P,C1,1*%
%TO.N,Net-(U2-XTAL1)*%
X163322000Y-70712500D03*
%TO.P,C1,2*%
%TO.N,GND*%
X163322000Y-68987500D03*
%TD*%
D28*
%TO.N,GND*%
X182372000Y-63500000D03*
X186944000Y-79502000D03*
X166116000Y-69088000D03*
X184912000Y-91440000D03*
X126492000Y-91440000D03*
X192532000Y-91440000D03*
X184912000Y-73660000D03*
X153924000Y-75692000D03*
X134747000Y-66294000D03*
X111252000Y-91440000D03*
X131572000Y-91440000D03*
X186944000Y-78359000D03*
X113792000Y-60960000D03*
X151892000Y-91440000D03*
X179832000Y-71120000D03*
X152400000Y-73406000D03*
X179832000Y-73660000D03*
X162052000Y-75184000D03*
X188595000Y-83820000D03*
X167132000Y-91440000D03*
X159512000Y-91440000D03*
X116332000Y-60960000D03*
X192532000Y-73660000D03*
X179832000Y-63500000D03*
X106172000Y-68580000D03*
X170942000Y-70612000D03*
X187452000Y-63500000D03*
X149352000Y-91440000D03*
X126492000Y-68580000D03*
X154178000Y-71882000D03*
X180721000Y-76454000D03*
X98552000Y-91440000D03*
X101092000Y-91440000D03*
X108712000Y-68580000D03*
X182372000Y-73660000D03*
X156464000Y-73660000D03*
X172720000Y-60452000D03*
X139192000Y-91440000D03*
X163195000Y-67183000D03*
X134112000Y-91440000D03*
X177292000Y-63500000D03*
X187452000Y-73660000D03*
X170434000Y-73914000D03*
X118872000Y-91440000D03*
X164592000Y-91440000D03*
X188087000Y-79502000D03*
X184912000Y-63500000D03*
X108712000Y-91440000D03*
X174371000Y-82169000D03*
X187452000Y-91440000D03*
X177292000Y-91440000D03*
X189992000Y-91440000D03*
X188087000Y-78232000D03*
X144272000Y-91440000D03*
X193294000Y-86360000D03*
X158750000Y-68072000D03*
X192532000Y-71120000D03*
X182372000Y-91440000D03*
X113792000Y-91440000D03*
X169672000Y-91440000D03*
X129032000Y-91440000D03*
X118872000Y-68580000D03*
X148336000Y-79248000D03*
X179832000Y-66040000D03*
X116332000Y-91440000D03*
X174752000Y-91440000D03*
X123952000Y-91440000D03*
X121412000Y-91440000D03*
X103632000Y-91440000D03*
X141732000Y-91440000D03*
X189992000Y-66040000D03*
X189992000Y-73660000D03*
X192532000Y-68580000D03*
X179832000Y-68580000D03*
X189992000Y-83820000D03*
X172212000Y-91440000D03*
X122682000Y-68453000D03*
X146812000Y-91440000D03*
X181991000Y-84074000D03*
X179832000Y-91440000D03*
X177673000Y-79121000D03*
X132842000Y-60833000D03*
X106172000Y-91440000D03*
X156972000Y-91440000D03*
X98552000Y-81280000D03*
X161671000Y-83439000D03*
X168148000Y-70866000D03*
X163322000Y-69088000D03*
X162052000Y-91440000D03*
X154432000Y-91440000D03*
X136652000Y-91440000D03*
X148844000Y-71120000D03*
X143510000Y-76200000D03*
X148844000Y-76200000D03*
%TO.N,+5V*%
X156871500Y-68072000D03*
X134239000Y-64516000D03*
%TO.N,Net-(J2-Pin_1)*%
X125958000Y-64516000D03*
X125222000Y-64516000D03*
%TO.N,row4*%
X174752000Y-75184000D03*
%TO.N,row3*%
X169672000Y-80772000D03*
%TO.N,RST*%
X169672000Y-76200000D03*
X177292000Y-81280000D03*
%TO.N,Net-(J2-Pin_3)*%
X129794000Y-72644000D03*
%TO.N,row1*%
X151384000Y-78232000D03*
%TO.N,row5*%
X166878000Y-78232000D03*
%TO.N,col10*%
X148082000Y-66802000D03*
X139827000Y-68961000D03*
%TD*%
D29*
%TO.N,GND*%
X156932000Y-70222500D02*
X156932000Y-69890000D01*
X149384000Y-71660000D02*
X150994500Y-71660000D01*
X148844000Y-71120000D02*
X149384000Y-71660000D01*
X189992000Y-86360000D02*
X189992000Y-83820000D01*
X157383992Y-74660000D02*
X156464000Y-73740008D01*
X156464000Y-73740008D02*
X156464000Y-73660000D01*
X147473500Y-69596000D02*
X147473500Y-69749500D01*
D30*
X147473500Y-69749500D02*
X148844000Y-71120000D01*
D29*
X153932000Y-75700000D02*
X153924000Y-75692000D01*
X150994500Y-75660000D02*
X149384000Y-75660000D01*
X153932000Y-77097500D02*
X153932000Y-75700000D01*
X149384000Y-75660000D02*
X148844000Y-76200000D01*
X157869500Y-74660000D02*
X157383992Y-74660000D01*
X156932000Y-69890000D02*
X158750000Y-68072000D01*
%TO.N,+5V*%
X184912000Y-86360000D02*
X181055000Y-86360000D01*
X150994500Y-71160000D02*
X151932000Y-71160000D01*
X152432000Y-76406000D02*
X152186000Y-76160000D01*
X154932000Y-77097500D02*
X154932000Y-75652000D01*
X150408000Y-71160000D02*
X149198500Y-69950500D01*
X132588000Y-67564000D02*
X143764000Y-78740000D01*
X154559000Y-73787000D02*
X156432000Y-71914000D01*
X150994500Y-71160000D02*
X150408000Y-71160000D01*
X181055000Y-86360000D02*
X178919500Y-84224500D01*
X156432000Y-70222500D02*
X156432000Y-68511500D01*
X160691495Y-84836000D02*
X154932000Y-79076505D01*
X135382000Y-63373000D02*
X135382000Y-60960000D01*
X152432000Y-77097500D02*
X152432000Y-79062500D01*
X146304000Y-78740000D02*
X147166500Y-77877500D01*
X154305000Y-74041000D02*
X154559000Y-73787000D01*
X178308000Y-84836000D02*
X160691495Y-84836000D01*
X149391250Y-77216000D02*
X147166500Y-77216000D01*
X129058000Y-64516000D02*
X134239000Y-64516000D01*
X129058000Y-65203500D02*
X131418500Y-67564000D01*
X129058000Y-64516000D02*
X129058000Y-65203500D01*
X152432000Y-77097500D02*
X152432000Y-76406000D01*
X152432000Y-79062500D02*
X151992500Y-79502000D01*
X131418500Y-67564000D02*
X132588000Y-67564000D01*
X143764000Y-78740000D02*
X146304000Y-78740000D01*
X160250000Y-75160000D02*
X160274000Y-75184000D01*
X151932000Y-71160000D02*
X154559000Y-73787000D01*
X156432000Y-71914000D02*
X156432000Y-70222500D01*
X154932000Y-75652000D02*
X155424000Y-75160000D01*
X149198500Y-69950500D02*
X149198500Y-69596000D01*
X155424000Y-75160000D02*
X154305000Y-74041000D01*
X156432000Y-68511500D02*
X156871500Y-68072000D01*
X147166500Y-77877500D02*
X147166500Y-77216000D01*
X150994500Y-76160000D02*
X152186000Y-76160000D01*
X154932000Y-79076505D02*
X154932000Y-77097500D01*
X178919500Y-84224500D02*
X178308000Y-84836000D01*
X150994500Y-76160000D02*
X150447250Y-76160000D01*
X152186000Y-76160000D02*
X154305000Y-74041000D01*
X134239000Y-64516000D02*
X135382000Y-63373000D01*
X150447250Y-76160000D02*
X149391250Y-77216000D01*
X157869500Y-75160000D02*
X160250000Y-75160000D01*
X157869500Y-75160000D02*
X155424000Y-75160000D01*
D31*
%TO.N,Net-(J2-Pin_1)*%
X113634000Y-74580000D02*
X110744000Y-77470000D01*
D29*
X113792000Y-74580000D02*
X113634000Y-74580000D01*
D31*
X110744000Y-77470000D02*
X101092000Y-77470000D01*
D29*
%TO.N,row4*%
X158038992Y-79190000D02*
X160020000Y-79190000D01*
X166624000Y-79190000D02*
X170746000Y-79190000D01*
X160020000Y-79190000D02*
X166624000Y-79190000D01*
X156432000Y-77097500D02*
X156432000Y-77583008D01*
X156432000Y-77583008D02*
X158038992Y-79190000D01*
X174752000Y-75184000D02*
X174752000Y-68326000D01*
X174752000Y-68326000D02*
X172270000Y-65844000D01*
X165862000Y-64770000D02*
X165862000Y-60960000D01*
X172270000Y-65844000D02*
X166936000Y-65844000D01*
X170746000Y-79190000D02*
X174752000Y-75184000D01*
X166936000Y-65844000D02*
X165862000Y-64770000D01*
%TO.N,row2*%
X176784000Y-67564000D02*
X172720000Y-63500000D01*
X168148000Y-82296000D02*
X171196000Y-82296000D01*
X169204000Y-63500000D02*
X168402000Y-62698000D01*
X155432000Y-78724000D02*
X159004000Y-82296000D01*
X168402000Y-62698000D02*
X168402000Y-60960000D01*
X172720000Y-63500000D02*
X169204000Y-63500000D01*
X171196000Y-82296000D02*
X176784000Y-76708000D01*
X155432000Y-77097500D02*
X155432000Y-78724000D01*
X176784000Y-76708000D02*
X176784000Y-67564000D01*
X159004000Y-82296000D02*
X168148000Y-82296000D01*
%TO.N,row3*%
X167778000Y-64516000D02*
X167132000Y-63870000D01*
X175768000Y-68072000D02*
X172212000Y-64516000D01*
X169672000Y-80772000D02*
X170942000Y-80772000D01*
X158496000Y-80772000D02*
X169672000Y-80772000D01*
X155932000Y-78208000D02*
X158496000Y-80772000D01*
X175768000Y-75946000D02*
X175768000Y-68072000D01*
X167132000Y-63870000D02*
X167132000Y-60960000D01*
X172212000Y-64516000D02*
X167778000Y-64516000D01*
X170942000Y-80772000D02*
X175768000Y-75946000D01*
X155932000Y-77097500D02*
X155932000Y-78208000D01*
%TO.N,RST*%
X180039000Y-81280000D02*
X183452000Y-81280000D01*
X191516000Y-88900000D02*
X189992000Y-88900000D01*
X177800000Y-81280000D02*
X178919500Y-82399500D01*
X158846396Y-75660000D02*
X159386396Y-76200000D01*
X159386396Y-76200000D02*
X169672000Y-76200000D01*
X178919500Y-82399500D02*
X180039000Y-81280000D01*
X192024000Y-88392000D02*
X191516000Y-88900000D01*
X191452000Y-81280000D02*
X192024000Y-81852000D01*
X192024000Y-81852000D02*
X192024000Y-88392000D01*
X157869500Y-75660000D02*
X158846396Y-75660000D01*
X177292000Y-81280000D02*
X177800000Y-81280000D01*
X183452000Y-81280000D02*
X191452000Y-81280000D01*
%TO.N,Net-(J2-Pin_2)*%
X113856000Y-72644000D02*
X113792000Y-72580000D01*
X113792000Y-72580000D02*
X111316000Y-72580000D01*
X111316000Y-72580000D02*
X108966000Y-74930000D01*
X122174000Y-72644000D02*
X113856000Y-72644000D01*
X124206000Y-70612000D02*
X122174000Y-72644000D01*
X129897500Y-70612000D02*
X124206000Y-70612000D01*
X108966000Y-74930000D02*
X101092000Y-74930000D01*
%TO.N,Net-(J2-Pin_3)*%
X110776000Y-70580000D02*
X108966000Y-72390000D01*
X108966000Y-72390000D02*
X101092000Y-72390000D01*
X113792000Y-70580000D02*
X110776000Y-70580000D01*
X129897500Y-72644000D02*
X129794000Y-72644000D01*
%TO.N,row1*%
X151932000Y-77097500D02*
X151932000Y-77684000D01*
X151932000Y-77684000D02*
X151384000Y-78232000D01*
%TO.N,row5*%
X173736000Y-68451604D02*
X171832396Y-66548000D01*
X170180000Y-78232000D02*
X173736000Y-74676000D01*
X158066500Y-78232000D02*
X166878000Y-78232000D01*
X166878000Y-78232000D02*
X170180000Y-78232000D01*
X173736000Y-74676000D02*
X173736000Y-68451604D01*
X156932000Y-77097500D02*
X158066500Y-78232000D01*
X165608000Y-66548000D02*
X164592000Y-65532000D01*
X171832396Y-66548000D02*
X165608000Y-66548000D01*
X164592000Y-65532000D02*
X164592000Y-60960000D01*
%TO.N,row6*%
X172720000Y-74422000D02*
X172720000Y-68580000D01*
X159766000Y-77216000D02*
X169926000Y-77216000D01*
X158710000Y-76160000D02*
X159766000Y-77216000D01*
X169926000Y-77216000D02*
X172720000Y-74422000D01*
X157869500Y-76160000D02*
X158710000Y-76160000D01*
X171704000Y-67564000D02*
X165100000Y-67564000D01*
X163322000Y-65786000D02*
X163322000Y-60960000D01*
X172720000Y-68580000D02*
X171704000Y-67564000D01*
X165100000Y-67564000D02*
X163322000Y-65786000D01*
%TO.N,row7*%
X159635188Y-73160000D02*
X162132000Y-70663188D01*
X162132000Y-70663188D02*
X162132000Y-61040000D01*
X162132000Y-61040000D02*
X162052000Y-60960000D01*
X157869500Y-73160000D02*
X159635188Y-73160000D01*
%TO.N,row8*%
X160782000Y-63754000D02*
X160782000Y-60960000D01*
X161682000Y-70476792D02*
X161682000Y-64654000D01*
X157869500Y-72660000D02*
X159498792Y-72660000D01*
X161682000Y-64654000D02*
X160782000Y-63754000D01*
X159498792Y-72660000D02*
X161682000Y-70476792D01*
%TO.N,col1*%
X161232000Y-65728000D02*
X159512000Y-64008000D01*
X161232000Y-70290396D02*
X161232000Y-65728000D01*
X159512000Y-64008000D02*
X159512000Y-60960000D01*
X157869500Y-72160000D02*
X159362396Y-72160000D01*
X159362396Y-72160000D02*
X161232000Y-70290396D01*
%TO.N,col2*%
X160782000Y-70104000D02*
X160782000Y-66802000D01*
X160782000Y-66802000D02*
X158242000Y-64262000D01*
X157869500Y-71660000D02*
X159226000Y-71660000D01*
X158242000Y-64262000D02*
X158242000Y-60960000D01*
X159226000Y-71660000D02*
X160782000Y-70104000D01*
%TO.N,col3*%
X159512000Y-66548000D02*
X157988000Y-66548000D01*
X157869500Y-71160000D02*
X160274000Y-68755500D01*
X157988000Y-66548000D02*
X156972000Y-65532000D01*
X160274000Y-67310000D02*
X159512000Y-66548000D01*
X156972000Y-65532000D02*
X156972000Y-60960000D01*
X160274000Y-68755500D02*
X160274000Y-67310000D01*
%TO.N,col4*%
X155932000Y-66778000D02*
X155702000Y-66548000D01*
X155702000Y-66548000D02*
X155702000Y-60960000D01*
X155932000Y-70222500D02*
X155932000Y-66778000D01*
%TO.N,col5*%
X154432000Y-66294000D02*
X154432000Y-60960000D01*
X155432000Y-70222500D02*
X155432000Y-67294000D01*
X155432000Y-67294000D02*
X154432000Y-66294000D01*
%TO.N,col6*%
X154932000Y-70222500D02*
X154932000Y-67810000D01*
X154932000Y-67810000D02*
X153162000Y-66040000D01*
X153162000Y-66040000D02*
X153162000Y-60960000D01*
%TO.N,col7*%
X154432000Y-70222500D02*
X154432000Y-68192020D01*
X151892000Y-65652020D02*
X151892000Y-60960000D01*
X154432000Y-68192020D02*
X151892000Y-65652020D01*
%TO.N,col8*%
X153932000Y-70222500D02*
X153932000Y-68588000D01*
X151892000Y-66548000D02*
X151384000Y-66548000D01*
X150622000Y-65786000D02*
X150622000Y-60960000D01*
X151384000Y-66548000D02*
X150622000Y-65786000D01*
X153932000Y-68588000D02*
X151892000Y-66548000D01*
%TO.N,col9*%
X153432000Y-68975604D02*
X151512396Y-67056000D01*
X149352000Y-65786000D02*
X149352000Y-60960000D01*
X151512396Y-67056000D02*
X150622000Y-67056000D01*
X150622000Y-67056000D02*
X149352000Y-65786000D01*
X153432000Y-70222500D02*
X153432000Y-68975604D01*
%TO.N,col10*%
X138684000Y-67818000D02*
X138684000Y-65682500D01*
X148082000Y-66802000D02*
X148082000Y-60960000D01*
X148844000Y-67564000D02*
X148082000Y-66802000D01*
X139827000Y-68961000D02*
X138684000Y-67818000D01*
X152932000Y-70222500D02*
X152932000Y-69112000D01*
X152932000Y-69112000D02*
X151384000Y-67564000D01*
X151384000Y-67564000D02*
X148844000Y-67564000D01*
%TO.N,col11*%
X152432000Y-69499604D02*
X151004396Y-68072000D01*
X147320000Y-68072000D02*
X146812000Y-67564000D01*
X151004396Y-68072000D02*
X147320000Y-68072000D01*
X152432000Y-70222500D02*
X152432000Y-69499604D01*
X146812000Y-67564000D02*
X146812000Y-60960000D01*
%TO.N,col12*%
X146812000Y-68580000D02*
X145542000Y-67310000D01*
X150622000Y-68580000D02*
X146812000Y-68580000D01*
X145542000Y-67310000D02*
X145542000Y-60960000D01*
X151932000Y-69890000D02*
X150622000Y-68580000D01*
X151932000Y-70222500D02*
X151932000Y-69890000D01*
%TO.N,col13*%
X144272000Y-68072000D02*
X144272000Y-60960000D01*
X150994500Y-72160000D02*
X148360000Y-72160000D01*
X148360000Y-72160000D02*
X144272000Y-68072000D01*
%TO.N,col14*%
X147844000Y-72660000D02*
X143002000Y-67818000D01*
X143002000Y-67818000D02*
X143002000Y-60960000D01*
X150994500Y-72660000D02*
X147844000Y-72660000D01*
%TO.N,led1*%
X141732000Y-63857500D02*
X141732000Y-60960000D01*
%TO.N,led2*%
X140462000Y-63603500D02*
X140462000Y-60960000D01*
X140208000Y-63857500D02*
X140462000Y-63603500D01*
%TO.N,col15*%
X150994500Y-74160000D02*
X143756000Y-74160000D01*
X137668000Y-61214000D02*
X137922000Y-60960000D01*
X143756000Y-74160000D02*
X137668000Y-68072000D01*
X137668000Y-68072000D02*
X137668000Y-61214000D01*
%TO.N,col16*%
X150994500Y-74660000D02*
X142732000Y-74660000D01*
X136652000Y-68580000D02*
X136652000Y-60960000D01*
X142732000Y-74660000D02*
X136652000Y-68580000D01*
%TO.N,led3*%
X138684000Y-63857500D02*
X139192000Y-63349500D01*
X139192000Y-63349500D02*
X139192000Y-60960000D01*
%TO.N,Net-(U2-XTAL1)*%
X166032000Y-70820000D02*
X163429500Y-70820000D01*
X163429500Y-70820000D02*
X163322000Y-70712500D01*
X163192000Y-73660000D02*
X166032000Y-70820000D01*
X157869500Y-73660000D02*
X163192000Y-73660000D01*
%TO.N,Net-(U2-XTAL2)*%
X157869500Y-74160000D02*
X165769500Y-74160000D01*
X167207000Y-70045000D02*
X168132000Y-69120000D01*
X167207000Y-72722500D02*
X167207000Y-70045000D01*
X168132000Y-69120000D02*
X168232000Y-69120000D01*
X168232000Y-69120000D02*
X170809500Y-69120000D01*
X170809500Y-69120000D02*
X170942000Y-68987500D01*
X165769500Y-74160000D02*
X167207000Y-72722500D01*
%TO.N,Net-(U2-UCAP)*%
X154432000Y-77097500D02*
X154432000Y-79909500D01*
%TO.N,Net-(U2-AREF)*%
X150994500Y-75160000D02*
X147698500Y-75160000D01*
X147698500Y-75160000D02*
X147166500Y-75692000D01*
%TO.N,Net-(U2-D+)*%
X151929891Y-81534000D02*
X144018000Y-81534000D01*
X153432000Y-80031891D02*
X151929891Y-81534000D01*
X153432000Y-77097500D02*
X153432000Y-80031891D01*
X144018000Y-81534000D02*
X135128000Y-72644000D01*
X135128000Y-72644000D02*
X131722500Y-72644000D01*
%TO.N,Net-(U2-D-)*%
X152055495Y-80772000D02*
X144145000Y-80772000D01*
X144145000Y-80772000D02*
X133985000Y-70612000D01*
X152932000Y-79895495D02*
X152055495Y-80772000D01*
X133985000Y-70612000D02*
X131722500Y-70612000D01*
X152932000Y-77097500D02*
X152932000Y-79895495D01*
%TO.N,Net-(U2-PF4)*%
X140208000Y-68072000D02*
X140208000Y-65682500D01*
X150994500Y-73660000D02*
X145796000Y-73660000D01*
X145796000Y-73660000D02*
X140208000Y-68072000D01*
%TO.N,Net-(U2-PF5)*%
X141732000Y-68072000D02*
X141732000Y-65682500D01*
X146820000Y-73160000D02*
X141732000Y-68072000D01*
X150994500Y-73160000D02*
X146820000Y-73160000D01*
%TD*%
%TA.AperFunction,Conductor*%
%TO.N,GND*%
G36*
X182094540Y-81925185D02*
G01*
X182140295Y-81977989D01*
X182150437Y-82024611D01*
X182151099Y-82024576D01*
X182151146Y-82024571D01*
X182151146Y-82024573D01*
X182151324Y-82024564D01*
X182151501Y-82027876D01*
X182157908Y-82087483D01*
X182208202Y-82222328D01*
X182208206Y-82222335D01*
X182294452Y-82337544D01*
X182294455Y-82337547D01*
X182409664Y-82423793D01*
X182409671Y-82423797D01*
X182544517Y-82474091D01*
X182544516Y-82474091D01*
X182551444Y-82474835D01*
X182604127Y-82480500D01*
X184299872Y-82480499D01*
X184359483Y-82474091D01*
X184494331Y-82423796D01*
X184609546Y-82337546D01*
X184695796Y-82222331D01*
X184746091Y-82087483D01*
X184752500Y-82027873D01*
X184752500Y-82027845D01*
X184752678Y-82024548D01*
X184753934Y-82024615D01*
X184772185Y-81962461D01*
X184824989Y-81916706D01*
X184876500Y-81905500D01*
X190027501Y-81905500D01*
X190094540Y-81925185D01*
X190140295Y-81977989D01*
X190150437Y-82024611D01*
X190151099Y-82024576D01*
X190151146Y-82024571D01*
X190151146Y-82024573D01*
X190151324Y-82024564D01*
X190151501Y-82027876D01*
X190157908Y-82087483D01*
X190208202Y-82222328D01*
X190208206Y-82222335D01*
X190294452Y-82337544D01*
X190294455Y-82337547D01*
X190409664Y-82423793D01*
X190409671Y-82423797D01*
X190544517Y-82474091D01*
X190544516Y-82474091D01*
X190551444Y-82474835D01*
X190604127Y-82480500D01*
X191274500Y-82480499D01*
X191341539Y-82500183D01*
X191387294Y-82552987D01*
X191398500Y-82604499D01*
X191398500Y-85623042D01*
X191378815Y-85690081D01*
X191326011Y-85735836D01*
X191256853Y-85745780D01*
X191193297Y-85716755D01*
X191167114Y-85685044D01*
X191165599Y-85682420D01*
X191030113Y-85488926D01*
X191030108Y-85488920D01*
X190863082Y-85321894D01*
X190669578Y-85186399D01*
X190455492Y-85086570D01*
X190455486Y-85086567D01*
X190242000Y-85029364D01*
X190242000Y-85747698D01*
X190222315Y-85814737D01*
X190169511Y-85860492D01*
X190100355Y-85870436D01*
X190027766Y-85860000D01*
X190027763Y-85860000D01*
X189956237Y-85860000D01*
X189956233Y-85860000D01*
X189883644Y-85870436D01*
X189814486Y-85860492D01*
X189761683Y-85814736D01*
X189741999Y-85747698D01*
X189741999Y-85029364D01*
X189528513Y-85086567D01*
X189528507Y-85086570D01*
X189314422Y-85186399D01*
X189314420Y-85186400D01*
X189120926Y-85321886D01*
X189120920Y-85321891D01*
X188953891Y-85488920D01*
X188953890Y-85488922D01*
X188823880Y-85674595D01*
X188769303Y-85718219D01*
X188699804Y-85725412D01*
X188637450Y-85693890D01*
X188620730Y-85674594D01*
X188490494Y-85488597D01*
X188323402Y-85321506D01*
X188323395Y-85321501D01*
X188312912Y-85314161D01*
X188235116Y-85259687D01*
X188129834Y-85185967D01*
X188129830Y-85185965D01*
X188129828Y-85185964D01*
X187915663Y-85086097D01*
X187915659Y-85086096D01*
X187915655Y-85086094D01*
X187687413Y-85024938D01*
X187687403Y-85024936D01*
X187452001Y-85004341D01*
X187451999Y-85004341D01*
X187216596Y-85024936D01*
X187216586Y-85024938D01*
X186988344Y-85086094D01*
X186988335Y-85086098D01*
X186774171Y-85185964D01*
X186774169Y-85185965D01*
X186580597Y-85321505D01*
X186413508Y-85488594D01*
X186283574Y-85674159D01*
X186228997Y-85717784D01*
X186159498Y-85724976D01*
X186097144Y-85693454D01*
X186080424Y-85674158D01*
X185950494Y-85488597D01*
X185783402Y-85321506D01*
X185783395Y-85321501D01*
X185772912Y-85314161D01*
X185695116Y-85259687D01*
X185589834Y-85185967D01*
X185589830Y-85185965D01*
X185589828Y-85185964D01*
X185375663Y-85086097D01*
X185375659Y-85086096D01*
X185375655Y-85086094D01*
X185147413Y-85024938D01*
X185147403Y-85024936D01*
X184912001Y-85004341D01*
X184911999Y-85004341D01*
X184676596Y-85024936D01*
X184676586Y-85024938D01*
X184448344Y-85086094D01*
X184448335Y-85086098D01*
X184234171Y-85185964D01*
X184234169Y-85185965D01*
X184040597Y-85321505D01*
X183873505Y-85488597D01*
X183738348Y-85681623D01*
X183683771Y-85725248D01*
X183636773Y-85734500D01*
X181365452Y-85734500D01*
X181298413Y-85714815D01*
X181277771Y-85698181D01*
X179931318Y-84351727D01*
X179897833Y-84290404D01*
X179894999Y-84264046D01*
X179894999Y-84153539D01*
X179894999Y-83925324D01*
X179884674Y-83824247D01*
X179830408Y-83660484D01*
X179739840Y-83513650D01*
X179625871Y-83399681D01*
X179592386Y-83338358D01*
X179597370Y-83268666D01*
X179625871Y-83224319D01*
X179625870Y-83224319D01*
X179739840Y-83110350D01*
X179830408Y-82963516D01*
X179884674Y-82799753D01*
X179895000Y-82698677D01*
X179894999Y-82359951D01*
X179914683Y-82292913D01*
X179931309Y-82272280D01*
X180261774Y-81941816D01*
X180323095Y-81908334D01*
X180349453Y-81905500D01*
X182027501Y-81905500D01*
X182094540Y-81925185D01*
G37*
%TD.AperFunction*%
%TA.AperFunction,Conductor*%
G36*
X151249539Y-76805185D02*
G01*
X151295294Y-76857989D01*
X151306500Y-76909500D01*
X151306500Y-77227442D01*
X151286815Y-77294481D01*
X151234011Y-77340236D01*
X151208281Y-77348732D01*
X151104197Y-77370855D01*
X151104192Y-77370857D01*
X150931270Y-77447848D01*
X150931265Y-77447851D01*
X150778129Y-77559111D01*
X150651466Y-77699785D01*
X150556821Y-77863715D01*
X150556818Y-77863722D01*
X150498327Y-78043740D01*
X150498326Y-78043744D01*
X150478540Y-78232000D01*
X150486629Y-78308960D01*
X150498326Y-78420256D01*
X150498327Y-78420259D01*
X150511431Y-78460588D01*
X150517500Y-78498906D01*
X150517500Y-79628000D01*
X150497815Y-79695039D01*
X150445011Y-79740794D01*
X150393500Y-79752000D01*
X149230001Y-79752000D01*
X149230001Y-79788654D01*
X149240319Y-79889652D01*
X149271416Y-79983496D01*
X149273818Y-80053324D01*
X149238086Y-80113366D01*
X149175566Y-80144559D01*
X149153710Y-80146500D01*
X144455452Y-80146500D01*
X144388413Y-80126815D01*
X144367771Y-80110181D01*
X143834771Y-79577181D01*
X143801286Y-79515858D01*
X143806270Y-79446166D01*
X143848142Y-79390233D01*
X143913606Y-79365816D01*
X143922452Y-79365500D01*
X146221257Y-79365500D01*
X146236877Y-79367224D01*
X146236904Y-79366939D01*
X146244660Y-79367671D01*
X146244667Y-79367673D01*
X146313814Y-79365500D01*
X146343350Y-79365500D01*
X146350228Y-79364630D01*
X146356041Y-79364172D01*
X146402627Y-79362709D01*
X146421869Y-79357117D01*
X146440912Y-79353174D01*
X146460792Y-79350664D01*
X146504122Y-79333507D01*
X146509646Y-79331617D01*
X146513396Y-79330527D01*
X146554390Y-79318618D01*
X146571629Y-79308422D01*
X146589103Y-79299862D01*
X146607727Y-79292488D01*
X146607727Y-79292487D01*
X146607732Y-79292486D01*
X146645449Y-79265082D01*
X146650305Y-79261892D01*
X146667033Y-79252000D01*
X149230000Y-79252000D01*
X150017500Y-79252000D01*
X150017500Y-78526999D01*
X149918360Y-78527000D01*
X149918344Y-78527001D01*
X149817347Y-78537319D01*
X149653699Y-78591546D01*
X149653688Y-78591551D01*
X149506965Y-78682052D01*
X149506961Y-78682055D01*
X149385055Y-78803961D01*
X149385052Y-78803965D01*
X149294551Y-78950688D01*
X149294546Y-78950699D01*
X149240319Y-79114347D01*
X149230000Y-79215345D01*
X149230000Y-79252000D01*
X146667033Y-79252000D01*
X146690420Y-79238170D01*
X146704589Y-79223999D01*
X146719379Y-79211368D01*
X146735587Y-79199594D01*
X146765299Y-79163676D01*
X146769212Y-79159376D01*
X147550287Y-78378302D01*
X147562542Y-78368486D01*
X147562359Y-78368264D01*
X147568366Y-78363292D01*
X147568377Y-78363286D01*
X147599275Y-78330382D01*
X147615727Y-78312864D01*
X147626171Y-78302418D01*
X147636620Y-78291971D01*
X147640879Y-78286478D01*
X147644652Y-78282061D01*
X147676562Y-78248082D01*
X147686213Y-78230524D01*
X147696896Y-78214261D01*
X147709173Y-78198436D01*
X147711298Y-78193524D01*
X147755982Y-78139815D01*
X147774365Y-78130811D01*
X147773969Y-78129961D01*
X147780509Y-78126910D01*
X147780516Y-78126908D01*
X147927350Y-78036340D01*
X148049340Y-77914350D01*
X148057941Y-77900404D01*
X148109890Y-77853679D01*
X148163481Y-77841500D01*
X149308507Y-77841500D01*
X149324127Y-77843224D01*
X149324154Y-77842939D01*
X149331910Y-77843671D01*
X149331917Y-77843673D01*
X149401064Y-77841500D01*
X149430600Y-77841500D01*
X149437478Y-77840630D01*
X149443291Y-77840172D01*
X149489877Y-77838709D01*
X149509119Y-77833117D01*
X149528162Y-77829174D01*
X149548042Y-77826664D01*
X149591372Y-77809507D01*
X149596896Y-77807617D01*
X149600646Y-77806527D01*
X149641640Y-77794618D01*
X149658879Y-77784422D01*
X149676353Y-77775862D01*
X149694977Y-77768488D01*
X149694977Y-77768487D01*
X149694982Y-77768486D01*
X149732699Y-77741082D01*
X149737555Y-77737892D01*
X149777670Y-77714170D01*
X149791839Y-77699999D01*
X149806629Y-77687368D01*
X149822837Y-77675594D01*
X149852549Y-77639676D01*
X149856462Y-77635376D01*
X150670020Y-76821819D01*
X150731344Y-76788334D01*
X150757702Y-76785500D01*
X150915481Y-76785500D01*
X151182500Y-76785500D01*
X151249539Y-76805185D01*
G37*
%TD.AperFunction*%
%TA.AperFunction,Conductor*%
G36*
X135942162Y-63796120D02*
G01*
X135999384Y-63836214D01*
X136025845Y-63900879D01*
X136026500Y-63913606D01*
X136026500Y-68497255D01*
X136024775Y-68512872D01*
X136025061Y-68512899D01*
X136024326Y-68520665D01*
X136026500Y-68589814D01*
X136026500Y-68619343D01*
X136026501Y-68619360D01*
X136027368Y-68626231D01*
X136027826Y-68632050D01*
X136029290Y-68678624D01*
X136029291Y-68678627D01*
X136034880Y-68697867D01*
X136038824Y-68716911D01*
X136041336Y-68736792D01*
X136048900Y-68755896D01*
X136058490Y-68780119D01*
X136060382Y-68785647D01*
X136073381Y-68830388D01*
X136083580Y-68847634D01*
X136092138Y-68865103D01*
X136099514Y-68883732D01*
X136126898Y-68921423D01*
X136130106Y-68926307D01*
X136153827Y-68966416D01*
X136153833Y-68966424D01*
X136167990Y-68980580D01*
X136180628Y-68995376D01*
X136192405Y-69011586D01*
X136192406Y-69011587D01*
X136228309Y-69041288D01*
X136232620Y-69045210D01*
X140734863Y-73547454D01*
X142231197Y-75043788D01*
X142241022Y-75056051D01*
X142241243Y-75055869D01*
X142246214Y-75061878D01*
X142257956Y-75072904D01*
X142296635Y-75109226D01*
X142317529Y-75130120D01*
X142323011Y-75134373D01*
X142327443Y-75138157D01*
X142361418Y-75170062D01*
X142378976Y-75179714D01*
X142395235Y-75190395D01*
X142411064Y-75202673D01*
X142453838Y-75221182D01*
X142459056Y-75223738D01*
X142499908Y-75246197D01*
X142519316Y-75251180D01*
X142537717Y-75257480D01*
X142556104Y-75265437D01*
X142599488Y-75272308D01*
X142602119Y-75272725D01*
X142607839Y-75273909D01*
X142652981Y-75285500D01*
X142673016Y-75285500D01*
X142692414Y-75287026D01*
X142712194Y-75290159D01*
X142712195Y-75290160D01*
X142712195Y-75290159D01*
X142712196Y-75290160D01*
X142758583Y-75285775D01*
X142764422Y-75285500D01*
X144280000Y-75285500D01*
X144347039Y-75305185D01*
X144392794Y-75357989D01*
X144404000Y-75409500D01*
X144404000Y-75442000D01*
X145567500Y-75442000D01*
X145634539Y-75461685D01*
X145680294Y-75514489D01*
X145691500Y-75566000D01*
X145691500Y-77342000D01*
X145671815Y-77409039D01*
X145619011Y-77454794D01*
X145567500Y-77466000D01*
X144404001Y-77466000D01*
X144404001Y-77502654D01*
X144414319Y-77603652D01*
X144468546Y-77767300D01*
X144468551Y-77767311D01*
X144562846Y-77920185D01*
X144561656Y-77920918D01*
X144584841Y-77978385D01*
X144571800Y-78047027D01*
X144523720Y-78097722D01*
X144461434Y-78114500D01*
X144074452Y-78114500D01*
X144007413Y-78094815D01*
X143986771Y-78078181D01*
X142874590Y-76966000D01*
X144404000Y-76966000D01*
X145191500Y-76966000D01*
X145191500Y-75942000D01*
X144404001Y-75942000D01*
X144404001Y-75978654D01*
X144414319Y-76079652D01*
X144468546Y-76243300D01*
X144468551Y-76243311D01*
X144558354Y-76388902D01*
X144576795Y-76456294D01*
X144558355Y-76519096D01*
X144468548Y-76664694D01*
X144468546Y-76664699D01*
X144414319Y-76828347D01*
X144404000Y-76929345D01*
X144404000Y-76966000D01*
X142874590Y-76966000D01*
X133088803Y-67180212D01*
X133078980Y-67167950D01*
X133078759Y-67168134D01*
X133073786Y-67162123D01*
X133067814Y-67156515D01*
X133023364Y-67114773D01*
X133008747Y-67100156D01*
X133002475Y-67093883D01*
X132996986Y-67089625D01*
X132992561Y-67085847D01*
X132958582Y-67053938D01*
X132958580Y-67053936D01*
X132958577Y-67053935D01*
X132941029Y-67044288D01*
X132924763Y-67033604D01*
X132912396Y-67024011D01*
X132908936Y-67021327D01*
X132908935Y-67021326D01*
X132908933Y-67021325D01*
X132866168Y-67002818D01*
X132860922Y-67000248D01*
X132820093Y-66977803D01*
X132820092Y-66977802D01*
X132800693Y-66972822D01*
X132782281Y-66966518D01*
X132763898Y-66958562D01*
X132763892Y-66958560D01*
X132717874Y-66951272D01*
X132712152Y-66950087D01*
X132667021Y-66938500D01*
X132667019Y-66938500D01*
X132646984Y-66938500D01*
X132627586Y-66936973D01*
X132620162Y-66935797D01*
X132607805Y-66933840D01*
X132607804Y-66933840D01*
X132561416Y-66938225D01*
X132555578Y-66938500D01*
X132415481Y-66938500D01*
X132348442Y-66918815D01*
X132309942Y-66879596D01*
X132301534Y-66865965D01*
X132301340Y-66865650D01*
X132179350Y-66743660D01*
X132043949Y-66660144D01*
X132032518Y-66653093D01*
X132032513Y-66653091D01*
X131970132Y-66632420D01*
X131868753Y-66598826D01*
X131868751Y-66598825D01*
X131767684Y-66588500D01*
X131767677Y-66588500D01*
X131378953Y-66588500D01*
X131311914Y-66568815D01*
X131291272Y-66552181D01*
X130244818Y-65505727D01*
X130211333Y-65444404D01*
X130208499Y-65418045D01*
X130208500Y-65265499D01*
X130228185Y-65198460D01*
X130280989Y-65152705D01*
X130332500Y-65141500D01*
X133535252Y-65141500D01*
X133602291Y-65161185D01*
X133627400Y-65182526D01*
X133633126Y-65188885D01*
X133633130Y-65188889D01*
X133786265Y-65300148D01*
X133786270Y-65300151D01*
X133959192Y-65377142D01*
X133959197Y-65377144D01*
X134144354Y-65416500D01*
X134144355Y-65416500D01*
X134333644Y-65416500D01*
X134333646Y-65416500D01*
X134518803Y-65377144D01*
X134691730Y-65300151D01*
X134844871Y-65188888D01*
X134971533Y-65048216D01*
X135066179Y-64884284D01*
X135124674Y-64704256D01*
X135142321Y-64536344D01*
X135168904Y-64471734D01*
X135177951Y-64461638D01*
X135765788Y-63873801D01*
X135778042Y-63863986D01*
X135777859Y-63863764D01*
X135783867Y-63858792D01*
X135783877Y-63858786D01*
X135812108Y-63828721D01*
X135872348Y-63793328D01*
X135942162Y-63796120D01*
G37*
%TD.AperFunction*%
%TA.AperFunction,Conductor*%
G36*
X149704836Y-75805185D02*
G01*
X149750591Y-75857989D01*
X149760535Y-75927147D01*
X149731510Y-75990703D01*
X149725478Y-75997181D01*
X149168478Y-76554181D01*
X149107155Y-76587666D01*
X149080797Y-76590500D01*
X148163481Y-76590500D01*
X148096442Y-76570815D01*
X148057940Y-76531593D01*
X148050230Y-76519092D01*
X148031792Y-76451699D01*
X148050233Y-76388902D01*
X148063229Y-76367833D01*
X148139908Y-76243516D01*
X148194174Y-76079753D01*
X148204500Y-75978677D01*
X148204500Y-75909500D01*
X148224185Y-75842461D01*
X148276989Y-75796706D01*
X148328500Y-75785500D01*
X149637797Y-75785500D01*
X149704836Y-75805185D01*
G37*
%TD.AperFunction*%
%TA.AperFunction,Conductor*%
G36*
X154348333Y-74984769D02*
G01*
X154392676Y-75013267D01*
X154423198Y-75043788D01*
X154452314Y-75072904D01*
X154485798Y-75134228D01*
X154480813Y-75203920D01*
X154462602Y-75236598D01*
X154457628Y-75243008D01*
X154453839Y-75247444D01*
X154421937Y-75281418D01*
X154421936Y-75281420D01*
X154412284Y-75298976D01*
X154401610Y-75315226D01*
X154389329Y-75331061D01*
X154389324Y-75331068D01*
X154370815Y-75373838D01*
X154368245Y-75379084D01*
X154345803Y-75419906D01*
X154340822Y-75439307D01*
X154334521Y-75457710D01*
X154326562Y-75476102D01*
X154326561Y-75476105D01*
X154319271Y-75522127D01*
X154318087Y-75527846D01*
X154306501Y-75572972D01*
X154306500Y-75572982D01*
X154306500Y-75593016D01*
X154304973Y-75612413D01*
X154304952Y-75612546D01*
X154301840Y-75632194D01*
X154301840Y-75632195D01*
X154306225Y-75678583D01*
X154306500Y-75684421D01*
X154306500Y-76056354D01*
X154286815Y-76123393D01*
X154234011Y-76169148D01*
X154229903Y-76170936D01*
X154228750Y-76171413D01*
X154159277Y-76178851D01*
X154149356Y-76175986D01*
X154149197Y-76176582D01*
X154141346Y-76174478D01*
X154057000Y-76163373D01*
X154057000Y-76191494D01*
X154037315Y-76258533D01*
X154008466Y-76289885D01*
X154007466Y-76290652D01*
X153942292Y-76315833D01*
X153873850Y-76301781D01*
X153856534Y-76290652D01*
X153855534Y-76289885D01*
X153814319Y-76233466D01*
X153807000Y-76191494D01*
X153807000Y-76163373D01*
X153722658Y-76174478D01*
X153714806Y-76176582D01*
X153713917Y-76173264D01*
X153659804Y-76178709D01*
X153649444Y-76175630D01*
X153649320Y-76176094D01*
X153641472Y-76173991D01*
X153531402Y-76159500D01*
X153370450Y-76159500D01*
X153303411Y-76139815D01*
X153257656Y-76087011D01*
X153247712Y-76017853D01*
X153276737Y-75954297D01*
X153282755Y-75947833D01*
X154217320Y-75013268D01*
X154278641Y-74979785D01*
X154348333Y-74984769D01*
G37*
%TD.AperFunction*%
%TA.AperFunction,Conductor*%
G36*
X170096217Y-69765185D02*
G01*
X170141972Y-69817989D01*
X170151916Y-69887147D01*
X170126446Y-69946409D01*
X170122051Y-69951966D01*
X170031551Y-70098688D01*
X170031546Y-70098699D01*
X169977319Y-70262347D01*
X169967000Y-70363345D01*
X169967000Y-70462500D01*
X171068000Y-70462500D01*
X171135039Y-70482185D01*
X171180794Y-70534989D01*
X171192000Y-70586500D01*
X171192000Y-71749999D01*
X171228640Y-71749999D01*
X171228654Y-71749998D01*
X171329652Y-71739680D01*
X171493300Y-71685453D01*
X171493311Y-71685448D01*
X171640034Y-71594947D01*
X171640038Y-71594944D01*
X171761944Y-71473038D01*
X171761947Y-71473034D01*
X171852448Y-71326311D01*
X171852451Y-71326303D01*
X171852793Y-71325274D01*
X171853218Y-71324659D01*
X171855503Y-71319760D01*
X171856340Y-71320150D01*
X171892565Y-71267829D01*
X171957080Y-71241004D01*
X172025856Y-71253318D01*
X172077057Y-71300860D01*
X172094500Y-71364276D01*
X172094500Y-74111546D01*
X172074815Y-74178585D01*
X172058181Y-74199227D01*
X170584625Y-75672783D01*
X170523302Y-75706268D01*
X170453610Y-75701284D01*
X170404794Y-75668074D01*
X170372487Y-75632194D01*
X170277871Y-75527112D01*
X170277870Y-75527111D01*
X170124734Y-75415851D01*
X170124729Y-75415848D01*
X169951807Y-75338857D01*
X169951802Y-75338855D01*
X169788979Y-75304247D01*
X169766646Y-75299500D01*
X169577354Y-75299500D01*
X169555021Y-75304247D01*
X169392197Y-75338855D01*
X169392192Y-75338857D01*
X169219270Y-75415848D01*
X169219265Y-75415851D01*
X169066130Y-75527110D01*
X169066126Y-75527114D01*
X169060400Y-75533474D01*
X169000913Y-75570121D01*
X168968252Y-75574500D01*
X163160500Y-75574500D01*
X163093461Y-75554815D01*
X163047706Y-75502011D01*
X163036500Y-75450500D01*
X163036500Y-75434000D01*
X161873000Y-75434000D01*
X161805961Y-75414315D01*
X161760206Y-75361511D01*
X161749000Y-75310000D01*
X161749000Y-75058000D01*
X161768685Y-74990961D01*
X161821489Y-74945206D01*
X161873000Y-74934000D01*
X163036499Y-74934000D01*
X163036499Y-74909500D01*
X163056184Y-74842461D01*
X163108988Y-74796706D01*
X163160499Y-74785500D01*
X165686757Y-74785500D01*
X165702377Y-74787224D01*
X165702404Y-74786939D01*
X165710160Y-74787671D01*
X165710167Y-74787673D01*
X165779314Y-74785500D01*
X165808850Y-74785500D01*
X165815728Y-74784630D01*
X165821541Y-74784172D01*
X165868127Y-74782709D01*
X165887369Y-74777117D01*
X165906412Y-74773174D01*
X165926292Y-74770664D01*
X165969622Y-74753507D01*
X165975146Y-74751617D01*
X165978896Y-74750527D01*
X166019890Y-74738618D01*
X166037129Y-74728422D01*
X166054603Y-74719862D01*
X166073227Y-74712488D01*
X166073227Y-74712487D01*
X166073232Y-74712486D01*
X166110949Y-74685082D01*
X166115805Y-74681892D01*
X166155920Y-74658170D01*
X166170089Y-74643999D01*
X166184879Y-74631368D01*
X166201087Y-74619594D01*
X166230799Y-74583676D01*
X166234712Y-74579376D01*
X167590787Y-73223302D01*
X167603042Y-73213486D01*
X167602859Y-73213264D01*
X167608866Y-73208292D01*
X167608877Y-73208286D01*
X167647293Y-73167377D01*
X167656227Y-73157864D01*
X167666671Y-73147418D01*
X167677120Y-73136971D01*
X167681379Y-73131478D01*
X167685152Y-73127061D01*
X167717062Y-73093082D01*
X167726715Y-73075520D01*
X167737389Y-73059270D01*
X167749673Y-73043436D01*
X167768183Y-73000662D01*
X167770749Y-72995424D01*
X167777891Y-72982433D01*
X167793197Y-72954592D01*
X167798177Y-72935191D01*
X167804478Y-72916788D01*
X167812438Y-72898396D01*
X167819730Y-72852349D01*
X167820911Y-72846652D01*
X167821790Y-72843229D01*
X167832500Y-72801519D01*
X167832500Y-72781483D01*
X167834027Y-72762082D01*
X167837160Y-72742304D01*
X167832775Y-72695915D01*
X167832500Y-72690077D01*
X167832500Y-72044000D01*
X167852185Y-71976961D01*
X167904989Y-71931206D01*
X167956500Y-71920000D01*
X167982000Y-71920000D01*
X167982000Y-71070000D01*
X168482000Y-71070000D01*
X168482000Y-71920000D01*
X168979828Y-71920000D01*
X168979844Y-71919999D01*
X169039372Y-71913598D01*
X169039379Y-71913596D01*
X169174086Y-71863354D01*
X169174093Y-71863350D01*
X169289187Y-71777190D01*
X169289190Y-71777187D01*
X169375350Y-71662093D01*
X169375354Y-71662086D01*
X169425596Y-71527379D01*
X169425598Y-71527372D01*
X169431999Y-71467844D01*
X169432000Y-71467827D01*
X169432000Y-71070000D01*
X168482000Y-71070000D01*
X167982000Y-71070000D01*
X167982000Y-70962500D01*
X169967001Y-70962500D01*
X169967001Y-71061654D01*
X169977319Y-71162652D01*
X170031546Y-71326300D01*
X170031551Y-71326311D01*
X170122052Y-71473034D01*
X170122055Y-71473038D01*
X170243961Y-71594944D01*
X170243965Y-71594947D01*
X170390688Y-71685448D01*
X170390699Y-71685453D01*
X170554347Y-71739680D01*
X170655352Y-71749999D01*
X170692000Y-71749999D01*
X170692000Y-70962500D01*
X169967001Y-70962500D01*
X167982000Y-70962500D01*
X167982000Y-70694000D01*
X168001685Y-70626961D01*
X168054489Y-70581206D01*
X168106000Y-70570000D01*
X169432000Y-70570000D01*
X169432000Y-70172172D01*
X169431999Y-70172155D01*
X169425598Y-70112627D01*
X169425596Y-70112620D01*
X169388831Y-70014047D01*
X169383847Y-69944356D01*
X169388827Y-69927390D01*
X169426091Y-69827483D01*
X169426091Y-69827482D01*
X169426582Y-69826166D01*
X169468454Y-69770233D01*
X169533918Y-69745816D01*
X169542764Y-69745500D01*
X170029178Y-69745500D01*
X170096217Y-69765185D01*
G37*
%TD.AperFunction*%
%TA.AperFunction,Conductor*%
G36*
X152135230Y-72247820D02*
G01*
X153586729Y-73699320D01*
X153620213Y-73760641D01*
X153615229Y-73830333D01*
X153586728Y-73874680D01*
X152144180Y-75317227D01*
X152082857Y-75350712D01*
X152013165Y-75345728D01*
X151957232Y-75303856D01*
X151932815Y-75238392D01*
X151932499Y-75229569D01*
X151932499Y-75060600D01*
X151931900Y-75056051D01*
X151926268Y-75013270D01*
X151918009Y-74950528D01*
X151918008Y-74950525D01*
X151915905Y-74942674D01*
X151919196Y-74941792D01*
X151913405Y-74888000D01*
X151916499Y-74877485D01*
X151915905Y-74877326D01*
X151918008Y-74869475D01*
X151918008Y-74869474D01*
X151918009Y-74869472D01*
X151932500Y-74759401D01*
X151932499Y-74560600D01*
X151918009Y-74450528D01*
X151918008Y-74450525D01*
X151915905Y-74442674D01*
X151919196Y-74441792D01*
X151913405Y-74388000D01*
X151916499Y-74377485D01*
X151915905Y-74377326D01*
X151918008Y-74369475D01*
X151918008Y-74369474D01*
X151918009Y-74369472D01*
X151932500Y-74259401D01*
X151932499Y-74060600D01*
X151932499Y-74060598D01*
X151932499Y-74060596D01*
X151918011Y-73950536D01*
X151915906Y-73942682D01*
X151919197Y-73941800D01*
X151913405Y-73888001D01*
X151916499Y-73877486D01*
X151915905Y-73877327D01*
X151918008Y-73869476D01*
X151919633Y-73857135D01*
X151932500Y-73759401D01*
X151932499Y-73560600D01*
X151931749Y-73554906D01*
X151923569Y-73492767D01*
X151918009Y-73450528D01*
X151918008Y-73450525D01*
X151915905Y-73442674D01*
X151919196Y-73441792D01*
X151913405Y-73388000D01*
X151916499Y-73377485D01*
X151915905Y-73377326D01*
X151918008Y-73369475D01*
X151918008Y-73369474D01*
X151918009Y-73369472D01*
X151932500Y-73259401D01*
X151932499Y-73060600D01*
X151932499Y-73060598D01*
X151932499Y-73060596D01*
X151918011Y-72950536D01*
X151915906Y-72942682D01*
X151919197Y-72941800D01*
X151913405Y-72888001D01*
X151916499Y-72877486D01*
X151915905Y-72877327D01*
X151918008Y-72869476D01*
X151918010Y-72869463D01*
X151932500Y-72759401D01*
X151932499Y-72560600D01*
X151918009Y-72450528D01*
X151918008Y-72450525D01*
X151915905Y-72442674D01*
X151919196Y-72441792D01*
X151913405Y-72388000D01*
X151916499Y-72377485D01*
X151915905Y-72377326D01*
X151918008Y-72369474D01*
X151918007Y-72369474D01*
X151918009Y-72369472D01*
X151924612Y-72319316D01*
X151952876Y-72255422D01*
X152011200Y-72216950D01*
X152081065Y-72216117D01*
X152135230Y-72247820D01*
G37*
%TD.AperFunction*%
%TA.AperFunction,Conductor*%
G36*
X156850834Y-72482269D02*
G01*
X156906767Y-72524141D01*
X156931184Y-72589605D01*
X156931500Y-72598450D01*
X156931500Y-72759403D01*
X156945988Y-72869463D01*
X156948094Y-72877318D01*
X156944818Y-72878195D01*
X156950575Y-72932103D01*
X156947518Y-72942518D01*
X156948095Y-72942673D01*
X156945991Y-72950524D01*
X156931500Y-73060598D01*
X156931500Y-73259403D01*
X156945988Y-73369463D01*
X156948094Y-73377318D01*
X156944818Y-73378195D01*
X156950575Y-73432103D01*
X156947518Y-73442518D01*
X156948095Y-73442673D01*
X156945991Y-73450524D01*
X156931500Y-73560598D01*
X156931500Y-73759403D01*
X156945988Y-73869463D01*
X156948094Y-73877318D01*
X156944818Y-73878195D01*
X156950575Y-73932103D01*
X156947518Y-73942518D01*
X156948095Y-73942673D01*
X156945991Y-73950524D01*
X156931500Y-74060598D01*
X156931500Y-74259403D01*
X156945989Y-74369468D01*
X156948094Y-74377322D01*
X156944960Y-74378161D01*
X156950790Y-74432557D01*
X156919495Y-74495026D01*
X156859394Y-74530658D01*
X156828768Y-74534500D01*
X155734452Y-74534500D01*
X155667413Y-74514815D01*
X155646771Y-74498181D01*
X155450256Y-74301666D01*
X155277269Y-74128678D01*
X155243785Y-74067357D01*
X155248769Y-73997665D01*
X155277268Y-73953320D01*
X156719821Y-72510768D01*
X156781142Y-72477285D01*
X156850834Y-72482269D01*
G37*
%TD.AperFunction*%
%TA.AperFunction,Conductor*%
G36*
X153714513Y-71144505D02*
G01*
X153714674Y-71143905D01*
X153722524Y-71146008D01*
X153722526Y-71146008D01*
X153722528Y-71146009D01*
X153832599Y-71160500D01*
X154031400Y-71160499D01*
X154031401Y-71160499D01*
X154049259Y-71158148D01*
X154141472Y-71146009D01*
X154141475Y-71146007D01*
X154149326Y-71143905D01*
X154150210Y-71147207D01*
X154203925Y-71141392D01*
X154214514Y-71144501D01*
X154214674Y-71143905D01*
X154222524Y-71146008D01*
X154222526Y-71146008D01*
X154222528Y-71146009D01*
X154332599Y-71160500D01*
X154531400Y-71160499D01*
X154531401Y-71160499D01*
X154549259Y-71158148D01*
X154641472Y-71146009D01*
X154641475Y-71146007D01*
X154649326Y-71143905D01*
X154650210Y-71147207D01*
X154703925Y-71141392D01*
X154714514Y-71144501D01*
X154714674Y-71143905D01*
X154722524Y-71146008D01*
X154722526Y-71146008D01*
X154722528Y-71146009D01*
X154832599Y-71160500D01*
X155031400Y-71160499D01*
X155031401Y-71160499D01*
X155049259Y-71158148D01*
X155141472Y-71146009D01*
X155141475Y-71146007D01*
X155149326Y-71143905D01*
X155150210Y-71147207D01*
X155203925Y-71141392D01*
X155214514Y-71144501D01*
X155214674Y-71143905D01*
X155222524Y-71146008D01*
X155222526Y-71146008D01*
X155222528Y-71146009D01*
X155332599Y-71160500D01*
X155531400Y-71160499D01*
X155531401Y-71160499D01*
X155549259Y-71158148D01*
X155641472Y-71146009D01*
X155641475Y-71146007D01*
X155649326Y-71143905D01*
X155650210Y-71147207D01*
X155703925Y-71141392D01*
X155729432Y-71148868D01*
X155729932Y-71149075D01*
X155784343Y-71192906D01*
X155806420Y-71259197D01*
X155806500Y-71263645D01*
X155806500Y-71603546D01*
X155786815Y-71670585D01*
X155770181Y-71691227D01*
X154646680Y-72814728D01*
X154585357Y-72848213D01*
X154515665Y-72843229D01*
X154471318Y-72814728D01*
X153019822Y-71363231D01*
X152986337Y-71301908D01*
X152991321Y-71232216D01*
X153033193Y-71176283D01*
X153091318Y-71152611D01*
X153141472Y-71146009D01*
X153141474Y-71146008D01*
X153141475Y-71146008D01*
X153149326Y-71143905D01*
X153150210Y-71147207D01*
X153203925Y-71141392D01*
X153214514Y-71144501D01*
X153214674Y-71143905D01*
X153222524Y-71146008D01*
X153222526Y-71146008D01*
X153222528Y-71146009D01*
X153332599Y-71160500D01*
X153531400Y-71160499D01*
X153531401Y-71160499D01*
X153549259Y-71158148D01*
X153641472Y-71146009D01*
X153641478Y-71146006D01*
X153649329Y-71143904D01*
X153650217Y-71147218D01*
X153703851Y-71141378D01*
X153714513Y-71144505D01*
G37*
%TD.AperFunction*%
%TA.AperFunction,Conductor*%
G36*
X148378973Y-70373514D02*
G01*
X148423327Y-70402016D01*
X148437650Y-70416340D01*
X148584484Y-70506908D01*
X148748247Y-70561174D01*
X148849323Y-70571500D01*
X148883546Y-70571499D01*
X148950584Y-70591182D01*
X148971228Y-70607818D01*
X149686228Y-71322819D01*
X149719713Y-71384142D01*
X149714729Y-71453834D01*
X149672857Y-71509767D01*
X149607393Y-71534184D01*
X149598547Y-71534500D01*
X148670452Y-71534500D01*
X148603413Y-71514815D01*
X148582771Y-71498181D01*
X147855566Y-70770976D01*
X147822081Y-70709653D01*
X147827065Y-70639961D01*
X147868937Y-70584028D01*
X147917298Y-70562041D01*
X147923649Y-70560681D01*
X148087300Y-70506453D01*
X148087311Y-70506448D01*
X148234035Y-70415947D01*
X148247960Y-70402021D01*
X148309282Y-70368533D01*
X148378973Y-70373514D01*
G37*
%TD.AperFunction*%
%TA.AperFunction,Conductor*%
G36*
X158789539Y-67841685D02*
G01*
X158835294Y-67894489D01*
X158846500Y-67946000D01*
X158846500Y-69046999D01*
X158882819Y-69083318D01*
X158881307Y-69084829D01*
X158911340Y-69119488D01*
X158921284Y-69188646D01*
X158892259Y-69252202D01*
X158886227Y-69258680D01*
X157764884Y-70380022D01*
X157703561Y-70413507D01*
X157633869Y-70408523D01*
X157589522Y-70380022D01*
X157557000Y-70347500D01*
X157181500Y-70347500D01*
X157114461Y-70327815D01*
X157068706Y-70275011D01*
X157057500Y-70223500D01*
X157057500Y-70221500D01*
X157077185Y-70154461D01*
X157129989Y-70108706D01*
X157181500Y-70097500D01*
X157557000Y-70097500D01*
X157557000Y-69810636D01*
X157556999Y-69810622D01*
X157542521Y-69700658D01*
X157542521Y-69700657D01*
X157485843Y-69563824D01*
X157395679Y-69446320D01*
X157278175Y-69356156D01*
X157134047Y-69296456D01*
X157079644Y-69252615D01*
X157057579Y-69186321D01*
X157057500Y-69181895D01*
X157057500Y-69171499D01*
X157077185Y-69104460D01*
X157129989Y-69058705D01*
X157181500Y-69047499D01*
X157220670Y-69047499D01*
X157220676Y-69047499D01*
X157321753Y-69037174D01*
X157485516Y-68982908D01*
X157632350Y-68892340D01*
X157646671Y-68878018D01*
X157707989Y-68844533D01*
X157777681Y-68849514D01*
X157822034Y-68878017D01*
X157835961Y-68891944D01*
X157835965Y-68891947D01*
X157982688Y-68982448D01*
X157982699Y-68982453D01*
X158146347Y-69036680D01*
X158247351Y-69046999D01*
X158346500Y-69046998D01*
X158346500Y-67946000D01*
X158366185Y-67878961D01*
X158418989Y-67833206D01*
X158470500Y-67822000D01*
X158722500Y-67822000D01*
X158789539Y-67841685D01*
G37*
%TD.AperFunction*%
%TA.AperFunction,Conductor*%
G36*
X162962703Y-66311739D02*
G01*
X162969181Y-66317771D01*
X164599194Y-67947784D01*
X164609019Y-67960048D01*
X164609240Y-67959866D01*
X164614210Y-67965873D01*
X164614213Y-67965876D01*
X164614214Y-67965877D01*
X164664651Y-68013241D01*
X164685530Y-68034120D01*
X164691004Y-68038366D01*
X164695442Y-68042156D01*
X164729418Y-68074062D01*
X164729422Y-68074064D01*
X164746973Y-68083713D01*
X164763231Y-68094392D01*
X164779064Y-68106674D01*
X164798999Y-68115300D01*
X164821837Y-68125183D01*
X164827081Y-68127752D01*
X164830764Y-68129776D01*
X164880027Y-68179323D01*
X164894683Y-68247638D01*
X164887207Y-68281770D01*
X164838403Y-68412620D01*
X164838401Y-68412627D01*
X164832000Y-68472155D01*
X164832000Y-68870000D01*
X166158000Y-68870000D01*
X166225039Y-68889685D01*
X166270794Y-68942489D01*
X166282000Y-68994000D01*
X166282000Y-69246000D01*
X166262315Y-69313039D01*
X166209511Y-69358794D01*
X166158000Y-69370000D01*
X164832000Y-69370000D01*
X164832000Y-69767844D01*
X164838401Y-69827372D01*
X164838403Y-69827380D01*
X164875168Y-69925952D01*
X164880152Y-69995644D01*
X164875168Y-70012617D01*
X164837418Y-70113832D01*
X164795548Y-70169766D01*
X164730083Y-70194184D01*
X164721236Y-70194500D01*
X164354266Y-70194500D01*
X164287227Y-70174815D01*
X164241472Y-70122011D01*
X164236561Y-70109507D01*
X164234369Y-70102894D01*
X164232908Y-70098484D01*
X164142340Y-69951650D01*
X164128017Y-69937326D01*
X164094532Y-69876004D01*
X164099516Y-69806312D01*
X164128021Y-69761960D01*
X164141947Y-69748035D01*
X164232448Y-69601311D01*
X164232453Y-69601300D01*
X164286680Y-69437652D01*
X164296999Y-69336654D01*
X164297000Y-69336641D01*
X164297000Y-69237500D01*
X163196000Y-69237500D01*
X163128961Y-69217815D01*
X163083206Y-69165011D01*
X163072000Y-69113500D01*
X163072000Y-68737499D01*
X163571999Y-68737499D01*
X163572000Y-68737500D01*
X164296999Y-68737500D01*
X164296999Y-68638360D01*
X164296998Y-68638345D01*
X164286680Y-68537347D01*
X164232453Y-68373699D01*
X164232448Y-68373688D01*
X164141947Y-68226965D01*
X164141944Y-68226961D01*
X164020038Y-68105055D01*
X164020034Y-68105052D01*
X163873311Y-68014551D01*
X163873300Y-68014546D01*
X163709652Y-67960319D01*
X163608654Y-67950000D01*
X163572000Y-67950000D01*
X163571999Y-68737499D01*
X163072000Y-68737499D01*
X163072000Y-67950000D01*
X163035361Y-67950000D01*
X163035343Y-67950001D01*
X162934347Y-67960319D01*
X162920501Y-67964907D01*
X162850673Y-67967307D01*
X162790632Y-67931574D01*
X162759441Y-67869053D01*
X162757500Y-67847200D01*
X162757500Y-66405452D01*
X162777185Y-66338413D01*
X162829989Y-66292658D01*
X162899147Y-66282714D01*
X162962703Y-66311739D01*
G37*
%TD.AperFunction*%
%TA.AperFunction,Conductor*%
G36*
X101269512Y-67809507D02*
G01*
X101322315Y-67855262D01*
X101342000Y-67922301D01*
X101342000Y-69237698D01*
X101322315Y-69304737D01*
X101269511Y-69350492D01*
X101200355Y-69360436D01*
X101127766Y-69350000D01*
X101127763Y-69350000D01*
X101056237Y-69350000D01*
X101056233Y-69350000D01*
X100983645Y-69360436D01*
X100914487Y-69350492D01*
X100861684Y-69304736D01*
X100842000Y-69237698D01*
X100842000Y-67922301D01*
X100861685Y-67855262D01*
X100914489Y-67809507D01*
X100983647Y-67799563D01*
X101056237Y-67810000D01*
X101056238Y-67810000D01*
X101127762Y-67810000D01*
X101127763Y-67810000D01*
X101200353Y-67799563D01*
X101269512Y-67809507D01*
G37*
%TD.AperFunction*%
%TA.AperFunction,Conductor*%
G36*
X113685331Y-66968091D02*
G01*
X113713165Y-66972500D01*
X113760515Y-66980000D01*
X113760519Y-66980000D01*
X113823485Y-66980000D01*
X113870835Y-66972500D01*
X113898602Y-66968102D01*
X113967894Y-66977056D01*
X114021347Y-67022052D01*
X114041987Y-67088803D01*
X114042000Y-67090575D01*
X114042000Y-68069424D01*
X114022315Y-68136463D01*
X113969511Y-68182218D01*
X113900353Y-68192162D01*
X113898602Y-68191897D01*
X113823486Y-68180000D01*
X113823481Y-68180000D01*
X113760519Y-68180000D01*
X113760514Y-68180000D01*
X113685398Y-68191897D01*
X113616104Y-68182942D01*
X113562652Y-68137946D01*
X113542013Y-68071194D01*
X113542000Y-68069424D01*
X113542000Y-67090575D01*
X113561685Y-67023536D01*
X113614489Y-66977781D01*
X113683647Y-66967837D01*
X113685331Y-66968091D01*
G37*
%TD.AperFunction*%
%TA.AperFunction,Conductor*%
G36*
X117604426Y-58420690D02*
G01*
X117658977Y-58424984D01*
X117799579Y-58437285D01*
X117817696Y-58440235D01*
X117898020Y-58459520D01*
X117943511Y-58471709D01*
X118008713Y-58489181D01*
X118016400Y-58491790D01*
X118053685Y-58507233D01*
X118102959Y-58527643D01*
X118201955Y-58573806D01*
X118208154Y-58577136D01*
X118288778Y-58626543D01*
X118291926Y-58628608D01*
X118378606Y-58689302D01*
X118383285Y-58692924D01*
X118455840Y-58754892D01*
X118459389Y-58758173D01*
X118533824Y-58832608D01*
X118537109Y-58836162D01*
X118599070Y-58908708D01*
X118602707Y-58913406D01*
X118663385Y-59000064D01*
X118665462Y-59003231D01*
X118714862Y-59083845D01*
X118718192Y-59090042D01*
X118764358Y-59189043D01*
X118800208Y-59275598D01*
X118802817Y-59283284D01*
X118832485Y-59394002D01*
X118851760Y-59474290D01*
X118854714Y-59492429D01*
X118867020Y-59633083D01*
X118871309Y-59687575D01*
X118871500Y-59692441D01*
X118871500Y-60935467D01*
X118871416Y-60935889D01*
X118871459Y-60960001D01*
X118871500Y-60960099D01*
X118871616Y-60960382D01*
X118871618Y-60960384D01*
X118871808Y-60960462D01*
X118872000Y-60960541D01*
X118872002Y-60960539D01*
X118896616Y-60960524D01*
X118896616Y-60960528D01*
X118896760Y-60960500D01*
X131547240Y-60960500D01*
X131547383Y-60960528D01*
X131547384Y-60960524D01*
X131571997Y-60960539D01*
X131572000Y-60960541D01*
X131572383Y-60960383D01*
X131572500Y-60960099D01*
X131572541Y-60960000D01*
X131572540Y-60959997D01*
X131572583Y-60935889D01*
X131572500Y-60935467D01*
X131572500Y-59692438D01*
X131572691Y-59687573D01*
X131572691Y-59687569D01*
X131576983Y-59633029D01*
X131589286Y-59492416D01*
X131592234Y-59474307D01*
X131611518Y-59393984D01*
X131641181Y-59283284D01*
X131643790Y-59275598D01*
X131679649Y-59189026D01*
X131725813Y-59090028D01*
X131729127Y-59083860D01*
X131778562Y-59003190D01*
X131780587Y-59000102D01*
X131841316Y-58913372D01*
X131844908Y-58908733D01*
X131906914Y-58836133D01*
X131910149Y-58832634D01*
X131984634Y-58758149D01*
X131988133Y-58754914D01*
X132060733Y-58692908D01*
X132065372Y-58689316D01*
X132152102Y-58628587D01*
X132155190Y-58626562D01*
X132235860Y-58577127D01*
X132242028Y-58573813D01*
X132341026Y-58527649D01*
X132427599Y-58491789D01*
X132435285Y-58489181D01*
X132437617Y-58488556D01*
X132545984Y-58459518D01*
X132626307Y-58440234D01*
X132644416Y-58437286D01*
X132784988Y-58424986D01*
X132839573Y-58420690D01*
X132844438Y-58420500D01*
X173479562Y-58420500D01*
X173484426Y-58420690D01*
X173538977Y-58424984D01*
X173679579Y-58437285D01*
X173697696Y-58440235D01*
X173778020Y-58459520D01*
X173823511Y-58471709D01*
X173888713Y-58489181D01*
X173896400Y-58491790D01*
X173933685Y-58507233D01*
X173982959Y-58527643D01*
X174081955Y-58573806D01*
X174088154Y-58577136D01*
X174168778Y-58626543D01*
X174171926Y-58628608D01*
X174258606Y-58689302D01*
X174263285Y-58692924D01*
X174335840Y-58754892D01*
X174339389Y-58758173D01*
X174413824Y-58832608D01*
X174417109Y-58836162D01*
X174479070Y-58908708D01*
X174482707Y-58913406D01*
X174543385Y-59000064D01*
X174545462Y-59003231D01*
X174594862Y-59083845D01*
X174598192Y-59090042D01*
X174644358Y-59189043D01*
X174680208Y-59275598D01*
X174682817Y-59283284D01*
X174712485Y-59394002D01*
X174731760Y-59474290D01*
X174734714Y-59492429D01*
X174747020Y-59633083D01*
X174751309Y-59687575D01*
X174751500Y-59692441D01*
X174751500Y-60935467D01*
X174751416Y-60935889D01*
X174751459Y-60960001D01*
X174751500Y-60960099D01*
X174751616Y-60960382D01*
X174751618Y-60960384D01*
X174751808Y-60960462D01*
X174752000Y-60960541D01*
X174752002Y-60960539D01*
X174776616Y-60960524D01*
X174776616Y-60960528D01*
X174776760Y-60960500D01*
X187427240Y-60960500D01*
X187427383Y-60960528D01*
X187427384Y-60960524D01*
X187451997Y-60960539D01*
X187452000Y-60960541D01*
X187452383Y-60960383D01*
X187452500Y-60960099D01*
X187452541Y-60960000D01*
X187452540Y-60959997D01*
X187452583Y-60935889D01*
X187452500Y-60935467D01*
X187452500Y-59692438D01*
X187452691Y-59687573D01*
X187452691Y-59687569D01*
X187456983Y-59633029D01*
X187469286Y-59492416D01*
X187472234Y-59474307D01*
X187491518Y-59393984D01*
X187521181Y-59283284D01*
X187523790Y-59275598D01*
X187559649Y-59189026D01*
X187605813Y-59090028D01*
X187609127Y-59083860D01*
X187658562Y-59003190D01*
X187660587Y-59000102D01*
X187721316Y-58913372D01*
X187724908Y-58908733D01*
X187786914Y-58836133D01*
X187790149Y-58832634D01*
X187864634Y-58758149D01*
X187868133Y-58754914D01*
X187940733Y-58692908D01*
X187945372Y-58689316D01*
X188032102Y-58628587D01*
X188035190Y-58626562D01*
X188115860Y-58577127D01*
X188122028Y-58573813D01*
X188221026Y-58527649D01*
X188307599Y-58491789D01*
X188315285Y-58489181D01*
X188317617Y-58488556D01*
X188425984Y-58459518D01*
X188506307Y-58440234D01*
X188524416Y-58437286D01*
X188664988Y-58424986D01*
X188719573Y-58420690D01*
X188724438Y-58420500D01*
X193799562Y-58420500D01*
X193804426Y-58420690D01*
X193858977Y-58424984D01*
X193999579Y-58437285D01*
X194017696Y-58440235D01*
X194098020Y-58459520D01*
X194143511Y-58471709D01*
X194208713Y-58489181D01*
X194216400Y-58491790D01*
X194253685Y-58507233D01*
X194302959Y-58527643D01*
X194401955Y-58573806D01*
X194408154Y-58577136D01*
X194488778Y-58626543D01*
X194491926Y-58628608D01*
X194578606Y-58689302D01*
X194583285Y-58692924D01*
X194655840Y-58754892D01*
X194659389Y-58758173D01*
X194733824Y-58832608D01*
X194737109Y-58836162D01*
X194799070Y-58908708D01*
X194802707Y-58913406D01*
X194863385Y-59000064D01*
X194865462Y-59003231D01*
X194914862Y-59083845D01*
X194918192Y-59090042D01*
X194964358Y-59189043D01*
X195000208Y-59275598D01*
X195002817Y-59283284D01*
X195032485Y-59394002D01*
X195051760Y-59474290D01*
X195054714Y-59492429D01*
X195067020Y-59633083D01*
X195071309Y-59687575D01*
X195071500Y-59692441D01*
X195071500Y-60259330D01*
X195051815Y-60326369D01*
X194999011Y-60372124D01*
X194956552Y-60382999D01*
X194801844Y-60394323D01*
X194801831Y-60394325D01*
X194537453Y-60453217D01*
X194537446Y-60453220D01*
X194284439Y-60549987D01*
X194048226Y-60682557D01*
X193833822Y-60848112D01*
X193645822Y-61043109D01*
X193645816Y-61043116D01*
X193488202Y-61263419D01*
X193488199Y-61263424D01*
X193364350Y-61504309D01*
X193364343Y-61504327D01*
X193276884Y-61760685D01*
X193276881Y-61760699D01*
X193266381Y-61817546D01*
X193229456Y-62017460D01*
X193227681Y-62027068D01*
X193227680Y-62027075D01*
X193217787Y-62297763D01*
X193247413Y-62567013D01*
X193247415Y-62567024D01*
X193315926Y-62829082D01*
X193315928Y-62829088D01*
X193421870Y-63078390D01*
X193562979Y-63309605D01*
X193562986Y-63309615D01*
X193736253Y-63517819D01*
X193736259Y-63517824D01*
X193836490Y-63607631D01*
X193937998Y-63698582D01*
X194163910Y-63848044D01*
X194409176Y-63963020D01*
X194409183Y-63963022D01*
X194409185Y-63963023D01*
X194668557Y-64041057D01*
X194668564Y-64041058D01*
X194668569Y-64041060D01*
X194936561Y-64080500D01*
X194947500Y-64080500D01*
X195014539Y-64100185D01*
X195060294Y-64152989D01*
X195071500Y-64204500D01*
X195071500Y-92707558D01*
X195071309Y-92712424D01*
X195067020Y-92766916D01*
X195054714Y-92907569D01*
X195051760Y-92925707D01*
X195032485Y-93005997D01*
X195002817Y-93116714D01*
X195000208Y-93124399D01*
X194964358Y-93210956D01*
X194918192Y-93309956D01*
X194914862Y-93316153D01*
X194865462Y-93396767D01*
X194863385Y-93399934D01*
X194802707Y-93486592D01*
X194799062Y-93491300D01*
X194737118Y-93563827D01*
X194733812Y-93567403D01*
X194659403Y-93641812D01*
X194655827Y-93645118D01*
X194583300Y-93707062D01*
X194578592Y-93710707D01*
X194491934Y-93771385D01*
X194488767Y-93773462D01*
X194408153Y-93822862D01*
X194401956Y-93826192D01*
X194302956Y-93872358D01*
X194216399Y-93908208D01*
X194208714Y-93910817D01*
X194097997Y-93940485D01*
X194017707Y-93959760D01*
X193999569Y-93962714D01*
X193858916Y-93975020D01*
X193804425Y-93979309D01*
X193799559Y-93979500D01*
X97284441Y-93979500D01*
X97279575Y-93979309D01*
X97225083Y-93975020D01*
X97084429Y-93962714D01*
X97066290Y-93959760D01*
X96986002Y-93940485D01*
X96875284Y-93910817D01*
X96867598Y-93908208D01*
X96781043Y-93872358D01*
X96682042Y-93826192D01*
X96675845Y-93822862D01*
X96595231Y-93773462D01*
X96592064Y-93771385D01*
X96559182Y-93748361D01*
X96505399Y-93710702D01*
X96500708Y-93707070D01*
X96428162Y-93645109D01*
X96424608Y-93641824D01*
X96350173Y-93567389D01*
X96346892Y-93563840D01*
X96284924Y-93491285D01*
X96281302Y-93486606D01*
X96220608Y-93399926D01*
X96218543Y-93396778D01*
X96169136Y-93316153D01*
X96165806Y-93309955D01*
X96119642Y-93210956D01*
X96099233Y-93161685D01*
X96083790Y-93124400D01*
X96081181Y-93116713D01*
X96051514Y-93005997D01*
X96032235Y-92925696D01*
X96029285Y-92907579D01*
X96016979Y-92766916D01*
X96012688Y-92712400D01*
X96012500Y-92707586D01*
X96012500Y-89600668D01*
X96032185Y-89533630D01*
X96084989Y-89487875D01*
X96127448Y-89477000D01*
X96282156Y-89465677D01*
X96394758Y-89440593D01*
X96546546Y-89406782D01*
X96546548Y-89406781D01*
X96546553Y-89406780D01*
X96799558Y-89310014D01*
X97035777Y-89177441D01*
X97250177Y-89011888D01*
X97438186Y-88816881D01*
X97595799Y-88596579D01*
X97714647Y-88365418D01*
X97719649Y-88355690D01*
X97719651Y-88355684D01*
X97719656Y-88355675D01*
X97807118Y-88099305D01*
X97856319Y-87832933D01*
X97866212Y-87562235D01*
X97836586Y-87292982D01*
X97768072Y-87030912D01*
X97662130Y-86781610D01*
X97521018Y-86550390D01*
X97431747Y-86443119D01*
X97347746Y-86342180D01*
X97347740Y-86342175D01*
X97146002Y-86161418D01*
X96920092Y-86011957D01*
X96920090Y-86011956D01*
X96674824Y-85896980D01*
X96674819Y-85896978D01*
X96674814Y-85896976D01*
X96415442Y-85818942D01*
X96415428Y-85818939D01*
X96299791Y-85801921D01*
X96147439Y-85779500D01*
X96147434Y-85779500D01*
X96136500Y-85779500D01*
X96069461Y-85759815D01*
X96023706Y-85707011D01*
X96012500Y-85655500D01*
X96012499Y-74930000D01*
X99736341Y-74930000D01*
X99756936Y-75165403D01*
X99756938Y-75165413D01*
X99818094Y-75393655D01*
X99818096Y-75393659D01*
X99818097Y-75393663D01*
X99907973Y-75586403D01*
X99917965Y-75607830D01*
X99917967Y-75607834D01*
X99981658Y-75698793D01*
X100053501Y-75801396D01*
X100053506Y-75801402D01*
X100175430Y-75923326D01*
X100208915Y-75984649D01*
X100203931Y-76054341D01*
X100162059Y-76110274D01*
X100131083Y-76127189D01*
X99999669Y-76176203D01*
X99999664Y-76176206D01*
X99884455Y-76262452D01*
X99884452Y-76262455D01*
X99798206Y-76377664D01*
X99798202Y-76377671D01*
X99747908Y-76512517D01*
X99741501Y-76572116D01*
X99741500Y-76572135D01*
X99741500Y-78367870D01*
X99741501Y-78367876D01*
X99747908Y-78427483D01*
X99798202Y-78562328D01*
X99798206Y-78562335D01*
X99884452Y-78677544D01*
X99884455Y-78677547D01*
X99999664Y-78763793D01*
X99999671Y-78763797D01*
X100134517Y-78814091D01*
X100134516Y-78814091D01*
X100141444Y-78814835D01*
X100194127Y-78820500D01*
X101989872Y-78820499D01*
X102049483Y-78814091D01*
X102184331Y-78763796D01*
X102299546Y-78677546D01*
X102385796Y-78562331D01*
X102423744Y-78460588D01*
X102427258Y-78451167D01*
X102469129Y-78395233D01*
X102534593Y-78370816D01*
X102543440Y-78370500D01*
X110663373Y-78370500D01*
X110682772Y-78372027D01*
X110696612Y-78374219D01*
X110765959Y-78370584D01*
X110769203Y-78370500D01*
X110791191Y-78370500D01*
X110791192Y-78370500D01*
X110810352Y-78368486D01*
X110813064Y-78368201D01*
X110816284Y-78367947D01*
X110885646Y-78364313D01*
X110899187Y-78360683D01*
X110918313Y-78357138D01*
X110932256Y-78355674D01*
X110998306Y-78334212D01*
X111001368Y-78333304D01*
X111068488Y-78315320D01*
X111080976Y-78308956D01*
X111098950Y-78301510D01*
X111112284Y-78297179D01*
X111172476Y-78262425D01*
X111175222Y-78260934D01*
X111237149Y-78229383D01*
X111248031Y-78220569D01*
X111264083Y-78209537D01*
X111276216Y-78202533D01*
X111327847Y-78156043D01*
X111330260Y-78153982D01*
X111347380Y-78140119D01*
X111362929Y-78124568D01*
X111365270Y-78122347D01*
X111416888Y-78075871D01*
X111425130Y-78064525D01*
X111437760Y-78049737D01*
X113695680Y-75791818D01*
X113757003Y-75758333D01*
X113783361Y-75755499D01*
X114514871Y-75755499D01*
X114514872Y-75755499D01*
X114574483Y-75749091D01*
X114709331Y-75698796D01*
X114824546Y-75612546D01*
X114910796Y-75497331D01*
X114961091Y-75362483D01*
X114967500Y-75302873D01*
X114967499Y-73857128D01*
X114961091Y-73797517D01*
X114957168Y-73787000D01*
X114910797Y-73662671D01*
X114910793Y-73662664D01*
X114845275Y-73575145D01*
X114824546Y-73547454D01*
X114751492Y-73492765D01*
X114709622Y-73436833D01*
X114704638Y-73367141D01*
X114738123Y-73305818D01*
X114799447Y-73272334D01*
X114825804Y-73269500D01*
X122091257Y-73269500D01*
X122106877Y-73271224D01*
X122106904Y-73270939D01*
X122114660Y-73271671D01*
X122114667Y-73271673D01*
X122183814Y-73269500D01*
X122213350Y-73269500D01*
X122220228Y-73268630D01*
X122226041Y-73268172D01*
X122272627Y-73266709D01*
X122291869Y-73261117D01*
X122310912Y-73257174D01*
X122330792Y-73254664D01*
X122374122Y-73237507D01*
X122379646Y-73235617D01*
X122383396Y-73234527D01*
X122424390Y-73222618D01*
X122441629Y-73212422D01*
X122459103Y-73203862D01*
X122477727Y-73196488D01*
X122477727Y-73196487D01*
X122477732Y-73196486D01*
X122515449Y-73169082D01*
X122520305Y-73165892D01*
X122560420Y-73142170D01*
X122574589Y-73127999D01*
X122589379Y-73115368D01*
X122605587Y-73103594D01*
X122635299Y-73067676D01*
X122639212Y-73063376D01*
X124428771Y-71273819D01*
X124490095Y-71240334D01*
X124516453Y-71237500D01*
X128950519Y-71237500D01*
X129017558Y-71257185D01*
X129056058Y-71296404D01*
X129064660Y-71310350D01*
X129186650Y-71432340D01*
X129332760Y-71522461D01*
X129379484Y-71574409D01*
X129390707Y-71643372D01*
X129362863Y-71707454D01*
X129332761Y-71733537D01*
X129282564Y-71764500D01*
X129186648Y-71823661D01*
X129064661Y-71945648D01*
X128974093Y-72092481D01*
X128974091Y-72092486D01*
X128964839Y-72120407D01*
X128919826Y-72256247D01*
X128919826Y-72256248D01*
X128919825Y-72256248D01*
X128909500Y-72357315D01*
X128909500Y-72441319D01*
X128909160Y-72447804D01*
X128888540Y-72643999D01*
X128909160Y-72840194D01*
X128909500Y-72846678D01*
X128909500Y-72930668D01*
X128909501Y-72930687D01*
X128919825Y-73031752D01*
X128974092Y-73195515D01*
X128974093Y-73195518D01*
X128999330Y-73236433D01*
X129064660Y-73342350D01*
X129186650Y-73464340D01*
X129333484Y-73554908D01*
X129497247Y-73609174D01*
X129598323Y-73619500D01*
X130196676Y-73619499D01*
X130196684Y-73619498D01*
X130196687Y-73619498D01*
X130252030Y-73613844D01*
X130297753Y-73609174D01*
X130461516Y-73554908D01*
X130608350Y-73464340D01*
X130722318Y-73350371D01*
X130783642Y-73316886D01*
X130853334Y-73321870D01*
X130897680Y-73350371D01*
X131011650Y-73464340D01*
X131158484Y-73554908D01*
X131322247Y-73609174D01*
X131423323Y-73619500D01*
X132021676Y-73619499D01*
X132021684Y-73619498D01*
X132021687Y-73619498D01*
X132077030Y-73613844D01*
X132122753Y-73609174D01*
X132286516Y-73554908D01*
X132433350Y-73464340D01*
X132555340Y-73342350D01*
X132563941Y-73328404D01*
X132615890Y-73281679D01*
X132669481Y-73269500D01*
X134817548Y-73269500D01*
X134884587Y-73289185D01*
X134905229Y-73305819D01*
X143517194Y-81917784D01*
X143527019Y-81930048D01*
X143527240Y-81929866D01*
X143532210Y-81935873D01*
X143532213Y-81935876D01*
X143532214Y-81935877D01*
X143582651Y-81983241D01*
X143603530Y-82004120D01*
X143609004Y-82008366D01*
X143613442Y-82012156D01*
X143647418Y-82044062D01*
X143647422Y-82044064D01*
X143664973Y-82053713D01*
X143681231Y-82064392D01*
X143697064Y-82076674D01*
X143715501Y-82084652D01*
X143739837Y-82095183D01*
X143745081Y-82097752D01*
X143785908Y-82120197D01*
X143805312Y-82125179D01*
X143823710Y-82131478D01*
X143842105Y-82139438D01*
X143888129Y-82146726D01*
X143893832Y-82147907D01*
X143938981Y-82159500D01*
X143959016Y-82159500D01*
X143978413Y-82161026D01*
X143998196Y-82164160D01*
X144044583Y-82159775D01*
X144050422Y-82159500D01*
X151847148Y-82159500D01*
X151862768Y-82161224D01*
X151862795Y-82160939D01*
X151870551Y-82161671D01*
X151870558Y-82161673D01*
X151939705Y-82159500D01*
X151969241Y-82159500D01*
X151976119Y-82158630D01*
X151981932Y-82158172D01*
X152028518Y-82156709D01*
X152047760Y-82151117D01*
X152066803Y-82147174D01*
X152086683Y-82144664D01*
X152130013Y-82127507D01*
X152135537Y-82125617D01*
X152139287Y-82124527D01*
X152180281Y-82112618D01*
X152197520Y-82102422D01*
X152214994Y-82093862D01*
X152233618Y-82086488D01*
X152233618Y-82086487D01*
X152233623Y-82086486D01*
X152271340Y-82059082D01*
X152276196Y-82055892D01*
X152316311Y-82032170D01*
X152330480Y-82017999D01*
X152345270Y-82005368D01*
X152361478Y-81993594D01*
X152391190Y-81957676D01*
X152395103Y-81953376D01*
X152463979Y-81884500D01*
X153457001Y-81884500D01*
X153457001Y-81983654D01*
X153467319Y-82084652D01*
X153521546Y-82248300D01*
X153521551Y-82248311D01*
X153612052Y-82395034D01*
X153612055Y-82395038D01*
X153733961Y-82516944D01*
X153733965Y-82516947D01*
X153880688Y-82607448D01*
X153880699Y-82607453D01*
X154044347Y-82661680D01*
X154145352Y-82671999D01*
X154182000Y-82671999D01*
X154182000Y-81884500D01*
X154682000Y-81884500D01*
X154682000Y-82671999D01*
X154718640Y-82671999D01*
X154718654Y-82671998D01*
X154819652Y-82661680D01*
X154983300Y-82607453D01*
X154983311Y-82607448D01*
X155130034Y-82516947D01*
X155130038Y-82516944D01*
X155251944Y-82395038D01*
X155251947Y-82395034D01*
X155342448Y-82248311D01*
X155342453Y-82248300D01*
X155396680Y-82084652D01*
X155406999Y-81983654D01*
X155407000Y-81983641D01*
X155407000Y-81884500D01*
X154682000Y-81884500D01*
X154182000Y-81884500D01*
X153457001Y-81884500D01*
X152463979Y-81884500D01*
X153255356Y-81093123D01*
X153316677Y-81059640D01*
X153386369Y-81064624D01*
X153442302Y-81106496D01*
X153466719Y-81171960D01*
X153466393Y-81193408D01*
X153457000Y-81285343D01*
X153457000Y-81384500D01*
X155406999Y-81384500D01*
X155406999Y-81285360D01*
X155406998Y-81285345D01*
X155396680Y-81184347D01*
X155342453Y-81020699D01*
X155342448Y-81020688D01*
X155251947Y-80873965D01*
X155251944Y-80873961D01*
X155238017Y-80860034D01*
X155204532Y-80798711D01*
X155209516Y-80729019D01*
X155238017Y-80684672D01*
X155252340Y-80670350D01*
X155318383Y-80563277D01*
X155370327Y-80516555D01*
X155439290Y-80505332D01*
X155503372Y-80533175D01*
X155511599Y-80540694D01*
X157858521Y-82887617D01*
X160190692Y-85219788D01*
X160200517Y-85232051D01*
X160200738Y-85231869D01*
X160205709Y-85237878D01*
X160224323Y-85255357D01*
X160256130Y-85285226D01*
X160277024Y-85306120D01*
X160282506Y-85310373D01*
X160286938Y-85314157D01*
X160320913Y-85346062D01*
X160338471Y-85355714D01*
X160354728Y-85366393D01*
X160370559Y-85378673D01*
X160390232Y-85387186D01*
X160413328Y-85397182D01*
X160418572Y-85399750D01*
X160459403Y-85422197D01*
X160472018Y-85425435D01*
X160478800Y-85427177D01*
X160497214Y-85433481D01*
X160515599Y-85441438D01*
X160561652Y-85448732D01*
X160567321Y-85449906D01*
X160612476Y-85461500D01*
X160632511Y-85461500D01*
X160651908Y-85463026D01*
X160671691Y-85466160D01*
X160718078Y-85461775D01*
X160723917Y-85461500D01*
X178225257Y-85461500D01*
X178240877Y-85463224D01*
X178240904Y-85462939D01*
X178248660Y-85463671D01*
X178248667Y-85463673D01*
X178317814Y-85461500D01*
X178347350Y-85461500D01*
X178354228Y-85460630D01*
X178360041Y-85460172D01*
X178406627Y-85458709D01*
X178425869Y-85453117D01*
X178444912Y-85449174D01*
X178464792Y-85446664D01*
X178508122Y-85429507D01*
X178513646Y-85427617D01*
X178517396Y-85426527D01*
X178558390Y-85414618D01*
X178575629Y-85404422D01*
X178593103Y-85395862D01*
X178611727Y-85388488D01*
X178611727Y-85388487D01*
X178611732Y-85388486D01*
X178649449Y-85361082D01*
X178654305Y-85357892D01*
X178694420Y-85334170D01*
X178708589Y-85319999D01*
X178723379Y-85307368D01*
X178739587Y-85295594D01*
X178769297Y-85259678D01*
X178773209Y-85255379D01*
X178779781Y-85248808D01*
X178841107Y-85215330D01*
X178867452Y-85212499D01*
X178971547Y-85212499D01*
X179038586Y-85232184D01*
X179059228Y-85248818D01*
X180554197Y-86743788D01*
X180564022Y-86756051D01*
X180564243Y-86755869D01*
X180569214Y-86761878D01*
X180590227Y-86781610D01*
X180619635Y-86809226D01*
X180640529Y-86830120D01*
X180646011Y-86834373D01*
X180650443Y-86838157D01*
X180684418Y-86870062D01*
X180701976Y-86879714D01*
X180718233Y-86890393D01*
X180734064Y-86902673D01*
X180753737Y-86911186D01*
X180776833Y-86921182D01*
X180782077Y-86923750D01*
X180822908Y-86946197D01*
X180835523Y-86949435D01*
X180842305Y-86951177D01*
X180860719Y-86957481D01*
X180879104Y-86965438D01*
X180925157Y-86972732D01*
X180930826Y-86973906D01*
X180975981Y-86985500D01*
X180996016Y-86985500D01*
X181015413Y-86987026D01*
X181035196Y-86990160D01*
X181081583Y-86985775D01*
X181087422Y-86985500D01*
X183636773Y-86985500D01*
X183703812Y-87005185D01*
X183738348Y-87038377D01*
X183873501Y-87231396D01*
X183873506Y-87231402D01*
X183995430Y-87353326D01*
X184028915Y-87414649D01*
X184023931Y-87484341D01*
X183982059Y-87540274D01*
X183951083Y-87557189D01*
X183819669Y-87606203D01*
X183819664Y-87606206D01*
X183704455Y-87692452D01*
X183704452Y-87692455D01*
X183618206Y-87807664D01*
X183618202Y-87807671D01*
X183567908Y-87942517D01*
X183561501Y-88002116D01*
X183561500Y-88002135D01*
X183561500Y-89797870D01*
X183561501Y-89797876D01*
X183567908Y-89857483D01*
X183618202Y-89992328D01*
X183618206Y-89992335D01*
X183704452Y-90107544D01*
X183704455Y-90107547D01*
X183819664Y-90193793D01*
X183819671Y-90193797D01*
X183954517Y-90244091D01*
X183954516Y-90244091D01*
X183961444Y-90244835D01*
X184014127Y-90250500D01*
X185809872Y-90250499D01*
X185869483Y-90244091D01*
X186004331Y-90193796D01*
X186119546Y-90107546D01*
X186205796Y-89992331D01*
X186254810Y-89860916D01*
X186296681Y-89804984D01*
X186362145Y-89780566D01*
X186430418Y-89795417D01*
X186458673Y-89816569D01*
X186580599Y-89938495D01*
X186677384Y-90006264D01*
X186774165Y-90074032D01*
X186774167Y-90074033D01*
X186774170Y-90074035D01*
X186988337Y-90173903D01*
X187216592Y-90235063D01*
X187393034Y-90250500D01*
X187451999Y-90255659D01*
X187452000Y-90255659D01*
X187452001Y-90255659D01*
X187510966Y-90250500D01*
X187687408Y-90235063D01*
X187915663Y-90173903D01*
X188129830Y-90074035D01*
X188323401Y-89938495D01*
X188490495Y-89771401D01*
X188620424Y-89585842D01*
X188675002Y-89542217D01*
X188744500Y-89535023D01*
X188806855Y-89566546D01*
X188823575Y-89585842D01*
X188953505Y-89771401D01*
X189120599Y-89938495D01*
X189217384Y-90006264D01*
X189314165Y-90074032D01*
X189314167Y-90074033D01*
X189314170Y-90074035D01*
X189528337Y-90173903D01*
X189756592Y-90235063D01*
X189933034Y-90250500D01*
X189991999Y-90255659D01*
X189992000Y-90255659D01*
X189992001Y-90255659D01*
X190050966Y-90250500D01*
X190227408Y-90235063D01*
X190455663Y-90173903D01*
X190669830Y-90074035D01*
X190863401Y-89938495D01*
X191030495Y-89771401D01*
X191165651Y-89578377D01*
X191220229Y-89534752D01*
X191267227Y-89525500D01*
X191433257Y-89525500D01*
X191448877Y-89527224D01*
X191448904Y-89526939D01*
X191456660Y-89527671D01*
X191456667Y-89527673D01*
X191525814Y-89525500D01*
X191555350Y-89525500D01*
X191562228Y-89524630D01*
X191568041Y-89524172D01*
X191614627Y-89522709D01*
X191633869Y-89517117D01*
X191652912Y-89513174D01*
X191672792Y-89510664D01*
X191716122Y-89493507D01*
X191721646Y-89491617D01*
X191734526Y-89487875D01*
X191766390Y-89478618D01*
X191783629Y-89468422D01*
X191801103Y-89459862D01*
X191819727Y-89452488D01*
X191819727Y-89452487D01*
X191819732Y-89452486D01*
X191857449Y-89425082D01*
X191862305Y-89421892D01*
X191902420Y-89398170D01*
X191916589Y-89383999D01*
X191931379Y-89371368D01*
X191947587Y-89359594D01*
X191977299Y-89323676D01*
X191981212Y-89319376D01*
X192407785Y-88892803D01*
X192420041Y-88882987D01*
X192419858Y-88882765D01*
X192425875Y-88877787D01*
X192425874Y-88877787D01*
X192425877Y-88877786D01*
X192450251Y-88851829D01*
X192473227Y-88827364D01*
X192483671Y-88816918D01*
X192494120Y-88806471D01*
X192498379Y-88800978D01*
X192502152Y-88796561D01*
X192534062Y-88762582D01*
X192543713Y-88745024D01*
X192554396Y-88728761D01*
X192566673Y-88712936D01*
X192585185Y-88670153D01*
X192587738Y-88664941D01*
X192610197Y-88624092D01*
X192615180Y-88604680D01*
X192621481Y-88586280D01*
X192629437Y-88567896D01*
X192636729Y-88521852D01*
X192637906Y-88516171D01*
X192649500Y-88471019D01*
X192649500Y-88450982D01*
X192651027Y-88431582D01*
X192654160Y-88411804D01*
X192649775Y-88365418D01*
X192649500Y-88359580D01*
X192649500Y-82325445D01*
X192669185Y-82258406D01*
X192674235Y-82251132D01*
X192695795Y-82222332D01*
X192695796Y-82222331D01*
X192746091Y-82087483D01*
X192752500Y-82027873D01*
X192752499Y-80532128D01*
X192746091Y-80472517D01*
X192726076Y-80418855D01*
X192695797Y-80337671D01*
X192695793Y-80337664D01*
X192609547Y-80222455D01*
X192609544Y-80222452D01*
X192494335Y-80136206D01*
X192494328Y-80136202D01*
X192359482Y-80085908D01*
X192359483Y-80085908D01*
X192299883Y-80079501D01*
X192299881Y-80079500D01*
X192299873Y-80079500D01*
X192299864Y-80079500D01*
X190604129Y-80079500D01*
X190604123Y-80079501D01*
X190544516Y-80085908D01*
X190409671Y-80136202D01*
X190409664Y-80136206D01*
X190294455Y-80222452D01*
X190294452Y-80222455D01*
X190208206Y-80337664D01*
X190208202Y-80337671D01*
X190157908Y-80472517D01*
X190153174Y-80516555D01*
X190151501Y-80532123D01*
X190151322Y-80535452D01*
X190150065Y-80535384D01*
X190131815Y-80597539D01*
X190079011Y-80643294D01*
X190027500Y-80654500D01*
X184876499Y-80654500D01*
X184809460Y-80634815D01*
X184763705Y-80582011D01*
X184753562Y-80535388D01*
X184752900Y-80535423D01*
X184752854Y-80535429D01*
X184752853Y-80535426D01*
X184752676Y-80535436D01*
X184752499Y-80532141D01*
X184752499Y-80532128D01*
X184746091Y-80472517D01*
X184726076Y-80418855D01*
X184695797Y-80337671D01*
X184695793Y-80337664D01*
X184609547Y-80222455D01*
X184609544Y-80222452D01*
X184494335Y-80136206D01*
X184494328Y-80136202D01*
X184359482Y-80085908D01*
X184359483Y-80085908D01*
X184299883Y-80079501D01*
X184299881Y-80079500D01*
X184299873Y-80079500D01*
X184299864Y-80079500D01*
X182604129Y-80079500D01*
X182604123Y-80079501D01*
X182544516Y-80085908D01*
X182409671Y-80136202D01*
X182409664Y-80136206D01*
X182294455Y-80222452D01*
X182294452Y-80222455D01*
X182208206Y-80337664D01*
X182208202Y-80337671D01*
X182157908Y-80472517D01*
X182153174Y-80516555D01*
X182151501Y-80532123D01*
X182151322Y-80535452D01*
X182150065Y-80535384D01*
X182131815Y-80597539D01*
X182079011Y-80643294D01*
X182027500Y-80654500D01*
X180121738Y-80654500D01*
X180106121Y-80652776D01*
X180106094Y-80653062D01*
X180098332Y-80652327D01*
X180029204Y-80654500D01*
X179999650Y-80654500D01*
X179998929Y-80654590D01*
X179992757Y-80655369D01*
X179986945Y-80655826D01*
X179940373Y-80657290D01*
X179940372Y-80657290D01*
X179921129Y-80662881D01*
X179902079Y-80666825D01*
X179882211Y-80669334D01*
X179838884Y-80686488D01*
X179833358Y-80688379D01*
X179788614Y-80701379D01*
X179788610Y-80701381D01*
X179771366Y-80711579D01*
X179753905Y-80720133D01*
X179735274Y-80727510D01*
X179735262Y-80727517D01*
X179697570Y-80754902D01*
X179692687Y-80758109D01*
X179652580Y-80781829D01*
X179638414Y-80795995D01*
X179623624Y-80808627D01*
X179607414Y-80820404D01*
X179607411Y-80820407D01*
X179577710Y-80856309D01*
X179573777Y-80860631D01*
X179059228Y-81375181D01*
X178997905Y-81408666D01*
X178971547Y-81411500D01*
X178867453Y-81411500D01*
X178800414Y-81391815D01*
X178779772Y-81375181D01*
X178300803Y-80896212D01*
X178290980Y-80883950D01*
X178290759Y-80884134D01*
X178285786Y-80878123D01*
X178266523Y-80860034D01*
X178235364Y-80830773D01*
X178224919Y-80820328D01*
X178214475Y-80809883D01*
X178208986Y-80805625D01*
X178204561Y-80801847D01*
X178170582Y-80769938D01*
X178170580Y-80769936D01*
X178170577Y-80769935D01*
X178153029Y-80760288D01*
X178136763Y-80749604D01*
X178120933Y-80737325D01*
X178078168Y-80718818D01*
X178072922Y-80716248D01*
X178032094Y-80693804D01*
X178032093Y-80693803D01*
X178032092Y-80693803D01*
X178012690Y-80688821D01*
X177994283Y-80682519D01*
X177975896Y-80674562D01*
X177975894Y-80674561D01*
X177972378Y-80673040D01*
X177929475Y-80642211D01*
X177897871Y-80607112D01*
X177897864Y-80607106D01*
X177744734Y-80495851D01*
X177744729Y-80495848D01*
X177571807Y-80418857D01*
X177571802Y-80418855D01*
X177426001Y-80387865D01*
X177386646Y-80379500D01*
X177197354Y-80379500D01*
X177164897Y-80386398D01*
X177012197Y-80418855D01*
X177012192Y-80418857D01*
X176839270Y-80495848D01*
X176839265Y-80495851D01*
X176686129Y-80607111D01*
X176559466Y-80747785D01*
X176464821Y-80911715D01*
X176464818Y-80911722D01*
X176406327Y-81091740D01*
X176406326Y-81091744D01*
X176386540Y-81280000D01*
X176406326Y-81468256D01*
X176406327Y-81468259D01*
X176464818Y-81648277D01*
X176464821Y-81648284D01*
X176559467Y-81812216D01*
X176686128Y-81952888D01*
X176686129Y-81952888D01*
X176839265Y-82064148D01*
X176839270Y-82064151D01*
X177012192Y-82141142D01*
X177012197Y-82141144D01*
X177197354Y-82180500D01*
X177197355Y-82180500D01*
X177386644Y-82180500D01*
X177386646Y-82180500D01*
X177571803Y-82141144D01*
X177635621Y-82112729D01*
X177704870Y-82103444D01*
X177768147Y-82133072D01*
X177773738Y-82138328D01*
X177907681Y-82272271D01*
X177941166Y-82333594D01*
X177944000Y-82359952D01*
X177944000Y-82698668D01*
X177944001Y-82698687D01*
X177954325Y-82799752D01*
X177979134Y-82874618D01*
X177995240Y-82923224D01*
X178008592Y-82963515D01*
X178008593Y-82963518D01*
X178099161Y-83110351D01*
X178213129Y-83224319D01*
X178246614Y-83285642D01*
X178241630Y-83355334D01*
X178213129Y-83399681D01*
X178099161Y-83513648D01*
X178008593Y-83660481D01*
X178008591Y-83660484D01*
X178008592Y-83660484D01*
X177954326Y-83824247D01*
X177954326Y-83824248D01*
X177954325Y-83824248D01*
X177944000Y-83925315D01*
X177944000Y-84086500D01*
X177924315Y-84153539D01*
X177871511Y-84199294D01*
X177820000Y-84210500D01*
X161001947Y-84210500D01*
X160934908Y-84190815D01*
X160914266Y-84174181D01*
X159873266Y-83133181D01*
X159839781Y-83071858D01*
X159844765Y-83002166D01*
X159886637Y-82946233D01*
X159952101Y-82921816D01*
X159960947Y-82921500D01*
X168068981Y-82921500D01*
X171113257Y-82921500D01*
X171128877Y-82923224D01*
X171128904Y-82922939D01*
X171136660Y-82923671D01*
X171136667Y-82923673D01*
X171205814Y-82921500D01*
X171235350Y-82921500D01*
X171242228Y-82920630D01*
X171248041Y-82920172D01*
X171294627Y-82918709D01*
X171313869Y-82913117D01*
X171332912Y-82909174D01*
X171352792Y-82906664D01*
X171396122Y-82889507D01*
X171401646Y-82887617D01*
X171405396Y-82886527D01*
X171446390Y-82874618D01*
X171463629Y-82864422D01*
X171481103Y-82855862D01*
X171499727Y-82848488D01*
X171499727Y-82848487D01*
X171499732Y-82848486D01*
X171537449Y-82821082D01*
X171542305Y-82817892D01*
X171582420Y-82794170D01*
X171596589Y-82779999D01*
X171611379Y-82767368D01*
X171627587Y-82755594D01*
X171657299Y-82719676D01*
X171661212Y-82715376D01*
X177167788Y-77208801D01*
X177180042Y-77198986D01*
X177179859Y-77198764D01*
X177185866Y-77193792D01*
X177185877Y-77193786D01*
X177216775Y-77160882D01*
X177233227Y-77143364D01*
X177243671Y-77132918D01*
X177254120Y-77122471D01*
X177258379Y-77116978D01*
X177262152Y-77112561D01*
X177294062Y-77078582D01*
X177303713Y-77061024D01*
X177314396Y-77044761D01*
X177325848Y-77030000D01*
X182152000Y-77030000D01*
X182152000Y-77527844D01*
X182158401Y-77587372D01*
X182158403Y-77587379D01*
X182208645Y-77722086D01*
X182208649Y-77722093D01*
X182294809Y-77837187D01*
X182294812Y-77837190D01*
X182409906Y-77923350D01*
X182409913Y-77923354D01*
X182544620Y-77973596D01*
X182544627Y-77973598D01*
X182604155Y-77979999D01*
X182604172Y-77980000D01*
X183202000Y-77980000D01*
X183202000Y-77030000D01*
X183702000Y-77030000D01*
X183702000Y-77980000D01*
X184299828Y-77980000D01*
X184299844Y-77979999D01*
X184359372Y-77973598D01*
X184359379Y-77973596D01*
X184494086Y-77923354D01*
X184494093Y-77923350D01*
X184609187Y-77837190D01*
X184609190Y-77837187D01*
X184695350Y-77722093D01*
X184695354Y-77722086D01*
X184745596Y-77587379D01*
X184745598Y-77587372D01*
X184751999Y-77527844D01*
X184752000Y-77527827D01*
X184752000Y-77030000D01*
X190152000Y-77030000D01*
X190152000Y-77527844D01*
X190158401Y-77587372D01*
X190158403Y-77587379D01*
X190208645Y-77722086D01*
X190208649Y-77722093D01*
X190294809Y-77837187D01*
X190294812Y-77837190D01*
X190409906Y-77923350D01*
X190409913Y-77923354D01*
X190544620Y-77973596D01*
X190544627Y-77973598D01*
X190604155Y-77979999D01*
X190604172Y-77980000D01*
X191202000Y-77980000D01*
X191202000Y-77030000D01*
X191702000Y-77030000D01*
X191702000Y-77980000D01*
X192299828Y-77980000D01*
X192299844Y-77979999D01*
X192359372Y-77973598D01*
X192359379Y-77973596D01*
X192494086Y-77923354D01*
X192494093Y-77923350D01*
X192609187Y-77837190D01*
X192609190Y-77837187D01*
X192695350Y-77722093D01*
X192695354Y-77722086D01*
X192745596Y-77587379D01*
X192745598Y-77587372D01*
X192751999Y-77527844D01*
X192752000Y-77527827D01*
X192752000Y-77030000D01*
X191702000Y-77030000D01*
X191202000Y-77030000D01*
X190152000Y-77030000D01*
X184752000Y-77030000D01*
X183702000Y-77030000D01*
X183202000Y-77030000D01*
X182152000Y-77030000D01*
X177325848Y-77030000D01*
X177326673Y-77028936D01*
X177345185Y-76986153D01*
X177347738Y-76980941D01*
X177370197Y-76940092D01*
X177375180Y-76920680D01*
X177381481Y-76902280D01*
X177389437Y-76883896D01*
X177396729Y-76837852D01*
X177397906Y-76832171D01*
X177409500Y-76787019D01*
X177409500Y-76766982D01*
X177411027Y-76747582D01*
X177414160Y-76727804D01*
X177409775Y-76681415D01*
X177409500Y-76675577D01*
X177409500Y-76530000D01*
X182152000Y-76530000D01*
X183202000Y-76530000D01*
X183202000Y-75580000D01*
X183702000Y-75580000D01*
X183702000Y-76530000D01*
X184752000Y-76530000D01*
X190152000Y-76530000D01*
X191202000Y-76530000D01*
X191202000Y-75580000D01*
X191702000Y-75580000D01*
X191702000Y-76530000D01*
X192752000Y-76530000D01*
X192752000Y-76032172D01*
X192751999Y-76032155D01*
X192745598Y-75972627D01*
X192745596Y-75972620D01*
X192695354Y-75837913D01*
X192695350Y-75837906D01*
X192609190Y-75722812D01*
X192609187Y-75722809D01*
X192494093Y-75636649D01*
X192494086Y-75636645D01*
X192359379Y-75586403D01*
X192359372Y-75586401D01*
X192299844Y-75580000D01*
X191702000Y-75580000D01*
X191202000Y-75580000D01*
X190604155Y-75580000D01*
X190544627Y-75586401D01*
X190544620Y-75586403D01*
X190409913Y-75636645D01*
X190409906Y-75636649D01*
X190294812Y-75722809D01*
X190294809Y-75722812D01*
X190208649Y-75837906D01*
X190208645Y-75837913D01*
X190158403Y-75972620D01*
X190158401Y-75972627D01*
X190152000Y-76032155D01*
X190152000Y-76530000D01*
X184752000Y-76530000D01*
X184752000Y-76032172D01*
X184751999Y-76032155D01*
X184745598Y-75972627D01*
X184745596Y-75972620D01*
X184695354Y-75837913D01*
X184695350Y-75837906D01*
X184609190Y-75722812D01*
X184609187Y-75722809D01*
X184494093Y-75636649D01*
X184494086Y-75636645D01*
X184359379Y-75586403D01*
X184359372Y-75586401D01*
X184299844Y-75580000D01*
X183702000Y-75580000D01*
X183202000Y-75580000D01*
X182604155Y-75580000D01*
X182544627Y-75586401D01*
X182544620Y-75586403D01*
X182409913Y-75636645D01*
X182409906Y-75636649D01*
X182294812Y-75722809D01*
X182294809Y-75722812D01*
X182208649Y-75837906D01*
X182208645Y-75837913D01*
X182158403Y-75972620D01*
X182158401Y-75972627D01*
X182152000Y-76032155D01*
X182152000Y-76530000D01*
X177409500Y-76530000D01*
X177409500Y-67646742D01*
X177411224Y-67631122D01*
X177410939Y-67631096D01*
X177411671Y-67623340D01*
X177411673Y-67623333D01*
X177409500Y-67554185D01*
X177409500Y-67524650D01*
X177408631Y-67517772D01*
X177408172Y-67511943D01*
X177407404Y-67487511D01*
X177406709Y-67465373D01*
X177401122Y-67446144D01*
X177397174Y-67427084D01*
X177394664Y-67407208D01*
X177394663Y-67407206D01*
X177394663Y-67407204D01*
X177377512Y-67363887D01*
X177375619Y-67358358D01*
X177362618Y-67313609D01*
X177362616Y-67313606D01*
X177352423Y-67296371D01*
X177343861Y-67278894D01*
X177336487Y-67260270D01*
X177336486Y-67260268D01*
X177309079Y-67222545D01*
X177305888Y-67217686D01*
X177282172Y-67177583D01*
X177282165Y-67177574D01*
X177268006Y-67163415D01*
X177255368Y-67148619D01*
X177243594Y-67132413D01*
X177216913Y-67110341D01*
X177207688Y-67102709D01*
X177203376Y-67098786D01*
X173220803Y-63116212D01*
X173210980Y-63103950D01*
X173210759Y-63104134D01*
X173205786Y-63098123D01*
X173201864Y-63094440D01*
X173155364Y-63050773D01*
X173142582Y-63037991D01*
X173134475Y-63029883D01*
X173128986Y-63025625D01*
X173124561Y-63021847D01*
X173090582Y-62989938D01*
X173090580Y-62989936D01*
X173090577Y-62989935D01*
X173073029Y-62980288D01*
X173056763Y-62969604D01*
X173040933Y-62957325D01*
X172998168Y-62938818D01*
X172992922Y-62936248D01*
X172952093Y-62913803D01*
X172952092Y-62913802D01*
X172932693Y-62908822D01*
X172914281Y-62902518D01*
X172895898Y-62894562D01*
X172895892Y-62894560D01*
X172849874Y-62887272D01*
X172844152Y-62886087D01*
X172799021Y-62874500D01*
X172799019Y-62874500D01*
X172778984Y-62874500D01*
X172759586Y-62872973D01*
X172752162Y-62871797D01*
X172739805Y-62869840D01*
X172739804Y-62869840D01*
X172693416Y-62874225D01*
X172687578Y-62874500D01*
X169514453Y-62874500D01*
X169447414Y-62854815D01*
X169426772Y-62838181D01*
X169063819Y-62475227D01*
X169030334Y-62413904D01*
X169027500Y-62387546D01*
X169027500Y-62084499D01*
X169047185Y-62017460D01*
X169099989Y-61971705D01*
X169151495Y-61960499D01*
X170219872Y-61960499D01*
X170279483Y-61954091D01*
X170414331Y-61903796D01*
X170529546Y-61817546D01*
X170615796Y-61702331D01*
X170666091Y-61567483D01*
X170672500Y-61507873D01*
X170672499Y-60412128D01*
X170666091Y-60352517D01*
X170656338Y-60326369D01*
X170615797Y-60217671D01*
X170615793Y-60217664D01*
X170529547Y-60102455D01*
X170529544Y-60102452D01*
X170414335Y-60016206D01*
X170414328Y-60016202D01*
X170279482Y-59965908D01*
X170279483Y-59965908D01*
X170219883Y-59959501D01*
X170219881Y-59959500D01*
X170219873Y-59959500D01*
X170219864Y-59959500D01*
X169124129Y-59959500D01*
X169124123Y-59959501D01*
X169064516Y-59965908D01*
X168929671Y-60016202D01*
X168929666Y-60016205D01*
X168921614Y-60022233D01*
X168856149Y-60046648D01*
X168792530Y-60033104D01*
X168792359Y-60033518D01*
X168790123Y-60032592D01*
X168788850Y-60032321D01*
X168786729Y-60031187D01*
X168786728Y-60031186D01*
X168786727Y-60031186D01*
X168598132Y-59973976D01*
X168598129Y-59973975D01*
X168402000Y-59954659D01*
X168205870Y-59973975D01*
X168017266Y-60031188D01*
X167843465Y-60124087D01*
X167838405Y-60127469D01*
X167837314Y-60125836D01*
X167781317Y-60149600D01*
X167712453Y-60137787D01*
X167695844Y-60127109D01*
X167695601Y-60127474D01*
X167690540Y-60124091D01*
X167690538Y-60124090D01*
X167588447Y-60069521D01*
X167516730Y-60031187D01*
X167467341Y-60016205D01*
X167328132Y-59973976D01*
X167328129Y-59973975D01*
X167132000Y-59954659D01*
X166935870Y-59973975D01*
X166747266Y-60031188D01*
X166573467Y-60124086D01*
X166568399Y-60127473D01*
X166567305Y-60125836D01*
X166511337Y-60149596D01*
X166442471Y-60137795D01*
X166425843Y-60127109D01*
X166425601Y-60127473D01*
X166420532Y-60124086D01*
X166246733Y-60031188D01*
X166246727Y-60031186D01*
X166058132Y-59973976D01*
X166058129Y-59973975D01*
X165862000Y-59954659D01*
X165665870Y-59973975D01*
X165477266Y-60031188D01*
X165303467Y-60124086D01*
X165298399Y-60127473D01*
X165297305Y-60125836D01*
X165241337Y-60149596D01*
X165172471Y-60137795D01*
X165155843Y-60127109D01*
X165155601Y-60127473D01*
X165150532Y-60124086D01*
X164976733Y-60031188D01*
X164976727Y-60031186D01*
X164788132Y-59973976D01*
X164788129Y-59973975D01*
X164592000Y-59954659D01*
X164395870Y-59973975D01*
X164207266Y-60031188D01*
X164033467Y-60124086D01*
X164028399Y-60127473D01*
X164027305Y-60125836D01*
X163971337Y-60149596D01*
X163902471Y-60137795D01*
X163885843Y-60127109D01*
X163885601Y-60127473D01*
X163880532Y-60124086D01*
X163706733Y-60031188D01*
X163706727Y-60031186D01*
X163518132Y-59973976D01*
X163518129Y-59973975D01*
X163322000Y-59954659D01*
X163125870Y-59973975D01*
X162937266Y-60031188D01*
X162763467Y-60124086D01*
X162758399Y-60127473D01*
X162757305Y-60125836D01*
X162701337Y-60149596D01*
X162632471Y-60137795D01*
X162615843Y-60127109D01*
X162615601Y-60127473D01*
X162610532Y-60124086D01*
X162436733Y-60031188D01*
X162436727Y-60031186D01*
X162248132Y-59973976D01*
X162248129Y-59973975D01*
X162052000Y-59954659D01*
X161855870Y-59973975D01*
X161667266Y-60031188D01*
X161493467Y-60124086D01*
X161488399Y-60127473D01*
X161487305Y-60125836D01*
X161431337Y-60149596D01*
X161362471Y-60137795D01*
X161345843Y-60127109D01*
X161345601Y-60127473D01*
X161340532Y-60124086D01*
X161166733Y-60031188D01*
X161166727Y-60031186D01*
X160978132Y-59973976D01*
X160978129Y-59973975D01*
X160782000Y-59954659D01*
X160585870Y-59973975D01*
X160397266Y-60031188D01*
X160223467Y-60124086D01*
X160218399Y-60127473D01*
X160217305Y-60125836D01*
X160161337Y-60149596D01*
X160092471Y-60137795D01*
X160075843Y-60127109D01*
X160075601Y-60127473D01*
X160070532Y-60124086D01*
X159896733Y-60031188D01*
X159896727Y-60031186D01*
X159708132Y-59973976D01*
X159708129Y-59973975D01*
X159512000Y-59954659D01*
X159315870Y-59973975D01*
X159127266Y-60031188D01*
X158953467Y-60124086D01*
X158948399Y-60127473D01*
X158947305Y-60125836D01*
X158891337Y-60149596D01*
X158822471Y-60137795D01*
X158805843Y-60127109D01*
X158805601Y-60127473D01*
X158800532Y-60124086D01*
X158626733Y-60031188D01*
X158626727Y-60031186D01*
X158438132Y-59973976D01*
X158438129Y-59973975D01*
X158242000Y-59954659D01*
X158045870Y-59973975D01*
X157857266Y-60031188D01*
X157683467Y-60124086D01*
X157678399Y-60127473D01*
X157677305Y-60125836D01*
X157621337Y-60149596D01*
X157552471Y-60137795D01*
X157535843Y-60127109D01*
X157535601Y-60127473D01*
X157530532Y-60124086D01*
X157356733Y-60031188D01*
X157356727Y-60031186D01*
X157168132Y-59973976D01*
X157168129Y-59973975D01*
X156972000Y-59954659D01*
X156775870Y-59973975D01*
X156587266Y-60031188D01*
X156413467Y-60124086D01*
X156408399Y-60127473D01*
X156407305Y-60125836D01*
X156351337Y-60149596D01*
X156282471Y-60137795D01*
X156265843Y-60127109D01*
X156265601Y-60127473D01*
X156260532Y-60124086D01*
X156086733Y-60031188D01*
X156086727Y-60031186D01*
X155898132Y-59973976D01*
X155898129Y-59973975D01*
X155702000Y-59954659D01*
X155505870Y-59973975D01*
X155317266Y-60031188D01*
X155143467Y-60124086D01*
X155138399Y-60127473D01*
X155137305Y-60125836D01*
X155081337Y-60149596D01*
X155012471Y-60137795D01*
X154995843Y-60127109D01*
X154995601Y-60127473D01*
X154990532Y-60124086D01*
X154816733Y-60031188D01*
X154816727Y-60031186D01*
X154628132Y-59973976D01*
X154628129Y-59973975D01*
X154432000Y-59954659D01*
X154235870Y-59973975D01*
X154047266Y-60031188D01*
X153873467Y-60124086D01*
X153868399Y-60127473D01*
X153867305Y-60125836D01*
X153811337Y-60149596D01*
X153742471Y-60137795D01*
X153725843Y-60127109D01*
X153725601Y-60127473D01*
X153720532Y-60124086D01*
X153546733Y-60031188D01*
X153546727Y-60031186D01*
X153358132Y-59973976D01*
X153358129Y-59973975D01*
X153162000Y-59954659D01*
X152965870Y-59973975D01*
X152777266Y-60031188D01*
X152603465Y-60124087D01*
X152598405Y-60127469D01*
X152597314Y-60125836D01*
X152541317Y-60149600D01*
X152472453Y-60137787D01*
X152455844Y-60127109D01*
X152455601Y-60127474D01*
X152450540Y-60124091D01*
X152450538Y-60124090D01*
X152348447Y-60069521D01*
X152276730Y-60031187D01*
X152227341Y-60016205D01*
X152088132Y-59973976D01*
X152088129Y-59973975D01*
X151892000Y-59954659D01*
X151695870Y-59973975D01*
X151507266Y-60031188D01*
X151333465Y-60124087D01*
X151328405Y-60127469D01*
X151327314Y-60125836D01*
X151271317Y-60149600D01*
X151202453Y-60137787D01*
X151185844Y-60127109D01*
X151185601Y-60127474D01*
X151180540Y-60124091D01*
X151180538Y-60124090D01*
X151078447Y-60069521D01*
X151006730Y-60031187D01*
X150957341Y-60016205D01*
X150818132Y-59973976D01*
X150818129Y-59973975D01*
X150622000Y-59954659D01*
X150425870Y-59973975D01*
X150237266Y-60031188D01*
X150063467Y-60124086D01*
X150058399Y-60127473D01*
X150057305Y-60125836D01*
X150001337Y-60149596D01*
X149932471Y-60137795D01*
X149915843Y-60127109D01*
X149915601Y-60127473D01*
X149910532Y-60124086D01*
X149736733Y-60031188D01*
X149736727Y-60031186D01*
X149548132Y-59973976D01*
X149548129Y-59973975D01*
X149352000Y-59954659D01*
X149155870Y-59973975D01*
X148967266Y-60031188D01*
X148793467Y-60124086D01*
X148788399Y-60127473D01*
X148787305Y-60125836D01*
X148731337Y-60149596D01*
X148662471Y-60137795D01*
X148645843Y-60127109D01*
X148645601Y-60127473D01*
X148640532Y-60124086D01*
X148466733Y-60031188D01*
X148466727Y-60031186D01*
X148278132Y-59973976D01*
X148278129Y-59973975D01*
X148082000Y-59954659D01*
X147885870Y-59973975D01*
X147697266Y-60031188D01*
X147523467Y-60124086D01*
X147518399Y-60127473D01*
X147517305Y-60125836D01*
X147461337Y-60149596D01*
X147392471Y-60137795D01*
X147375843Y-60127109D01*
X147375601Y-60127473D01*
X147370532Y-60124086D01*
X147196733Y-60031188D01*
X147196727Y-60031186D01*
X147008132Y-59973976D01*
X147008129Y-59973975D01*
X146812000Y-59954659D01*
X146615870Y-59973975D01*
X146427266Y-60031188D01*
X146253467Y-60124086D01*
X146248399Y-60127473D01*
X146247305Y-60125836D01*
X146191337Y-60149596D01*
X146122471Y-60137795D01*
X146105843Y-60127109D01*
X146105601Y-60127473D01*
X146100532Y-60124086D01*
X145926733Y-60031188D01*
X145926727Y-60031186D01*
X145738132Y-59973976D01*
X145738129Y-59973975D01*
X145542000Y-59954659D01*
X145345870Y-59973975D01*
X145157266Y-60031188D01*
X144983467Y-60124086D01*
X144978399Y-60127473D01*
X144977305Y-60125836D01*
X144921337Y-60149596D01*
X144852471Y-60137795D01*
X144835843Y-60127109D01*
X144835601Y-60127473D01*
X144830532Y-60124086D01*
X144656733Y-60031188D01*
X144656727Y-60031186D01*
X144468132Y-59973976D01*
X144468129Y-59973975D01*
X144272000Y-59954659D01*
X144075870Y-59973975D01*
X143887266Y-60031188D01*
X143713467Y-60124086D01*
X143708399Y-60127473D01*
X143707305Y-60125836D01*
X143651337Y-60149596D01*
X143582471Y-60137795D01*
X143565843Y-60127109D01*
X143565601Y-60127473D01*
X143560532Y-60124086D01*
X143386733Y-60031188D01*
X143386727Y-60031186D01*
X143198132Y-59973976D01*
X143198129Y-59973975D01*
X143002000Y-59954659D01*
X142805870Y-59973975D01*
X142617266Y-60031188D01*
X142443467Y-60124086D01*
X142438399Y-60127473D01*
X142437305Y-60125836D01*
X142381337Y-60149596D01*
X142312471Y-60137795D01*
X142295843Y-60127109D01*
X142295601Y-60127473D01*
X142290532Y-60124086D01*
X142116733Y-60031188D01*
X142116727Y-60031186D01*
X141928132Y-59973976D01*
X141928129Y-59973975D01*
X141732000Y-59954659D01*
X141535870Y-59973975D01*
X141347266Y-60031188D01*
X141173467Y-60124086D01*
X141168399Y-60127473D01*
X141167305Y-60125836D01*
X141111337Y-60149596D01*
X141042471Y-60137795D01*
X141025843Y-60127109D01*
X141025601Y-60127473D01*
X141020532Y-60124086D01*
X140846733Y-60031188D01*
X140846727Y-60031186D01*
X140658132Y-59973976D01*
X140658129Y-59973975D01*
X140462000Y-59954659D01*
X140265870Y-59973975D01*
X140077266Y-60031188D01*
X139903467Y-60124086D01*
X139898399Y-60127473D01*
X139897305Y-60125836D01*
X139841337Y-60149596D01*
X139772471Y-60137795D01*
X139755843Y-60127109D01*
X139755601Y-60127473D01*
X139750532Y-60124086D01*
X139576733Y-60031188D01*
X139576727Y-60031186D01*
X139388132Y-59973976D01*
X139388129Y-59973975D01*
X139192000Y-59954659D01*
X138995870Y-59973975D01*
X138807266Y-60031188D01*
X138633467Y-60124086D01*
X138628399Y-60127473D01*
X138627305Y-60125836D01*
X138571337Y-60149596D01*
X138502471Y-60137795D01*
X138485843Y-60127109D01*
X138485601Y-60127473D01*
X138480532Y-60124086D01*
X138306733Y-60031188D01*
X138306727Y-60031186D01*
X138118132Y-59973976D01*
X138118129Y-59973975D01*
X137922000Y-59954659D01*
X137725870Y-59973975D01*
X137537266Y-60031188D01*
X137363467Y-60124086D01*
X137358399Y-60127473D01*
X137357305Y-60125836D01*
X137301337Y-60149596D01*
X137232471Y-60137795D01*
X137215843Y-60127109D01*
X137215601Y-60127473D01*
X137210532Y-60124086D01*
X137036733Y-60031188D01*
X137036727Y-60031186D01*
X136848132Y-59973976D01*
X136848129Y-59973975D01*
X136652000Y-59954659D01*
X136455870Y-59973975D01*
X136267266Y-60031188D01*
X136093465Y-60124087D01*
X136088405Y-60127469D01*
X136087314Y-60125836D01*
X136031317Y-60149600D01*
X135962453Y-60137787D01*
X135945844Y-60127109D01*
X135945601Y-60127474D01*
X135940540Y-60124091D01*
X135940538Y-60124090D01*
X135838447Y-60069521D01*
X135766730Y-60031187D01*
X135717341Y-60016205D01*
X135578132Y-59973976D01*
X135578129Y-59973975D01*
X135382000Y-59954659D01*
X135185870Y-59973975D01*
X134997266Y-60031188D01*
X134823467Y-60124086D01*
X134823460Y-60124090D01*
X134671116Y-60249116D01*
X134546090Y-60401460D01*
X134546086Y-60401467D01*
X134453188Y-60575266D01*
X134395975Y-60763870D01*
X134376659Y-60960000D01*
X134395975Y-61156129D01*
X134453188Y-61344733D01*
X134546086Y-61518532D01*
X134546090Y-61518539D01*
X134671117Y-61670884D01*
X134711163Y-61703748D01*
X134750499Y-61761493D01*
X134756500Y-61799602D01*
X134756500Y-63062547D01*
X134736815Y-63129586D01*
X134720181Y-63150228D01*
X134291228Y-63579181D01*
X134229905Y-63612666D01*
X134203547Y-63615500D01*
X134144354Y-63615500D01*
X134111897Y-63622398D01*
X133959197Y-63654855D01*
X133959192Y-63654857D01*
X133786270Y-63731848D01*
X133786265Y-63731851D01*
X133633130Y-63843110D01*
X133633126Y-63843114D01*
X133627400Y-63849474D01*
X133567913Y-63886121D01*
X133535252Y-63890500D01*
X130332499Y-63890500D01*
X130265460Y-63870815D01*
X130219705Y-63818011D01*
X130208499Y-63766500D01*
X130208499Y-63390998D01*
X130208498Y-63390981D01*
X130197999Y-63288203D01*
X130197998Y-63288200D01*
X130182070Y-63240132D01*
X130142814Y-63121666D01*
X130050712Y-62972344D01*
X129926656Y-62848288D01*
X129777334Y-62756186D01*
X129610797Y-62701001D01*
X129610795Y-62701000D01*
X129508010Y-62690500D01*
X128607998Y-62690500D01*
X128607980Y-62690501D01*
X128505203Y-62701000D01*
X128505200Y-62701001D01*
X128338668Y-62756185D01*
X128338663Y-62756187D01*
X128189342Y-62848289D01*
X128065289Y-62972342D01*
X127973187Y-63121663D01*
X127973185Y-63121668D01*
X127959416Y-63163221D01*
X127918001Y-63288203D01*
X127918001Y-63288204D01*
X127918000Y-63288204D01*
X127907500Y-63390983D01*
X127907500Y-65641001D01*
X127907501Y-65641018D01*
X127918000Y-65743796D01*
X127918001Y-65743799D01*
X127965182Y-65886181D01*
X127973186Y-65910334D01*
X128065288Y-66059656D01*
X128189344Y-66183712D01*
X128338666Y-66275814D01*
X128505203Y-66330999D01*
X128607991Y-66341500D01*
X129260046Y-66341499D01*
X129327085Y-66361183D01*
X129347727Y-66377818D01*
X129354503Y-66384594D01*
X129387988Y-66445917D01*
X129383004Y-66515609D01*
X129341132Y-66571542D01*
X129279426Y-66595633D01*
X129243347Y-66599319D01*
X129079699Y-66653546D01*
X129079688Y-66653551D01*
X128932965Y-66744052D01*
X128932961Y-66744055D01*
X128811055Y-66865961D01*
X128811052Y-66865965D01*
X128720551Y-67012688D01*
X128720546Y-67012699D01*
X128666319Y-67176347D01*
X128656000Y-67277345D01*
X128656000Y-67314000D01*
X129819500Y-67314000D01*
X129886539Y-67333685D01*
X129932294Y-67386489D01*
X129943500Y-67438000D01*
X129943500Y-68538999D01*
X130042640Y-68538999D01*
X130042654Y-68538998D01*
X130143652Y-68528680D01*
X130307300Y-68474453D01*
X130307311Y-68474448D01*
X130454035Y-68383947D01*
X130467960Y-68370021D01*
X130529282Y-68336533D01*
X130598973Y-68341514D01*
X130643327Y-68370016D01*
X130657650Y-68384340D01*
X130804484Y-68474908D01*
X130968247Y-68529174D01*
X131069323Y-68539500D01*
X131767676Y-68539499D01*
X131767684Y-68539498D01*
X131767687Y-68539498D01*
X131831269Y-68533003D01*
X131868753Y-68529174D01*
X132032516Y-68474908D01*
X132179350Y-68384340D01*
X132263868Y-68299820D01*
X132325192Y-68266336D01*
X132394884Y-68271320D01*
X132439231Y-68299821D01*
X133914229Y-69774819D01*
X133947714Y-69836142D01*
X133942730Y-69905834D01*
X133900858Y-69961767D01*
X133835394Y-69986184D01*
X133826548Y-69986500D01*
X132669481Y-69986500D01*
X132602442Y-69966815D01*
X132563942Y-69927596D01*
X132560421Y-69921888D01*
X132555340Y-69913650D01*
X132433350Y-69791660D01*
X132286516Y-69701092D01*
X132122753Y-69646826D01*
X132122751Y-69646825D01*
X132021678Y-69636500D01*
X131423330Y-69636500D01*
X131423312Y-69636501D01*
X131322247Y-69646825D01*
X131158484Y-69701092D01*
X131158481Y-69701093D01*
X131011651Y-69791659D01*
X130897680Y-69905630D01*
X130836357Y-69939114D01*
X130766665Y-69934130D01*
X130722322Y-69905632D01*
X130608350Y-69791660D01*
X130461516Y-69701092D01*
X130297753Y-69646826D01*
X130297751Y-69646825D01*
X130196678Y-69636500D01*
X129598330Y-69636500D01*
X129598312Y-69636501D01*
X129497247Y-69646825D01*
X129333484Y-69701092D01*
X129333481Y-69701093D01*
X129186648Y-69791661D01*
X129064660Y-69913649D01*
X129064659Y-69913651D01*
X129056058Y-69927596D01*
X129004110Y-69974321D01*
X128950519Y-69986500D01*
X124288743Y-69986500D01*
X124273122Y-69984775D01*
X124273096Y-69985061D01*
X124265334Y-69984327D01*
X124265333Y-69984327D01*
X124196186Y-69986500D01*
X124166649Y-69986500D01*
X124159766Y-69987369D01*
X124153949Y-69987826D01*
X124107373Y-69989290D01*
X124088129Y-69994881D01*
X124069079Y-69998825D01*
X124049211Y-70001334D01*
X124005884Y-70018488D01*
X124000358Y-70020379D01*
X123955614Y-70033379D01*
X123955610Y-70033381D01*
X123938366Y-70043579D01*
X123920905Y-70052133D01*
X123902274Y-70059510D01*
X123902262Y-70059517D01*
X123864570Y-70086902D01*
X123859687Y-70090109D01*
X123819580Y-70113829D01*
X123805414Y-70127995D01*
X123790624Y-70140627D01*
X123774414Y-70152404D01*
X123774411Y-70152407D01*
X123744710Y-70188309D01*
X123740777Y-70192631D01*
X121951228Y-71982181D01*
X121889905Y-72015666D01*
X121863547Y-72018500D01*
X114901913Y-72018500D01*
X114834874Y-71998815D01*
X114799504Y-71962848D01*
X114799167Y-71963103D01*
X114797222Y-71960527D01*
X114796487Y-71959780D01*
X114795710Y-71958525D01*
X114693865Y-71823661D01*
X114664427Y-71784678D01*
X114540423Y-71671634D01*
X114504145Y-71611927D01*
X114505905Y-71542079D01*
X114540423Y-71488365D01*
X114664427Y-71375322D01*
X114795712Y-71201472D01*
X114892817Y-71006459D01*
X114952435Y-70796923D01*
X114972536Y-70580000D01*
X114952435Y-70363077D01*
X114892817Y-70153541D01*
X114795712Y-69958528D01*
X114680764Y-69806312D01*
X114664425Y-69784675D01*
X114540055Y-69671298D01*
X114503773Y-69611587D01*
X114505534Y-69541740D01*
X114540056Y-69488023D01*
X114664054Y-69374985D01*
X114795284Y-69201208D01*
X114892348Y-69006280D01*
X114942505Y-68830000D01*
X114302576Y-68830000D01*
X114235537Y-68810315D01*
X114189782Y-68757511D01*
X114179838Y-68688353D01*
X114180103Y-68686603D01*
X114196986Y-68580003D01*
X114196986Y-68579996D01*
X114180103Y-68473397D01*
X114189058Y-68404104D01*
X114234054Y-68350652D01*
X114300806Y-68330013D01*
X114302576Y-68330000D01*
X114942505Y-68330000D01*
X114942505Y-68329999D01*
X114892348Y-68153719D01*
X114795284Y-67958791D01*
X114685943Y-67814000D01*
X128656001Y-67814000D01*
X128656001Y-67850654D01*
X128666319Y-67951652D01*
X128720546Y-68115300D01*
X128720551Y-68115311D01*
X128811052Y-68262034D01*
X128811055Y-68262038D01*
X128932961Y-68383944D01*
X128932965Y-68383947D01*
X129079688Y-68474448D01*
X129079699Y-68474453D01*
X129243347Y-68528680D01*
X129344351Y-68538999D01*
X129443500Y-68538998D01*
X129443500Y-67814000D01*
X128656001Y-67814000D01*
X114685943Y-67814000D01*
X114664056Y-67785017D01*
X114539684Y-67671638D01*
X114503403Y-67611927D01*
X114505163Y-67542079D01*
X114539684Y-67488362D01*
X114664056Y-67374982D01*
X114795284Y-67201208D01*
X114892348Y-67006280D01*
X114942505Y-66830000D01*
X114302576Y-66830000D01*
X114235537Y-66810315D01*
X114189782Y-66757511D01*
X114179838Y-66688353D01*
X114180103Y-66686603D01*
X114196986Y-66580003D01*
X114196986Y-66579996D01*
X114180103Y-66473397D01*
X114189058Y-66404104D01*
X114234054Y-66350652D01*
X114300806Y-66330013D01*
X114302576Y-66330000D01*
X114942505Y-66330000D01*
X114942505Y-66329999D01*
X114892348Y-66153719D01*
X114795284Y-65958791D01*
X114664054Y-65785014D01*
X114503131Y-65638314D01*
X114317987Y-65523677D01*
X114317985Y-65523676D01*
X114114931Y-65445013D01*
X114114921Y-65445010D01*
X114042001Y-65431378D01*
X114042000Y-65431379D01*
X114042000Y-66069424D01*
X114022315Y-66136463D01*
X113969511Y-66182218D01*
X113900353Y-66192162D01*
X113898602Y-66191897D01*
X113823486Y-66180000D01*
X113823481Y-66180000D01*
X113760519Y-66180000D01*
X113760514Y-66180000D01*
X113685398Y-66191897D01*
X113616104Y-66182942D01*
X113562652Y-66137946D01*
X113542013Y-66071194D01*
X113542000Y-66069424D01*
X113542000Y-65431379D01*
X113541998Y-65431378D01*
X113469078Y-65445010D01*
X113469068Y-65445013D01*
X113266014Y-65523676D01*
X113266012Y-65523677D01*
X113080869Y-65638314D01*
X113080868Y-65638314D01*
X112919945Y-65785014D01*
X112788715Y-65958791D01*
X112691651Y-66153719D01*
X112641494Y-66329999D01*
X112641495Y-66330000D01*
X113281424Y-66330000D01*
X113348463Y-66349685D01*
X113394218Y-66402489D01*
X113404162Y-66471647D01*
X113403897Y-66473397D01*
X113387014Y-66579996D01*
X113387014Y-66580003D01*
X113403897Y-66686603D01*
X113394942Y-66755896D01*
X113349946Y-66809348D01*
X113283194Y-66829987D01*
X113281424Y-66830000D01*
X112641495Y-66830000D01*
X112691651Y-67006280D01*
X112788715Y-67201208D01*
X112919945Y-67374986D01*
X113044315Y-67488363D01*
X113080597Y-67548074D01*
X113078836Y-67617921D01*
X113044315Y-67671637D01*
X112919945Y-67785013D01*
X112788715Y-67958791D01*
X112691651Y-68153719D01*
X112641494Y-68329999D01*
X112641495Y-68330000D01*
X113281424Y-68330000D01*
X113348463Y-68349685D01*
X113394218Y-68402489D01*
X113404162Y-68471647D01*
X113403897Y-68473397D01*
X113387014Y-68579996D01*
X113387014Y-68580003D01*
X113403897Y-68686603D01*
X113394942Y-68755896D01*
X113349946Y-68809348D01*
X113283194Y-68829987D01*
X113281424Y-68830000D01*
X112641495Y-68830000D01*
X112691651Y-69006280D01*
X112788715Y-69201208D01*
X112919943Y-69374982D01*
X113043944Y-69488023D01*
X113080225Y-69547734D01*
X113078465Y-69617582D01*
X113043944Y-69671298D01*
X112919579Y-69784671D01*
X112919571Y-69784680D01*
X112828540Y-69905226D01*
X112772432Y-69946863D01*
X112729586Y-69954500D01*
X110858743Y-69954500D01*
X110843122Y-69952775D01*
X110843095Y-69953061D01*
X110835333Y-69952326D01*
X110766172Y-69954500D01*
X110736649Y-69954500D01*
X110729778Y-69955367D01*
X110723959Y-69955825D01*
X110677374Y-69957289D01*
X110677368Y-69957290D01*
X110658126Y-69962880D01*
X110639087Y-69966823D01*
X110619217Y-69969334D01*
X110619203Y-69969337D01*
X110575883Y-69986488D01*
X110570358Y-69988380D01*
X110525613Y-70001380D01*
X110525610Y-70001381D01*
X110508366Y-70011579D01*
X110490905Y-70020133D01*
X110472274Y-70027510D01*
X110472262Y-70027517D01*
X110434570Y-70054902D01*
X110429687Y-70058109D01*
X110389580Y-70081829D01*
X110375414Y-70095995D01*
X110360624Y-70108627D01*
X110344414Y-70120404D01*
X110344411Y-70120407D01*
X110314710Y-70156309D01*
X110310777Y-70160631D01*
X108743228Y-71728181D01*
X108681905Y-71761666D01*
X108655547Y-71764500D01*
X102367227Y-71764500D01*
X102300188Y-71744815D01*
X102265652Y-71711623D01*
X102130494Y-71518597D01*
X101963402Y-71351506D01*
X101963401Y-71351505D01*
X101777405Y-71221269D01*
X101733781Y-71166692D01*
X101726588Y-71097193D01*
X101758110Y-71034839D01*
X101777405Y-71018119D01*
X101963082Y-70888105D01*
X102130105Y-70721082D01*
X102265600Y-70527578D01*
X102365429Y-70313492D01*
X102365432Y-70313486D01*
X102422636Y-70100000D01*
X101705347Y-70100000D01*
X101638308Y-70080315D01*
X101592553Y-70027511D01*
X101582609Y-69958353D01*
X101586369Y-69941067D01*
X101592000Y-69921888D01*
X101592000Y-69778111D01*
X101586369Y-69758933D01*
X101586370Y-69689064D01*
X101624145Y-69630286D01*
X101687701Y-69601262D01*
X101705347Y-69600000D01*
X102422636Y-69600000D01*
X102422635Y-69599999D01*
X102365432Y-69386513D01*
X102365429Y-69386507D01*
X102265600Y-69172422D01*
X102265599Y-69172420D01*
X102130113Y-68978926D01*
X102130108Y-68978920D01*
X101963082Y-68811894D01*
X101776968Y-68681575D01*
X101733344Y-68626998D01*
X101726151Y-68557499D01*
X101757673Y-68495145D01*
X101776968Y-68478425D01*
X101963082Y-68348105D01*
X102130105Y-68181082D01*
X102265600Y-67987578D01*
X102365429Y-67773492D01*
X102365432Y-67773486D01*
X102422636Y-67560000D01*
X101705347Y-67560000D01*
X101638308Y-67540315D01*
X101592553Y-67487511D01*
X101582609Y-67418353D01*
X101586369Y-67401067D01*
X101592000Y-67381888D01*
X101592000Y-67238111D01*
X101586369Y-67218933D01*
X101586370Y-67149064D01*
X101624145Y-67090286D01*
X101687701Y-67061262D01*
X101705347Y-67060000D01*
X102422636Y-67060000D01*
X102422635Y-67059999D01*
X102365432Y-66846513D01*
X102365429Y-66846507D01*
X102265600Y-66632422D01*
X102265599Y-66632420D01*
X102130113Y-66438926D01*
X102130108Y-66438920D01*
X101963082Y-66271894D01*
X101769578Y-66136399D01*
X101555492Y-66036570D01*
X101555486Y-66036567D01*
X101342000Y-65979364D01*
X101342000Y-66697698D01*
X101322315Y-66764737D01*
X101269511Y-66810492D01*
X101200355Y-66820436D01*
X101127766Y-66810000D01*
X101127763Y-66810000D01*
X101056237Y-66810000D01*
X101056233Y-66810000D01*
X100983645Y-66820436D01*
X100914487Y-66810492D01*
X100861684Y-66764736D01*
X100842000Y-66697698D01*
X100842000Y-65979364D01*
X100841999Y-65979364D01*
X100628513Y-66036567D01*
X100628507Y-66036570D01*
X100414422Y-66136399D01*
X100414420Y-66136400D01*
X100220926Y-66271886D01*
X100220920Y-66271891D01*
X100053891Y-66438920D01*
X100053886Y-66438926D01*
X99918400Y-66632420D01*
X99918399Y-66632422D01*
X99818570Y-66846507D01*
X99818567Y-66846513D01*
X99761364Y-67059999D01*
X99761364Y-67060000D01*
X100478653Y-67060000D01*
X100545692Y-67079685D01*
X100591447Y-67132489D01*
X100601391Y-67201647D01*
X100597631Y-67218933D01*
X100592000Y-67238111D01*
X100592000Y-67381888D01*
X100597631Y-67401067D01*
X100597630Y-67470936D01*
X100559855Y-67529714D01*
X100496299Y-67558738D01*
X100478653Y-67560000D01*
X99761364Y-67560000D01*
X99818567Y-67773486D01*
X99818570Y-67773492D01*
X99918399Y-67987578D01*
X100053894Y-68181082D01*
X100220917Y-68348105D01*
X100407031Y-68478425D01*
X100450656Y-68533003D01*
X100457848Y-68602501D01*
X100426326Y-68664856D01*
X100407031Y-68681575D01*
X100220922Y-68811890D01*
X100220920Y-68811891D01*
X100053891Y-68978920D01*
X100053886Y-68978926D01*
X99918400Y-69172420D01*
X99918399Y-69172422D01*
X99818570Y-69386507D01*
X99818567Y-69386513D01*
X99761364Y-69599999D01*
X99761364Y-69600000D01*
X100478653Y-69600000D01*
X100545692Y-69619685D01*
X100591447Y-69672489D01*
X100601391Y-69741647D01*
X100597631Y-69758933D01*
X100592000Y-69778111D01*
X100592000Y-69921888D01*
X100597631Y-69941067D01*
X100597630Y-70010936D01*
X100559855Y-70069714D01*
X100496299Y-70098738D01*
X100478653Y-70100000D01*
X99761364Y-70100000D01*
X99818567Y-70313486D01*
X99818570Y-70313492D01*
X99918399Y-70527578D01*
X100053894Y-70721082D01*
X100220917Y-70888105D01*
X100406595Y-71018119D01*
X100450219Y-71072696D01*
X100457412Y-71142195D01*
X100425890Y-71204549D01*
X100406595Y-71221269D01*
X100220594Y-71351508D01*
X100053505Y-71518597D01*
X99917965Y-71712169D01*
X99917964Y-71712171D01*
X99845234Y-71868142D01*
X99821053Y-71919999D01*
X99818098Y-71926335D01*
X99818094Y-71926344D01*
X99756938Y-72154586D01*
X99756936Y-72154596D01*
X99736341Y-72389999D01*
X99736341Y-72390000D01*
X99756936Y-72625403D01*
X99756938Y-72625413D01*
X99818094Y-72853655D01*
X99818096Y-72853659D01*
X99818097Y-72853663D01*
X99906590Y-73043436D01*
X99917965Y-73067830D01*
X99917967Y-73067834D01*
X100020049Y-73213621D01*
X100053501Y-73261396D01*
X100053506Y-73261402D01*
X100220597Y-73428493D01*
X100220603Y-73428498D01*
X100406158Y-73558425D01*
X100449783Y-73613002D01*
X100456977Y-73682500D01*
X100425454Y-73744855D01*
X100406158Y-73761575D01*
X100220597Y-73891505D01*
X100053505Y-74058597D01*
X99917965Y-74252169D01*
X99917964Y-74252171D01*
X99818098Y-74466335D01*
X99818094Y-74466344D01*
X99756938Y-74694586D01*
X99756936Y-74694596D01*
X99736341Y-74929999D01*
X99736341Y-74930000D01*
X96012499Y-74930000D01*
X96012499Y-64772439D01*
X96012690Y-64767574D01*
X96016029Y-64725152D01*
X96016975Y-64713120D01*
X96029286Y-64572416D01*
X96032234Y-64554307D01*
X96041431Y-64516000D01*
X124316540Y-64516000D01*
X124336326Y-64704256D01*
X124336327Y-64704259D01*
X124394818Y-64884277D01*
X124394821Y-64884284D01*
X124489467Y-65048216D01*
X124583550Y-65152705D01*
X124616129Y-65188888D01*
X124756385Y-65290790D01*
X124799051Y-65346120D01*
X124807500Y-65391108D01*
X124807500Y-65641000D01*
X124807501Y-65641019D01*
X124818000Y-65743796D01*
X124818001Y-65743799D01*
X124865182Y-65886181D01*
X124873186Y-65910334D01*
X124965288Y-66059656D01*
X125089344Y-66183712D01*
X125238666Y-66275814D01*
X125405203Y-66330999D01*
X125507991Y-66341500D01*
X126408008Y-66341499D01*
X126408016Y-66341498D01*
X126408019Y-66341498D01*
X126464302Y-66335748D01*
X126510797Y-66330999D01*
X126677334Y-66275814D01*
X126826656Y-66183712D01*
X126950712Y-66059656D01*
X127042814Y-65910334D01*
X127097999Y-65743797D01*
X127108500Y-65641009D01*
X127108499Y-63390992D01*
X127097999Y-63288203D01*
X127042814Y-63121666D01*
X126950712Y-62972344D01*
X126826656Y-62848288D01*
X126677334Y-62756186D01*
X126510797Y-62701001D01*
X126510795Y-62701000D01*
X126408010Y-62690500D01*
X125507998Y-62690500D01*
X125507980Y-62690501D01*
X125405203Y-62701000D01*
X125405200Y-62701001D01*
X125238668Y-62756185D01*
X125238663Y-62756187D01*
X125089342Y-62848289D01*
X124965289Y-62972342D01*
X124873187Y-63121663D01*
X124873185Y-63121668D01*
X124859416Y-63163221D01*
X124818001Y-63288203D01*
X124818001Y-63288204D01*
X124818000Y-63288204D01*
X124807500Y-63390983D01*
X124807500Y-63640891D01*
X124787815Y-63707930D01*
X124756386Y-63741209D01*
X124616127Y-63843113D01*
X124489466Y-63983785D01*
X124394821Y-64147715D01*
X124394818Y-64147722D01*
X124336327Y-64327740D01*
X124336326Y-64327744D01*
X124316540Y-64516000D01*
X96041431Y-64516000D01*
X96051518Y-64473984D01*
X96081180Y-64363285D01*
X96083790Y-64355598D01*
X96092230Y-64335222D01*
X96119649Y-64269026D01*
X96165813Y-64170028D01*
X96169127Y-64163860D01*
X96218562Y-64083190D01*
X96220587Y-64080102D01*
X96281316Y-63993372D01*
X96284908Y-63988733D01*
X96346914Y-63916133D01*
X96350149Y-63912634D01*
X96424634Y-63838149D01*
X96428133Y-63834914D01*
X96500733Y-63772908D01*
X96505372Y-63769316D01*
X96592102Y-63708587D01*
X96595190Y-63706562D01*
X96675860Y-63657127D01*
X96682028Y-63653813D01*
X96781026Y-63607649D01*
X96867599Y-63571789D01*
X96875285Y-63569181D01*
X96877617Y-63568556D01*
X96985984Y-63539518D01*
X97066307Y-63520234D01*
X97084416Y-63517286D01*
X97224988Y-63504986D01*
X97279573Y-63500690D01*
X97284438Y-63500500D01*
X109925248Y-63500500D01*
X109936963Y-63503939D01*
X109973583Y-63500736D01*
X109978989Y-63500500D01*
X110081990Y-63500500D01*
X110081991Y-63500500D01*
X110168450Y-63486806D01*
X110176082Y-63487792D01*
X110192980Y-63483265D01*
X110199332Y-63481915D01*
X110201777Y-63481527D01*
X110279510Y-63469216D01*
X110380443Y-63436420D01*
X110388984Y-63436177D01*
X110403445Y-63429434D01*
X110410495Y-63426657D01*
X110427686Y-63421070D01*
X110438362Y-63417602D01*
X110441469Y-63416682D01*
X110476276Y-63407355D01*
X110493163Y-63395466D01*
X110533855Y-63374731D01*
X110577569Y-63352457D01*
X110587330Y-63350624D01*
X110600247Y-63341580D01*
X110607673Y-63337119D01*
X110647887Y-63316629D01*
X110647896Y-63316622D01*
X110652932Y-63313536D01*
X110659134Y-63310204D01*
X110665763Y-63307112D01*
X110679504Y-63293657D01*
X110756937Y-63237399D01*
X110767630Y-63233583D01*
X110775191Y-63226023D01*
X110789980Y-63213391D01*
X110809675Y-63199083D01*
X110815831Y-63192926D01*
X110832383Y-63179038D01*
X110835995Y-63176508D01*
X110846437Y-63162320D01*
X110914319Y-63094438D01*
X110925453Y-63088359D01*
X110931038Y-63080383D01*
X110944926Y-63063831D01*
X110951083Y-63057675D01*
X110965391Y-63037980D01*
X110978023Y-63023191D01*
X110982188Y-63019025D01*
X110989397Y-63004939D01*
X111045656Y-62927505D01*
X111056661Y-62919019D01*
X111062204Y-62907134D01*
X111065536Y-62900932D01*
X111068622Y-62895896D01*
X111068629Y-62895887D01*
X111089120Y-62855670D01*
X111093580Y-62848247D01*
X111100197Y-62838796D01*
X111104456Y-62825571D01*
X111126731Y-62781855D01*
X111147466Y-62741163D01*
X111157747Y-62730276D01*
X111168682Y-62689469D01*
X111169604Y-62686356D01*
X111178657Y-62658495D01*
X111181434Y-62651445D01*
X111186624Y-62640313D01*
X111188421Y-62628443D01*
X111208379Y-62567018D01*
X111221216Y-62527510D01*
X111233914Y-62447332D01*
X111235265Y-62440980D01*
X111238927Y-62427311D01*
X111238806Y-62416450D01*
X111252500Y-62329990D01*
X111252500Y-62226988D01*
X111252736Y-62221582D01*
X111255473Y-62190294D01*
X111252500Y-62173247D01*
X111252500Y-60935467D01*
X111252500Y-59692409D01*
X111252688Y-59687600D01*
X111256986Y-59632999D01*
X111269286Y-59492416D01*
X111272234Y-59474307D01*
X111291518Y-59393984D01*
X111321181Y-59283284D01*
X111323790Y-59275598D01*
X111359649Y-59189026D01*
X111405813Y-59090028D01*
X111409127Y-59083860D01*
X111458562Y-59003190D01*
X111460587Y-59000102D01*
X111521316Y-58913372D01*
X111524908Y-58908733D01*
X111586914Y-58836133D01*
X111590149Y-58832634D01*
X111664634Y-58758149D01*
X111668133Y-58754914D01*
X111740733Y-58692908D01*
X111745372Y-58689316D01*
X111832102Y-58628587D01*
X111835190Y-58626562D01*
X111915860Y-58577127D01*
X111922028Y-58573813D01*
X112021026Y-58527649D01*
X112107599Y-58491789D01*
X112115285Y-58489181D01*
X112117617Y-58488556D01*
X112225984Y-58459518D01*
X112306307Y-58440234D01*
X112324416Y-58437286D01*
X112464988Y-58424986D01*
X112519573Y-58420690D01*
X112524438Y-58420500D01*
X117599562Y-58420500D01*
X117604426Y-58420690D01*
G37*
%TD.AperFunction*%
%TD*%
M02*
