%TF.GenerationSoftware,KiCad,Pcbnew,7.0.7*%
%TF.CreationDate,2023-10-21T14:21:19+02:00*%
%TF.ProjectId,G84-4100,4738342d-3431-4303-902e-6b696361645f,rev?*%
%TF.SameCoordinates,Original*%
%TF.FileFunction,Profile,NP*%
%FSLAX46Y46*%
G04 Gerber Fmt 4.6, Leading zero omitted, Abs format (unit mm)*
G04 Created by KiCad (PCBNEW 7.0.7) date 2023-10-21 14:21:19*
%MOMM*%
%LPD*%
G01*
G04 APERTURE LIST*
%TA.AperFunction,Profile*%
%ADD10C,0.100000*%
%TD*%
G04 APERTURE END LIST*
D10*
X96012000Y-92710000D02*
G75*
G03*
X97282000Y-93980000I1270000J0D01*
G01*
X174752000Y-59690000D02*
G75*
G03*
X173482000Y-58420000I-1270000J0D01*
G01*
X97282000Y-63500000D02*
X109982000Y-63500000D01*
X112522000Y-58420000D02*
G75*
G03*
X111252000Y-59690000I0J-1270000D01*
G01*
X132842000Y-58420000D02*
X173482000Y-58420000D01*
X187452000Y-59690000D02*
X187452000Y-60960000D01*
X174752000Y-60960000D02*
X187452000Y-60960000D01*
X118872000Y-60960000D02*
X131572000Y-60960000D01*
X118872000Y-59690000D02*
X118872000Y-60960000D01*
X109982000Y-63500000D02*
G75*
G03*
X111252000Y-62230000I0J1270000D01*
G01*
X97282000Y-63500000D02*
G75*
G03*
X96012000Y-64770000I0J-1270000D01*
G01*
X193802000Y-93980000D02*
X97282000Y-93980000D01*
X111252000Y-59690000D02*
X111252000Y-62230000D01*
X174752000Y-59690000D02*
X174752000Y-60960000D01*
X131572000Y-59690000D02*
X131572000Y-60960000D01*
X112522000Y-58420000D02*
X117602000Y-58420000D01*
X118872000Y-59690000D02*
G75*
G03*
X117602000Y-58420000I-1270000J0D01*
G01*
X195072000Y-59690000D02*
X195072000Y-92710000D01*
X188722000Y-58420000D02*
X193802000Y-58420000D01*
X96012000Y-92710000D02*
X96012000Y-64770000D01*
X193802000Y-93980000D02*
G75*
G03*
X195072000Y-92710000I0J1270000D01*
G01*
X195072000Y-59690000D02*
G75*
G03*
X193802000Y-58420000I-1270000J0D01*
G01*
X188722000Y-58420000D02*
G75*
G03*
X187452000Y-59690000I0J-1270000D01*
G01*
X132842000Y-58420000D02*
G75*
G03*
X131572000Y-59690000I0J-1270000D01*
G01*
M02*
