%TF.GenerationSoftware,KiCad,Pcbnew,7.0.7*%
%TF.CreationDate,2023-10-21T14:21:22+02:00*%
%TF.ProjectId,G84-4100,4738342d-3431-4303-902e-6b696361645f,rev?*%
%TF.SameCoordinates,Original*%
%TF.FileFunction,Drillmap*%
%TF.FilePolarity,Positive*%
%FSLAX45Y45*%
G04 Gerber Fmt 4.5, Leading zero omitted, Abs format (unit mm)*
G04 Created by KiCad (PCBNEW 7.0.7) date 2023-10-21 14:21:22*
%MOMM*%
%LPD*%
G01*
G04 APERTURE LIST*
%ADD10C,0.100000*%
%ADD11C,0.200000*%
%ADD12C,0.040000*%
%ADD13C,0.065000*%
%ADD14C,0.080000*%
G04 APERTURE END LIST*
D10*
X9601200Y-9271000D02*
G75*
G03*
X9728200Y-9398000I127000J0D01*
G01*
X17475200Y-5969000D02*
G75*
G03*
X17348200Y-5842000I-127000J0D01*
G01*
X9728200Y-6350000D02*
X10998200Y-6350000D01*
X11252200Y-5842000D02*
G75*
G03*
X11125200Y-5969000I0J-127000D01*
G01*
X13284200Y-5842000D02*
X17348200Y-5842000D01*
X18745200Y-5969000D02*
X18745200Y-6096000D01*
X17475200Y-6096000D02*
X18745200Y-6096000D01*
X11887200Y-6096000D02*
X13157200Y-6096000D01*
X11887200Y-5969000D02*
X11887200Y-6096000D01*
X10998200Y-6350000D02*
G75*
G03*
X11125200Y-6223000I0J127000D01*
G01*
X9728200Y-6350000D02*
G75*
G03*
X9601200Y-6477000I0J-127000D01*
G01*
X19380200Y-9398000D02*
X9728200Y-9398000D01*
X11125200Y-5969000D02*
X11125200Y-6223000D01*
X17475200Y-5969000D02*
X17475200Y-6096000D01*
X13157200Y-5969000D02*
X13157200Y-6096000D01*
X11252200Y-5842000D02*
X11760200Y-5842000D01*
X11887200Y-5969000D02*
G75*
G03*
X11760200Y-5842000I-127000J0D01*
G01*
X19507200Y-5969000D02*
X19507200Y-9271000D01*
X18872200Y-5842000D02*
X19380200Y-5842000D01*
X9601200Y-9271000D02*
X9601200Y-6477000D01*
X19380200Y-9398000D02*
G75*
G03*
X19507200Y-9271000I0J127000D01*
G01*
X19507200Y-5969000D02*
G75*
G03*
X19380200Y-5842000I-127000J0D01*
G01*
X18872200Y-5842000D02*
G75*
G03*
X18745200Y-5969000I0J-127000D01*
G01*
X13284200Y-5842000D02*
G75*
G03*
X13157200Y-5969000I0J-127000D01*
G01*
D11*
D12*
X9835200Y-8108000D02*
X9875200Y-8148000D01*
X9875200Y-8108000D02*
X9835200Y-8148000D01*
X9835200Y-9124000D02*
X9875200Y-9164000D01*
X9875200Y-9124000D02*
X9835200Y-9164000D01*
X10089200Y-9124000D02*
X10129200Y-9164000D01*
X10129200Y-9124000D02*
X10089200Y-9164000D01*
X10343200Y-9124000D02*
X10383200Y-9164000D01*
X10383200Y-9124000D02*
X10343200Y-9164000D01*
X10597200Y-6838000D02*
X10637200Y-6878000D01*
X10637200Y-6838000D02*
X10597200Y-6878000D01*
X10597200Y-9124000D02*
X10637200Y-9164000D01*
X10637200Y-9124000D02*
X10597200Y-9164000D01*
X10851200Y-6838000D02*
X10891200Y-6878000D01*
X10891200Y-6838000D02*
X10851200Y-6878000D01*
X10851200Y-9124000D02*
X10891200Y-9164000D01*
X10891200Y-9124000D02*
X10851200Y-9164000D01*
X11105200Y-9124000D02*
X11145200Y-9164000D01*
X11145200Y-9124000D02*
X11105200Y-9164000D01*
X11359200Y-6076000D02*
X11399200Y-6116000D01*
X11399200Y-6076000D02*
X11359200Y-6116000D01*
X11359200Y-9124000D02*
X11399200Y-9164000D01*
X11399200Y-9124000D02*
X11359200Y-9164000D01*
X11613200Y-6076000D02*
X11653200Y-6116000D01*
X11653200Y-6076000D02*
X11613200Y-6116000D01*
X11613200Y-9124000D02*
X11653200Y-9164000D01*
X11653200Y-9124000D02*
X11613200Y-9164000D01*
X11867200Y-6838000D02*
X11907200Y-6878000D01*
X11907200Y-6838000D02*
X11867200Y-6878000D01*
X11867200Y-9124000D02*
X11907200Y-9164000D01*
X11907200Y-9124000D02*
X11867200Y-9164000D01*
X12121200Y-9124000D02*
X12161200Y-9164000D01*
X12161200Y-9124000D02*
X12121200Y-9164000D01*
X12248200Y-6825300D02*
X12288200Y-6865300D01*
X12288200Y-6825300D02*
X12248200Y-6865300D01*
X12375200Y-9124000D02*
X12415200Y-9164000D01*
X12415200Y-9124000D02*
X12375200Y-9164000D01*
X12502200Y-6431600D02*
X12542200Y-6471600D01*
X12542200Y-6431600D02*
X12502200Y-6471600D01*
X12575800Y-6431600D02*
X12615800Y-6471600D01*
X12615800Y-6431600D02*
X12575800Y-6471600D01*
X12629200Y-6838000D02*
X12669200Y-6878000D01*
X12669200Y-6838000D02*
X12629200Y-6878000D01*
X12629200Y-9124000D02*
X12669200Y-9164000D01*
X12669200Y-9124000D02*
X12629200Y-9164000D01*
X12883200Y-9124000D02*
X12923200Y-9164000D01*
X12923200Y-9124000D02*
X12883200Y-9164000D01*
X12959400Y-7244400D02*
X12999400Y-7284400D01*
X12999400Y-7244400D02*
X12959400Y-7284400D01*
X13137200Y-9124000D02*
X13177200Y-9164000D01*
X13177200Y-9124000D02*
X13137200Y-9164000D01*
X13264200Y-6063300D02*
X13304200Y-6103300D01*
X13304200Y-6063300D02*
X13264200Y-6103300D01*
X13391200Y-9124000D02*
X13431200Y-9164000D01*
X13431200Y-9124000D02*
X13391200Y-9164000D01*
X13403900Y-6431600D02*
X13443900Y-6471600D01*
X13443900Y-6431600D02*
X13403900Y-6471600D01*
X13454700Y-6609400D02*
X13494700Y-6649400D01*
X13494700Y-6609400D02*
X13454700Y-6649400D01*
X13645200Y-9124000D02*
X13685200Y-9164000D01*
X13685200Y-9124000D02*
X13645200Y-9164000D01*
X13899200Y-9124000D02*
X13939200Y-9164000D01*
X13939200Y-9124000D02*
X13899200Y-9164000D01*
X13962700Y-6876100D02*
X14002700Y-6916100D01*
X14002700Y-6876100D02*
X13962700Y-6916100D01*
X14153200Y-9124000D02*
X14193200Y-9164000D01*
X14193200Y-9124000D02*
X14153200Y-9164000D01*
X14331000Y-7600000D02*
X14371000Y-7640000D01*
X14371000Y-7600000D02*
X14331000Y-7640000D01*
X14407200Y-9124000D02*
X14447200Y-9164000D01*
X14447200Y-9124000D02*
X14407200Y-9164000D01*
X14661200Y-9124000D02*
X14701200Y-9164000D01*
X14701200Y-9124000D02*
X14661200Y-9164000D01*
X14788200Y-6660200D02*
X14828200Y-6700200D01*
X14828200Y-6660200D02*
X14788200Y-6700200D01*
X14813600Y-7904800D02*
X14853600Y-7944800D01*
X14853600Y-7904800D02*
X14813600Y-7944800D01*
X14864400Y-7092000D02*
X14904400Y-7132000D01*
X14904400Y-7092000D02*
X14864400Y-7132000D01*
X14864400Y-7600000D02*
X14904400Y-7640000D01*
X14904400Y-7600000D02*
X14864400Y-7640000D01*
X14915200Y-9124000D02*
X14955200Y-9164000D01*
X14955200Y-9124000D02*
X14915200Y-9164000D01*
X15118400Y-7803200D02*
X15158400Y-7843200D01*
X15158400Y-7803200D02*
X15118400Y-7843200D01*
X15169200Y-9124000D02*
X15209200Y-9164000D01*
X15209200Y-9124000D02*
X15169200Y-9164000D01*
X15220000Y-7320600D02*
X15260000Y-7360600D01*
X15260000Y-7320600D02*
X15220000Y-7360600D01*
X15372400Y-7549200D02*
X15412400Y-7589200D01*
X15412400Y-7549200D02*
X15372400Y-7589200D01*
X15397800Y-7168200D02*
X15437800Y-7208200D01*
X15437800Y-7168200D02*
X15397800Y-7208200D01*
X15423200Y-9124000D02*
X15463200Y-9164000D01*
X15463200Y-9124000D02*
X15423200Y-9164000D01*
X15626400Y-7346000D02*
X15666400Y-7386000D01*
X15666400Y-7346000D02*
X15626400Y-7386000D01*
X15667150Y-6787200D02*
X15707150Y-6827200D01*
X15707150Y-6787200D02*
X15667150Y-6827200D01*
X15677200Y-9124000D02*
X15717200Y-9164000D01*
X15717200Y-9124000D02*
X15677200Y-9164000D01*
X15855000Y-6787200D02*
X15895000Y-6827200D01*
X15895000Y-6787200D02*
X15855000Y-6827200D01*
X15931200Y-9124000D02*
X15971200Y-9164000D01*
X15971200Y-9124000D02*
X15931200Y-9164000D01*
X16147100Y-8323900D02*
X16187100Y-8363900D01*
X16187100Y-8323900D02*
X16147100Y-8363900D01*
X16185200Y-7498400D02*
X16225200Y-7538400D01*
X16225200Y-7498400D02*
X16185200Y-7538400D01*
X16185200Y-9124000D02*
X16225200Y-9164000D01*
X16225200Y-9124000D02*
X16185200Y-9164000D01*
X16299500Y-6698300D02*
X16339500Y-6738300D01*
X16339500Y-6698300D02*
X16299500Y-6738300D01*
X16312200Y-6888800D02*
X16352200Y-6928800D01*
X16352200Y-6888800D02*
X16312200Y-6928800D01*
X16439200Y-9124000D02*
X16479200Y-9164000D01*
X16479200Y-9124000D02*
X16439200Y-9164000D01*
X16591600Y-6888800D02*
X16631600Y-6928800D01*
X16631600Y-6888800D02*
X16591600Y-6928800D01*
X16667800Y-7803200D02*
X16707800Y-7843200D01*
X16707800Y-7803200D02*
X16667800Y-7843200D01*
X16693200Y-9124000D02*
X16733200Y-9164000D01*
X16733200Y-9124000D02*
X16693200Y-9164000D01*
X16794800Y-7066600D02*
X16834800Y-7106600D01*
X16834800Y-7066600D02*
X16794800Y-7106600D01*
X16947200Y-7600000D02*
X16987200Y-7640000D01*
X16987200Y-7600000D02*
X16947200Y-7640000D01*
X16947200Y-8057200D02*
X16987200Y-8097200D01*
X16987200Y-8057200D02*
X16947200Y-8097200D01*
X16947200Y-9124000D02*
X16987200Y-9164000D01*
X16987200Y-9124000D02*
X16947200Y-9164000D01*
X17023400Y-7371400D02*
X17063400Y-7411400D01*
X17063400Y-7371400D02*
X17023400Y-7411400D01*
X17074200Y-7041200D02*
X17114200Y-7081200D01*
X17114200Y-7041200D02*
X17074200Y-7081200D01*
X17201200Y-9124000D02*
X17241200Y-9164000D01*
X17241200Y-9124000D02*
X17201200Y-9164000D01*
X17252000Y-6025200D02*
X17292000Y-6065200D01*
X17292000Y-6025200D02*
X17252000Y-6065200D01*
X17417100Y-8196900D02*
X17457100Y-8236900D01*
X17457100Y-8196900D02*
X17417100Y-8236900D01*
X17455200Y-7498400D02*
X17495200Y-7538400D01*
X17495200Y-7498400D02*
X17455200Y-7538400D01*
X17455200Y-9124000D02*
X17495200Y-9164000D01*
X17495200Y-9124000D02*
X17455200Y-9164000D01*
X17709200Y-6330000D02*
X17749200Y-6370000D01*
X17749200Y-6330000D02*
X17709200Y-6370000D01*
X17709200Y-8108000D02*
X17749200Y-8148000D01*
X17749200Y-8108000D02*
X17709200Y-8148000D01*
X17709200Y-9124000D02*
X17749200Y-9164000D01*
X17749200Y-9124000D02*
X17709200Y-9164000D01*
X17747300Y-7892100D02*
X17787300Y-7932100D01*
X17787300Y-7892100D02*
X17747300Y-7932100D01*
X17963200Y-6330000D02*
X18003200Y-6370000D01*
X18003200Y-6330000D02*
X17963200Y-6370000D01*
X17963200Y-6584000D02*
X18003200Y-6624000D01*
X18003200Y-6584000D02*
X17963200Y-6624000D01*
X17963200Y-6838000D02*
X18003200Y-6878000D01*
X18003200Y-6838000D02*
X17963200Y-6878000D01*
X17963200Y-7092000D02*
X18003200Y-7132000D01*
X18003200Y-7092000D02*
X17963200Y-7132000D01*
X17963200Y-7346000D02*
X18003200Y-7386000D01*
X18003200Y-7346000D02*
X17963200Y-7386000D01*
X17963200Y-9124000D02*
X18003200Y-9164000D01*
X18003200Y-9124000D02*
X17963200Y-9164000D01*
X18052100Y-7625400D02*
X18092100Y-7665400D01*
X18092100Y-7625400D02*
X18052100Y-7665400D01*
X18179100Y-8387400D02*
X18219100Y-8427400D01*
X18219100Y-8387400D02*
X18179100Y-8427400D01*
X18217200Y-6330000D02*
X18257200Y-6370000D01*
X18257200Y-6330000D02*
X18217200Y-6370000D01*
X18217200Y-7346000D02*
X18257200Y-7386000D01*
X18257200Y-7346000D02*
X18217200Y-7386000D01*
X18217200Y-9124000D02*
X18257200Y-9164000D01*
X18257200Y-9124000D02*
X18217200Y-9164000D01*
X18471200Y-6330000D02*
X18511200Y-6370000D01*
X18511200Y-6330000D02*
X18471200Y-6370000D01*
X18471200Y-7346000D02*
X18511200Y-7386000D01*
X18511200Y-7346000D02*
X18471200Y-7386000D01*
X18471200Y-9124000D02*
X18511200Y-9164000D01*
X18511200Y-9124000D02*
X18471200Y-9164000D01*
X18674400Y-7815900D02*
X18714400Y-7855900D01*
X18714400Y-7815900D02*
X18674400Y-7855900D01*
X18674400Y-7930200D02*
X18714400Y-7970200D01*
X18714400Y-7930200D02*
X18674400Y-7970200D01*
X18725200Y-6330000D02*
X18765200Y-6370000D01*
X18765200Y-6330000D02*
X18725200Y-6370000D01*
X18725200Y-7346000D02*
X18765200Y-7386000D01*
X18765200Y-7346000D02*
X18725200Y-7386000D01*
X18725200Y-9124000D02*
X18765200Y-9164000D01*
X18765200Y-9124000D02*
X18725200Y-9164000D01*
X18788700Y-7803200D02*
X18828700Y-7843200D01*
X18828700Y-7803200D02*
X18788700Y-7843200D01*
X18788700Y-7930200D02*
X18828700Y-7970200D01*
X18828700Y-7930200D02*
X18788700Y-7970200D01*
X18839500Y-8362000D02*
X18879500Y-8402000D01*
X18879500Y-8362000D02*
X18839500Y-8402000D01*
X18979200Y-6584000D02*
X19019200Y-6624000D01*
X19019200Y-6584000D02*
X18979200Y-6624000D01*
X18979200Y-7346000D02*
X19019200Y-7386000D01*
X19019200Y-7346000D02*
X18979200Y-7386000D01*
X18979200Y-8362000D02*
X19019200Y-8402000D01*
X19019200Y-8362000D02*
X18979200Y-8402000D01*
X18979200Y-9124000D02*
X19019200Y-9164000D01*
X19019200Y-9124000D02*
X18979200Y-9164000D01*
X19233200Y-6838000D02*
X19273200Y-6878000D01*
X19273200Y-6838000D02*
X19233200Y-6878000D01*
X19233200Y-7092000D02*
X19273200Y-7132000D01*
X19273200Y-7092000D02*
X19233200Y-7132000D01*
X19233200Y-7346000D02*
X19273200Y-7386000D01*
X19273200Y-7346000D02*
X19233200Y-7386000D01*
X19233200Y-9124000D02*
X19273200Y-9164000D01*
X19273200Y-9124000D02*
X19233200Y-9164000D01*
X19309400Y-8616000D02*
X19349400Y-8656000D01*
X19349400Y-8616000D02*
X19309400Y-8656000D01*
D13*
X13570700Y-6096000D02*
G75*
G03*
X13570700Y-6096000I-32500J0D01*
G01*
X13697700Y-6096000D02*
G75*
G03*
X13697700Y-6096000I-32500J0D01*
G01*
X13824700Y-6096000D02*
G75*
G03*
X13824700Y-6096000I-32500J0D01*
G01*
X13951700Y-6096000D02*
G75*
G03*
X13951700Y-6096000I-32500J0D01*
G01*
X14078700Y-6096000D02*
G75*
G03*
X14078700Y-6096000I-32500J0D01*
G01*
X14205700Y-6096000D02*
G75*
G03*
X14205700Y-6096000I-32500J0D01*
G01*
X14332700Y-6096000D02*
G75*
G03*
X14332700Y-6096000I-32500J0D01*
G01*
X14459700Y-6096000D02*
G75*
G03*
X14459700Y-6096000I-32500J0D01*
G01*
X14586700Y-6096000D02*
G75*
G03*
X14586700Y-6096000I-32500J0D01*
G01*
X14713700Y-6096000D02*
G75*
G03*
X14713700Y-6096000I-32500J0D01*
G01*
X14840700Y-6096000D02*
G75*
G03*
X14840700Y-6096000I-32500J0D01*
G01*
X14967700Y-6096000D02*
G75*
G03*
X14967700Y-6096000I-32500J0D01*
G01*
X15094700Y-6096000D02*
G75*
G03*
X15094700Y-6096000I-32500J0D01*
G01*
X15221700Y-6096000D02*
G75*
G03*
X15221700Y-6096000I-32500J0D01*
G01*
X15348700Y-6096000D02*
G75*
G03*
X15348700Y-6096000I-32500J0D01*
G01*
X15475700Y-6096000D02*
G75*
G03*
X15475700Y-6096000I-32500J0D01*
G01*
X15602700Y-6096000D02*
G75*
G03*
X15602700Y-6096000I-32500J0D01*
G01*
X15729700Y-6096000D02*
G75*
G03*
X15729700Y-6096000I-32500J0D01*
G01*
X15856700Y-6096000D02*
G75*
G03*
X15856700Y-6096000I-32500J0D01*
G01*
X15983700Y-6096000D02*
G75*
G03*
X15983700Y-6096000I-32500J0D01*
G01*
X16110700Y-6096000D02*
G75*
G03*
X16110700Y-6096000I-32500J0D01*
G01*
X16237700Y-6096000D02*
G75*
G03*
X16237700Y-6096000I-32500J0D01*
G01*
X16364700Y-6096000D02*
G75*
G03*
X16364700Y-6096000I-32500J0D01*
G01*
X16491700Y-6096000D02*
G75*
G03*
X16491700Y-6096000I-32500J0D01*
G01*
X16618700Y-6096000D02*
G75*
G03*
X16618700Y-6096000I-32500J0D01*
G01*
X16745700Y-6096000D02*
G75*
G03*
X16745700Y-6096000I-32500J0D01*
G01*
X16872700Y-6096000D02*
G75*
G03*
X16872700Y-6096000I-32500J0D01*
G01*
X16999700Y-6096000D02*
G75*
G03*
X16999700Y-6096000I-32500J0D01*
G01*
D14*
X11379200Y-6618000D02*
X11379200Y-6698000D01*
X11339200Y-6658000D02*
X11419200Y-6658000D01*
X11379200Y-6818000D02*
X11379200Y-6898000D01*
X11339200Y-6858000D02*
X11419200Y-6858000D01*
X11379200Y-7018000D02*
X11379200Y-7098000D01*
X11339200Y-7058000D02*
X11419200Y-7058000D01*
X11379200Y-7218000D02*
X11379200Y-7298000D01*
X11339200Y-7258000D02*
X11419200Y-7258000D01*
X11379200Y-7418000D02*
X11379200Y-7498000D01*
X11339200Y-7458000D02*
X11419200Y-7458000D01*
D10*
X10144556Y-6766356D02*
X10144556Y-6695644D01*
X10073844Y-6695644D01*
X10073844Y-6766356D01*
X10144556Y-6766356D01*
X10144556Y-7020356D02*
X10144556Y-6949644D01*
X10073844Y-6949644D01*
X10073844Y-7020356D01*
X10144556Y-7020356D01*
X10144556Y-7274356D02*
X10144556Y-7203644D01*
X10073844Y-7203644D01*
X10073844Y-7274356D01*
X10144556Y-7274356D01*
X10144556Y-7528356D02*
X10144556Y-7457644D01*
X10073844Y-7457644D01*
X10073844Y-7528356D01*
X10144556Y-7528356D01*
X10144556Y-7782356D02*
X10144556Y-7711644D01*
X10073844Y-7711644D01*
X10073844Y-7782356D01*
X10144556Y-7782356D01*
X18526556Y-8671356D02*
X18526556Y-8600644D01*
X18455844Y-8600644D01*
X18455844Y-8671356D01*
X18526556Y-8671356D01*
X18526556Y-8925356D02*
X18526556Y-8854644D01*
X18455844Y-8854644D01*
X18455844Y-8925356D01*
X18526556Y-8925356D01*
X18780556Y-8671356D02*
X18780556Y-8600644D01*
X18709844Y-8600644D01*
X18709844Y-8671356D01*
X18780556Y-8671356D01*
X18780556Y-8925356D02*
X18780556Y-8854644D01*
X18709844Y-8854644D01*
X18709844Y-8925356D01*
X18780556Y-8925356D01*
X19034556Y-8671356D02*
X19034556Y-8600644D01*
X18963844Y-8600644D01*
X18963844Y-8671356D01*
X19034556Y-8671356D01*
X19034556Y-8925356D02*
X19034556Y-8854644D01*
X18963844Y-8854644D01*
X18963844Y-8925356D01*
X19034556Y-8925356D01*
D11*
X9856977Y-9714484D02*
X9856977Y-9514484D01*
X9856977Y-9514484D02*
X9904596Y-9514484D01*
X9904596Y-9514484D02*
X9933167Y-9524008D01*
X9933167Y-9524008D02*
X9952215Y-9543055D01*
X9952215Y-9543055D02*
X9961739Y-9562103D01*
X9961739Y-9562103D02*
X9971263Y-9600198D01*
X9971263Y-9600198D02*
X9971263Y-9628770D01*
X9971263Y-9628770D02*
X9961739Y-9666865D01*
X9961739Y-9666865D02*
X9952215Y-9685912D01*
X9952215Y-9685912D02*
X9933167Y-9704960D01*
X9933167Y-9704960D02*
X9904596Y-9714484D01*
X9904596Y-9714484D02*
X9856977Y-9714484D01*
X10056977Y-9714484D02*
X10056977Y-9581150D01*
X10056977Y-9619246D02*
X10066501Y-9600198D01*
X10066501Y-9600198D02*
X10076024Y-9590674D01*
X10076024Y-9590674D02*
X10095072Y-9581150D01*
X10095072Y-9581150D02*
X10114120Y-9581150D01*
X10180786Y-9714484D02*
X10180786Y-9581150D01*
X10180786Y-9514484D02*
X10171263Y-9524008D01*
X10171263Y-9524008D02*
X10180786Y-9533531D01*
X10180786Y-9533531D02*
X10190310Y-9524008D01*
X10190310Y-9524008D02*
X10180786Y-9514484D01*
X10180786Y-9514484D02*
X10180786Y-9533531D01*
X10304596Y-9714484D02*
X10285548Y-9704960D01*
X10285548Y-9704960D02*
X10276024Y-9685912D01*
X10276024Y-9685912D02*
X10276024Y-9514484D01*
X10409358Y-9714484D02*
X10390310Y-9704960D01*
X10390310Y-9704960D02*
X10380786Y-9685912D01*
X10380786Y-9685912D02*
X10380786Y-9514484D01*
X10637929Y-9714484D02*
X10637929Y-9514484D01*
X10637929Y-9514484D02*
X10704596Y-9657341D01*
X10704596Y-9657341D02*
X10771263Y-9514484D01*
X10771263Y-9514484D02*
X10771263Y-9714484D01*
X10952215Y-9714484D02*
X10952215Y-9609722D01*
X10952215Y-9609722D02*
X10942691Y-9590674D01*
X10942691Y-9590674D02*
X10923644Y-9581150D01*
X10923644Y-9581150D02*
X10885548Y-9581150D01*
X10885548Y-9581150D02*
X10866501Y-9590674D01*
X10952215Y-9704960D02*
X10933167Y-9714484D01*
X10933167Y-9714484D02*
X10885548Y-9714484D01*
X10885548Y-9714484D02*
X10866501Y-9704960D01*
X10866501Y-9704960D02*
X10856977Y-9685912D01*
X10856977Y-9685912D02*
X10856977Y-9666865D01*
X10856977Y-9666865D02*
X10866501Y-9647817D01*
X10866501Y-9647817D02*
X10885548Y-9638293D01*
X10885548Y-9638293D02*
X10933167Y-9638293D01*
X10933167Y-9638293D02*
X10952215Y-9628770D01*
X11047453Y-9581150D02*
X11047453Y-9781150D01*
X11047453Y-9590674D02*
X11066501Y-9581150D01*
X11066501Y-9581150D02*
X11104596Y-9581150D01*
X11104596Y-9581150D02*
X11123644Y-9590674D01*
X11123644Y-9590674D02*
X11133167Y-9600198D01*
X11133167Y-9600198D02*
X11142691Y-9619246D01*
X11142691Y-9619246D02*
X11142691Y-9676389D01*
X11142691Y-9676389D02*
X11133167Y-9695436D01*
X11133167Y-9695436D02*
X11123644Y-9704960D01*
X11123644Y-9704960D02*
X11104596Y-9714484D01*
X11104596Y-9714484D02*
X11066501Y-9714484D01*
X11066501Y-9714484D02*
X11047453Y-9704960D01*
X11228405Y-9695436D02*
X11237929Y-9704960D01*
X11237929Y-9704960D02*
X11228405Y-9714484D01*
X11228405Y-9714484D02*
X11218882Y-9704960D01*
X11218882Y-9704960D02*
X11228405Y-9695436D01*
X11228405Y-9695436D02*
X11228405Y-9714484D01*
X11228405Y-9590674D02*
X11237929Y-9600198D01*
X11237929Y-9600198D02*
X11228405Y-9609722D01*
X11228405Y-9609722D02*
X11218882Y-9600198D01*
X11218882Y-9600198D02*
X11228405Y-9590674D01*
X11228405Y-9590674D02*
X11228405Y-9609722D01*
D12*
X9556200Y-10023000D02*
X9596200Y-10063000D01*
X9596200Y-10023000D02*
X9556200Y-10063000D01*
D11*
X9895072Y-9934484D02*
X9914120Y-9934484D01*
X9914120Y-9934484D02*
X9933167Y-9944008D01*
X9933167Y-9944008D02*
X9942691Y-9953531D01*
X9942691Y-9953531D02*
X9952215Y-9972579D01*
X9952215Y-9972579D02*
X9961739Y-10010674D01*
X9961739Y-10010674D02*
X9961739Y-10058293D01*
X9961739Y-10058293D02*
X9952215Y-10096389D01*
X9952215Y-10096389D02*
X9942691Y-10115436D01*
X9942691Y-10115436D02*
X9933167Y-10124960D01*
X9933167Y-10124960D02*
X9914120Y-10134484D01*
X9914120Y-10134484D02*
X9895072Y-10134484D01*
X9895072Y-10134484D02*
X9876024Y-10124960D01*
X9876024Y-10124960D02*
X9866501Y-10115436D01*
X9866501Y-10115436D02*
X9856977Y-10096389D01*
X9856977Y-10096389D02*
X9847453Y-10058293D01*
X9847453Y-10058293D02*
X9847453Y-10010674D01*
X9847453Y-10010674D02*
X9856977Y-9972579D01*
X9856977Y-9972579D02*
X9866501Y-9953531D01*
X9866501Y-9953531D02*
X9876024Y-9944008D01*
X9876024Y-9944008D02*
X9895072Y-9934484D01*
X10047453Y-10115436D02*
X10056977Y-10124960D01*
X10056977Y-10124960D02*
X10047453Y-10134484D01*
X10047453Y-10134484D02*
X10037929Y-10124960D01*
X10037929Y-10124960D02*
X10047453Y-10115436D01*
X10047453Y-10115436D02*
X10047453Y-10134484D01*
X10228405Y-10001150D02*
X10228405Y-10134484D01*
X10180786Y-9924960D02*
X10133167Y-10067817D01*
X10133167Y-10067817D02*
X10256977Y-10067817D01*
X10371263Y-9934484D02*
X10390310Y-9934484D01*
X10390310Y-9934484D02*
X10409358Y-9944008D01*
X10409358Y-9944008D02*
X10418882Y-9953531D01*
X10418882Y-9953531D02*
X10428405Y-9972579D01*
X10428405Y-9972579D02*
X10437929Y-10010674D01*
X10437929Y-10010674D02*
X10437929Y-10058293D01*
X10437929Y-10058293D02*
X10428405Y-10096389D01*
X10428405Y-10096389D02*
X10418882Y-10115436D01*
X10418882Y-10115436D02*
X10409358Y-10124960D01*
X10409358Y-10124960D02*
X10390310Y-10134484D01*
X10390310Y-10134484D02*
X10371263Y-10134484D01*
X10371263Y-10134484D02*
X10352215Y-10124960D01*
X10352215Y-10124960D02*
X10342691Y-10115436D01*
X10342691Y-10115436D02*
X10333167Y-10096389D01*
X10333167Y-10096389D02*
X10323644Y-10058293D01*
X10323644Y-10058293D02*
X10323644Y-10010674D01*
X10323644Y-10010674D02*
X10333167Y-9972579D01*
X10333167Y-9972579D02*
X10342691Y-9953531D01*
X10342691Y-9953531D02*
X10352215Y-9944008D01*
X10352215Y-9944008D02*
X10371263Y-9934484D01*
X10561739Y-9934484D02*
X10580786Y-9934484D01*
X10580786Y-9934484D02*
X10599834Y-9944008D01*
X10599834Y-9944008D02*
X10609358Y-9953531D01*
X10609358Y-9953531D02*
X10618882Y-9972579D01*
X10618882Y-9972579D02*
X10628405Y-10010674D01*
X10628405Y-10010674D02*
X10628405Y-10058293D01*
X10628405Y-10058293D02*
X10618882Y-10096389D01*
X10618882Y-10096389D02*
X10609358Y-10115436D01*
X10609358Y-10115436D02*
X10599834Y-10124960D01*
X10599834Y-10124960D02*
X10580786Y-10134484D01*
X10580786Y-10134484D02*
X10561739Y-10134484D01*
X10561739Y-10134484D02*
X10542691Y-10124960D01*
X10542691Y-10124960D02*
X10533167Y-10115436D01*
X10533167Y-10115436D02*
X10523644Y-10096389D01*
X10523644Y-10096389D02*
X10514120Y-10058293D01*
X10514120Y-10058293D02*
X10514120Y-10010674D01*
X10514120Y-10010674D02*
X10523644Y-9972579D01*
X10523644Y-9972579D02*
X10533167Y-9953531D01*
X10533167Y-9953531D02*
X10542691Y-9944008D01*
X10542691Y-9944008D02*
X10561739Y-9934484D01*
X10714120Y-10134484D02*
X10714120Y-10001150D01*
X10714120Y-10020198D02*
X10723644Y-10010674D01*
X10723644Y-10010674D02*
X10742691Y-10001150D01*
X10742691Y-10001150D02*
X10771263Y-10001150D01*
X10771263Y-10001150D02*
X10790310Y-10010674D01*
X10790310Y-10010674D02*
X10799834Y-10029722D01*
X10799834Y-10029722D02*
X10799834Y-10134484D01*
X10799834Y-10029722D02*
X10809358Y-10010674D01*
X10809358Y-10010674D02*
X10828405Y-10001150D01*
X10828405Y-10001150D02*
X10856977Y-10001150D01*
X10856977Y-10001150D02*
X10876025Y-10010674D01*
X10876025Y-10010674D02*
X10885548Y-10029722D01*
X10885548Y-10029722D02*
X10885548Y-10134484D01*
X10980786Y-10134484D02*
X10980786Y-10001150D01*
X10980786Y-10020198D02*
X10990310Y-10010674D01*
X10990310Y-10010674D02*
X11009358Y-10001150D01*
X11009358Y-10001150D02*
X11037929Y-10001150D01*
X11037929Y-10001150D02*
X11056977Y-10010674D01*
X11056977Y-10010674D02*
X11066501Y-10029722D01*
X11066501Y-10029722D02*
X11066501Y-10134484D01*
X11066501Y-10029722D02*
X11076025Y-10010674D01*
X11076025Y-10010674D02*
X11095072Y-10001150D01*
X11095072Y-10001150D02*
X11123644Y-10001150D01*
X11123644Y-10001150D02*
X11142691Y-10010674D01*
X11142691Y-10010674D02*
X11152215Y-10029722D01*
X11152215Y-10029722D02*
X11152215Y-10134484D01*
X11542691Y-9924960D02*
X11371263Y-10182103D01*
X11799834Y-9934484D02*
X11818882Y-9934484D01*
X11818882Y-9934484D02*
X11837929Y-9944008D01*
X11837929Y-9944008D02*
X11847453Y-9953531D01*
X11847453Y-9953531D02*
X11856977Y-9972579D01*
X11856977Y-9972579D02*
X11866501Y-10010674D01*
X11866501Y-10010674D02*
X11866501Y-10058293D01*
X11866501Y-10058293D02*
X11856977Y-10096389D01*
X11856977Y-10096389D02*
X11847453Y-10115436D01*
X11847453Y-10115436D02*
X11837929Y-10124960D01*
X11837929Y-10124960D02*
X11818882Y-10134484D01*
X11818882Y-10134484D02*
X11799834Y-10134484D01*
X11799834Y-10134484D02*
X11780786Y-10124960D01*
X11780786Y-10124960D02*
X11771263Y-10115436D01*
X11771263Y-10115436D02*
X11761739Y-10096389D01*
X11761739Y-10096389D02*
X11752215Y-10058293D01*
X11752215Y-10058293D02*
X11752215Y-10010674D01*
X11752215Y-10010674D02*
X11761739Y-9972579D01*
X11761739Y-9972579D02*
X11771263Y-9953531D01*
X11771263Y-9953531D02*
X11780786Y-9944008D01*
X11780786Y-9944008D02*
X11799834Y-9934484D01*
X11952215Y-10115436D02*
X11961739Y-10124960D01*
X11961739Y-10124960D02*
X11952215Y-10134484D01*
X11952215Y-10134484D02*
X11942691Y-10124960D01*
X11942691Y-10124960D02*
X11952215Y-10115436D01*
X11952215Y-10115436D02*
X11952215Y-10134484D01*
X12085548Y-9934484D02*
X12104596Y-9934484D01*
X12104596Y-9934484D02*
X12123644Y-9944008D01*
X12123644Y-9944008D02*
X12133167Y-9953531D01*
X12133167Y-9953531D02*
X12142691Y-9972579D01*
X12142691Y-9972579D02*
X12152215Y-10010674D01*
X12152215Y-10010674D02*
X12152215Y-10058293D01*
X12152215Y-10058293D02*
X12142691Y-10096389D01*
X12142691Y-10096389D02*
X12133167Y-10115436D01*
X12133167Y-10115436D02*
X12123644Y-10124960D01*
X12123644Y-10124960D02*
X12104596Y-10134484D01*
X12104596Y-10134484D02*
X12085548Y-10134484D01*
X12085548Y-10134484D02*
X12066501Y-10124960D01*
X12066501Y-10124960D02*
X12056977Y-10115436D01*
X12056977Y-10115436D02*
X12047453Y-10096389D01*
X12047453Y-10096389D02*
X12037929Y-10058293D01*
X12037929Y-10058293D02*
X12037929Y-10010674D01*
X12037929Y-10010674D02*
X12047453Y-9972579D01*
X12047453Y-9972579D02*
X12056977Y-9953531D01*
X12056977Y-9953531D02*
X12066501Y-9944008D01*
X12066501Y-9944008D02*
X12085548Y-9934484D01*
X12342691Y-10134484D02*
X12228406Y-10134484D01*
X12285548Y-10134484D02*
X12285548Y-9934484D01*
X12285548Y-9934484D02*
X12266501Y-9963055D01*
X12266501Y-9963055D02*
X12247453Y-9982103D01*
X12247453Y-9982103D02*
X12228406Y-9991627D01*
X12523644Y-9934484D02*
X12428406Y-9934484D01*
X12428406Y-9934484D02*
X12418882Y-10029722D01*
X12418882Y-10029722D02*
X12428406Y-10020198D01*
X12428406Y-10020198D02*
X12447453Y-10010674D01*
X12447453Y-10010674D02*
X12495072Y-10010674D01*
X12495072Y-10010674D02*
X12514120Y-10020198D01*
X12514120Y-10020198D02*
X12523644Y-10029722D01*
X12523644Y-10029722D02*
X12533167Y-10048770D01*
X12533167Y-10048770D02*
X12533167Y-10096389D01*
X12533167Y-10096389D02*
X12523644Y-10115436D01*
X12523644Y-10115436D02*
X12514120Y-10124960D01*
X12514120Y-10124960D02*
X12495072Y-10134484D01*
X12495072Y-10134484D02*
X12447453Y-10134484D01*
X12447453Y-10134484D02*
X12428406Y-10124960D01*
X12428406Y-10124960D02*
X12418882Y-10115436D01*
X12599834Y-9934484D02*
X12733167Y-9934484D01*
X12733167Y-9934484D02*
X12647453Y-10134484D01*
X12799834Y-9934484D02*
X12799834Y-9972579D01*
X12876025Y-9934484D02*
X12876025Y-9972579D01*
X13171263Y-10210674D02*
X13161739Y-10201150D01*
X13161739Y-10201150D02*
X13142691Y-10172579D01*
X13142691Y-10172579D02*
X13133168Y-10153531D01*
X13133168Y-10153531D02*
X13123644Y-10124960D01*
X13123644Y-10124960D02*
X13114120Y-10077341D01*
X13114120Y-10077341D02*
X13114120Y-10039246D01*
X13114120Y-10039246D02*
X13123644Y-9991627D01*
X13123644Y-9991627D02*
X13133168Y-9963055D01*
X13133168Y-9963055D02*
X13142691Y-9944008D01*
X13142691Y-9944008D02*
X13161739Y-9915436D01*
X13161739Y-9915436D02*
X13171263Y-9905912D01*
X13352215Y-10134484D02*
X13237929Y-10134484D01*
X13295072Y-10134484D02*
X13295072Y-9934484D01*
X13295072Y-9934484D02*
X13276025Y-9963055D01*
X13276025Y-9963055D02*
X13256977Y-9982103D01*
X13256977Y-9982103D02*
X13237929Y-9991627D01*
X13476025Y-9934484D02*
X13495072Y-9934484D01*
X13495072Y-9934484D02*
X13514120Y-9944008D01*
X13514120Y-9944008D02*
X13523644Y-9953531D01*
X13523644Y-9953531D02*
X13533168Y-9972579D01*
X13533168Y-9972579D02*
X13542691Y-10010674D01*
X13542691Y-10010674D02*
X13542691Y-10058293D01*
X13542691Y-10058293D02*
X13533168Y-10096389D01*
X13533168Y-10096389D02*
X13523644Y-10115436D01*
X13523644Y-10115436D02*
X13514120Y-10124960D01*
X13514120Y-10124960D02*
X13495072Y-10134484D01*
X13495072Y-10134484D02*
X13476025Y-10134484D01*
X13476025Y-10134484D02*
X13456977Y-10124960D01*
X13456977Y-10124960D02*
X13447453Y-10115436D01*
X13447453Y-10115436D02*
X13437929Y-10096389D01*
X13437929Y-10096389D02*
X13428406Y-10058293D01*
X13428406Y-10058293D02*
X13428406Y-10010674D01*
X13428406Y-10010674D02*
X13437929Y-9972579D01*
X13437929Y-9972579D02*
X13447453Y-9953531D01*
X13447453Y-9953531D02*
X13456977Y-9944008D01*
X13456977Y-9944008D02*
X13476025Y-9934484D01*
X13609358Y-9934484D02*
X13742691Y-9934484D01*
X13742691Y-9934484D02*
X13656977Y-10134484D01*
X13971263Y-10134484D02*
X13971263Y-9934484D01*
X14056977Y-10134484D02*
X14056977Y-10029722D01*
X14056977Y-10029722D02*
X14047453Y-10010674D01*
X14047453Y-10010674D02*
X14028406Y-10001150D01*
X14028406Y-10001150D02*
X13999834Y-10001150D01*
X13999834Y-10001150D02*
X13980787Y-10010674D01*
X13980787Y-10010674D02*
X13971263Y-10020198D01*
X14180787Y-10134484D02*
X14161739Y-10124960D01*
X14161739Y-10124960D02*
X14152215Y-10115436D01*
X14152215Y-10115436D02*
X14142691Y-10096389D01*
X14142691Y-10096389D02*
X14142691Y-10039246D01*
X14142691Y-10039246D02*
X14152215Y-10020198D01*
X14152215Y-10020198D02*
X14161739Y-10010674D01*
X14161739Y-10010674D02*
X14180787Y-10001150D01*
X14180787Y-10001150D02*
X14209358Y-10001150D01*
X14209358Y-10001150D02*
X14228406Y-10010674D01*
X14228406Y-10010674D02*
X14237930Y-10020198D01*
X14237930Y-10020198D02*
X14247453Y-10039246D01*
X14247453Y-10039246D02*
X14247453Y-10096389D01*
X14247453Y-10096389D02*
X14237930Y-10115436D01*
X14237930Y-10115436D02*
X14228406Y-10124960D01*
X14228406Y-10124960D02*
X14209358Y-10134484D01*
X14209358Y-10134484D02*
X14180787Y-10134484D01*
X14361739Y-10134484D02*
X14342691Y-10124960D01*
X14342691Y-10124960D02*
X14333168Y-10105912D01*
X14333168Y-10105912D02*
X14333168Y-9934484D01*
X14514120Y-10124960D02*
X14495072Y-10134484D01*
X14495072Y-10134484D02*
X14456977Y-10134484D01*
X14456977Y-10134484D02*
X14437930Y-10124960D01*
X14437930Y-10124960D02*
X14428406Y-10105912D01*
X14428406Y-10105912D02*
X14428406Y-10029722D01*
X14428406Y-10029722D02*
X14437930Y-10010674D01*
X14437930Y-10010674D02*
X14456977Y-10001150D01*
X14456977Y-10001150D02*
X14495072Y-10001150D01*
X14495072Y-10001150D02*
X14514120Y-10010674D01*
X14514120Y-10010674D02*
X14523644Y-10029722D01*
X14523644Y-10029722D02*
X14523644Y-10048770D01*
X14523644Y-10048770D02*
X14428406Y-10067817D01*
X14599834Y-10124960D02*
X14618882Y-10134484D01*
X14618882Y-10134484D02*
X14656977Y-10134484D01*
X14656977Y-10134484D02*
X14676025Y-10124960D01*
X14676025Y-10124960D02*
X14685549Y-10105912D01*
X14685549Y-10105912D02*
X14685549Y-10096389D01*
X14685549Y-10096389D02*
X14676025Y-10077341D01*
X14676025Y-10077341D02*
X14656977Y-10067817D01*
X14656977Y-10067817D02*
X14628406Y-10067817D01*
X14628406Y-10067817D02*
X14609358Y-10058293D01*
X14609358Y-10058293D02*
X14599834Y-10039246D01*
X14599834Y-10039246D02*
X14599834Y-10029722D01*
X14599834Y-10029722D02*
X14609358Y-10010674D01*
X14609358Y-10010674D02*
X14628406Y-10001150D01*
X14628406Y-10001150D02*
X14656977Y-10001150D01*
X14656977Y-10001150D02*
X14676025Y-10010674D01*
X14752215Y-10210674D02*
X14761739Y-10201150D01*
X14761739Y-10201150D02*
X14780787Y-10172579D01*
X14780787Y-10172579D02*
X14790311Y-10153531D01*
X14790311Y-10153531D02*
X14799834Y-10124960D01*
X14799834Y-10124960D02*
X14809358Y-10077341D01*
X14809358Y-10077341D02*
X14809358Y-10039246D01*
X14809358Y-10039246D02*
X14799834Y-9991627D01*
X14799834Y-9991627D02*
X14790311Y-9963055D01*
X14790311Y-9963055D02*
X14780787Y-9944008D01*
X14780787Y-9944008D02*
X14761739Y-9915436D01*
X14761739Y-9915436D02*
X14752215Y-9905912D01*
D13*
X9596200Y-10307000D02*
G75*
G03*
X9596200Y-10307000I-32500J0D01*
G01*
D11*
X9895072Y-10198484D02*
X9914120Y-10198484D01*
X9914120Y-10198484D02*
X9933167Y-10208008D01*
X9933167Y-10208008D02*
X9942691Y-10217531D01*
X9942691Y-10217531D02*
X9952215Y-10236579D01*
X9952215Y-10236579D02*
X9961739Y-10274674D01*
X9961739Y-10274674D02*
X9961739Y-10322293D01*
X9961739Y-10322293D02*
X9952215Y-10360389D01*
X9952215Y-10360389D02*
X9942691Y-10379436D01*
X9942691Y-10379436D02*
X9933167Y-10388960D01*
X9933167Y-10388960D02*
X9914120Y-10398484D01*
X9914120Y-10398484D02*
X9895072Y-10398484D01*
X9895072Y-10398484D02*
X9876024Y-10388960D01*
X9876024Y-10388960D02*
X9866501Y-10379436D01*
X9866501Y-10379436D02*
X9856977Y-10360389D01*
X9856977Y-10360389D02*
X9847453Y-10322293D01*
X9847453Y-10322293D02*
X9847453Y-10274674D01*
X9847453Y-10274674D02*
X9856977Y-10236579D01*
X9856977Y-10236579D02*
X9866501Y-10217531D01*
X9866501Y-10217531D02*
X9876024Y-10208008D01*
X9876024Y-10208008D02*
X9895072Y-10198484D01*
X10047453Y-10379436D02*
X10056977Y-10388960D01*
X10056977Y-10388960D02*
X10047453Y-10398484D01*
X10047453Y-10398484D02*
X10037929Y-10388960D01*
X10037929Y-10388960D02*
X10047453Y-10379436D01*
X10047453Y-10379436D02*
X10047453Y-10398484D01*
X10228405Y-10198484D02*
X10190310Y-10198484D01*
X10190310Y-10198484D02*
X10171263Y-10208008D01*
X10171263Y-10208008D02*
X10161739Y-10217531D01*
X10161739Y-10217531D02*
X10142691Y-10246103D01*
X10142691Y-10246103D02*
X10133167Y-10284198D01*
X10133167Y-10284198D02*
X10133167Y-10360389D01*
X10133167Y-10360389D02*
X10142691Y-10379436D01*
X10142691Y-10379436D02*
X10152215Y-10388960D01*
X10152215Y-10388960D02*
X10171263Y-10398484D01*
X10171263Y-10398484D02*
X10209358Y-10398484D01*
X10209358Y-10398484D02*
X10228405Y-10388960D01*
X10228405Y-10388960D02*
X10237929Y-10379436D01*
X10237929Y-10379436D02*
X10247453Y-10360389D01*
X10247453Y-10360389D02*
X10247453Y-10312770D01*
X10247453Y-10312770D02*
X10237929Y-10293722D01*
X10237929Y-10293722D02*
X10228405Y-10284198D01*
X10228405Y-10284198D02*
X10209358Y-10274674D01*
X10209358Y-10274674D02*
X10171263Y-10274674D01*
X10171263Y-10274674D02*
X10152215Y-10284198D01*
X10152215Y-10284198D02*
X10142691Y-10293722D01*
X10142691Y-10293722D02*
X10133167Y-10312770D01*
X10428405Y-10198484D02*
X10333167Y-10198484D01*
X10333167Y-10198484D02*
X10323644Y-10293722D01*
X10323644Y-10293722D02*
X10333167Y-10284198D01*
X10333167Y-10284198D02*
X10352215Y-10274674D01*
X10352215Y-10274674D02*
X10399834Y-10274674D01*
X10399834Y-10274674D02*
X10418882Y-10284198D01*
X10418882Y-10284198D02*
X10428405Y-10293722D01*
X10428405Y-10293722D02*
X10437929Y-10312770D01*
X10437929Y-10312770D02*
X10437929Y-10360389D01*
X10437929Y-10360389D02*
X10428405Y-10379436D01*
X10428405Y-10379436D02*
X10418882Y-10388960D01*
X10418882Y-10388960D02*
X10399834Y-10398484D01*
X10399834Y-10398484D02*
X10352215Y-10398484D01*
X10352215Y-10398484D02*
X10333167Y-10388960D01*
X10333167Y-10388960D02*
X10323644Y-10379436D01*
X10561739Y-10198484D02*
X10580786Y-10198484D01*
X10580786Y-10198484D02*
X10599834Y-10208008D01*
X10599834Y-10208008D02*
X10609358Y-10217531D01*
X10609358Y-10217531D02*
X10618882Y-10236579D01*
X10618882Y-10236579D02*
X10628405Y-10274674D01*
X10628405Y-10274674D02*
X10628405Y-10322293D01*
X10628405Y-10322293D02*
X10618882Y-10360389D01*
X10618882Y-10360389D02*
X10609358Y-10379436D01*
X10609358Y-10379436D02*
X10599834Y-10388960D01*
X10599834Y-10388960D02*
X10580786Y-10398484D01*
X10580786Y-10398484D02*
X10561739Y-10398484D01*
X10561739Y-10398484D02*
X10542691Y-10388960D01*
X10542691Y-10388960D02*
X10533167Y-10379436D01*
X10533167Y-10379436D02*
X10523644Y-10360389D01*
X10523644Y-10360389D02*
X10514120Y-10322293D01*
X10514120Y-10322293D02*
X10514120Y-10274674D01*
X10514120Y-10274674D02*
X10523644Y-10236579D01*
X10523644Y-10236579D02*
X10533167Y-10217531D01*
X10533167Y-10217531D02*
X10542691Y-10208008D01*
X10542691Y-10208008D02*
X10561739Y-10198484D01*
X10714120Y-10398484D02*
X10714120Y-10265150D01*
X10714120Y-10284198D02*
X10723644Y-10274674D01*
X10723644Y-10274674D02*
X10742691Y-10265150D01*
X10742691Y-10265150D02*
X10771263Y-10265150D01*
X10771263Y-10265150D02*
X10790310Y-10274674D01*
X10790310Y-10274674D02*
X10799834Y-10293722D01*
X10799834Y-10293722D02*
X10799834Y-10398484D01*
X10799834Y-10293722D02*
X10809358Y-10274674D01*
X10809358Y-10274674D02*
X10828405Y-10265150D01*
X10828405Y-10265150D02*
X10856977Y-10265150D01*
X10856977Y-10265150D02*
X10876025Y-10274674D01*
X10876025Y-10274674D02*
X10885548Y-10293722D01*
X10885548Y-10293722D02*
X10885548Y-10398484D01*
X10980786Y-10398484D02*
X10980786Y-10265150D01*
X10980786Y-10284198D02*
X10990310Y-10274674D01*
X10990310Y-10274674D02*
X11009358Y-10265150D01*
X11009358Y-10265150D02*
X11037929Y-10265150D01*
X11037929Y-10265150D02*
X11056977Y-10274674D01*
X11056977Y-10274674D02*
X11066501Y-10293722D01*
X11066501Y-10293722D02*
X11066501Y-10398484D01*
X11066501Y-10293722D02*
X11076025Y-10274674D01*
X11076025Y-10274674D02*
X11095072Y-10265150D01*
X11095072Y-10265150D02*
X11123644Y-10265150D01*
X11123644Y-10265150D02*
X11142691Y-10274674D01*
X11142691Y-10274674D02*
X11152215Y-10293722D01*
X11152215Y-10293722D02*
X11152215Y-10398484D01*
X11542691Y-10188960D02*
X11371263Y-10446103D01*
X11799834Y-10198484D02*
X11818882Y-10198484D01*
X11818882Y-10198484D02*
X11837929Y-10208008D01*
X11837929Y-10208008D02*
X11847453Y-10217531D01*
X11847453Y-10217531D02*
X11856977Y-10236579D01*
X11856977Y-10236579D02*
X11866501Y-10274674D01*
X11866501Y-10274674D02*
X11866501Y-10322293D01*
X11866501Y-10322293D02*
X11856977Y-10360389D01*
X11856977Y-10360389D02*
X11847453Y-10379436D01*
X11847453Y-10379436D02*
X11837929Y-10388960D01*
X11837929Y-10388960D02*
X11818882Y-10398484D01*
X11818882Y-10398484D02*
X11799834Y-10398484D01*
X11799834Y-10398484D02*
X11780786Y-10388960D01*
X11780786Y-10388960D02*
X11771263Y-10379436D01*
X11771263Y-10379436D02*
X11761739Y-10360389D01*
X11761739Y-10360389D02*
X11752215Y-10322293D01*
X11752215Y-10322293D02*
X11752215Y-10274674D01*
X11752215Y-10274674D02*
X11761739Y-10236579D01*
X11761739Y-10236579D02*
X11771263Y-10217531D01*
X11771263Y-10217531D02*
X11780786Y-10208008D01*
X11780786Y-10208008D02*
X11799834Y-10198484D01*
X11952215Y-10379436D02*
X11961739Y-10388960D01*
X11961739Y-10388960D02*
X11952215Y-10398484D01*
X11952215Y-10398484D02*
X11942691Y-10388960D01*
X11942691Y-10388960D02*
X11952215Y-10379436D01*
X11952215Y-10379436D02*
X11952215Y-10398484D01*
X12085548Y-10198484D02*
X12104596Y-10198484D01*
X12104596Y-10198484D02*
X12123644Y-10208008D01*
X12123644Y-10208008D02*
X12133167Y-10217531D01*
X12133167Y-10217531D02*
X12142691Y-10236579D01*
X12142691Y-10236579D02*
X12152215Y-10274674D01*
X12152215Y-10274674D02*
X12152215Y-10322293D01*
X12152215Y-10322293D02*
X12142691Y-10360389D01*
X12142691Y-10360389D02*
X12133167Y-10379436D01*
X12133167Y-10379436D02*
X12123644Y-10388960D01*
X12123644Y-10388960D02*
X12104596Y-10398484D01*
X12104596Y-10398484D02*
X12085548Y-10398484D01*
X12085548Y-10398484D02*
X12066501Y-10388960D01*
X12066501Y-10388960D02*
X12056977Y-10379436D01*
X12056977Y-10379436D02*
X12047453Y-10360389D01*
X12047453Y-10360389D02*
X12037929Y-10322293D01*
X12037929Y-10322293D02*
X12037929Y-10274674D01*
X12037929Y-10274674D02*
X12047453Y-10236579D01*
X12047453Y-10236579D02*
X12056977Y-10217531D01*
X12056977Y-10217531D02*
X12066501Y-10208008D01*
X12066501Y-10208008D02*
X12085548Y-10198484D01*
X12228406Y-10217531D02*
X12237929Y-10208008D01*
X12237929Y-10208008D02*
X12256977Y-10198484D01*
X12256977Y-10198484D02*
X12304596Y-10198484D01*
X12304596Y-10198484D02*
X12323644Y-10208008D01*
X12323644Y-10208008D02*
X12333167Y-10217531D01*
X12333167Y-10217531D02*
X12342691Y-10236579D01*
X12342691Y-10236579D02*
X12342691Y-10255627D01*
X12342691Y-10255627D02*
X12333167Y-10284198D01*
X12333167Y-10284198D02*
X12218882Y-10398484D01*
X12218882Y-10398484D02*
X12342691Y-10398484D01*
X12523644Y-10198484D02*
X12428406Y-10198484D01*
X12428406Y-10198484D02*
X12418882Y-10293722D01*
X12418882Y-10293722D02*
X12428406Y-10284198D01*
X12428406Y-10284198D02*
X12447453Y-10274674D01*
X12447453Y-10274674D02*
X12495072Y-10274674D01*
X12495072Y-10274674D02*
X12514120Y-10284198D01*
X12514120Y-10284198D02*
X12523644Y-10293722D01*
X12523644Y-10293722D02*
X12533167Y-10312770D01*
X12533167Y-10312770D02*
X12533167Y-10360389D01*
X12533167Y-10360389D02*
X12523644Y-10379436D01*
X12523644Y-10379436D02*
X12514120Y-10388960D01*
X12514120Y-10388960D02*
X12495072Y-10398484D01*
X12495072Y-10398484D02*
X12447453Y-10398484D01*
X12447453Y-10398484D02*
X12428406Y-10388960D01*
X12428406Y-10388960D02*
X12418882Y-10379436D01*
X12704596Y-10198484D02*
X12666501Y-10198484D01*
X12666501Y-10198484D02*
X12647453Y-10208008D01*
X12647453Y-10208008D02*
X12637929Y-10217531D01*
X12637929Y-10217531D02*
X12618882Y-10246103D01*
X12618882Y-10246103D02*
X12609358Y-10284198D01*
X12609358Y-10284198D02*
X12609358Y-10360389D01*
X12609358Y-10360389D02*
X12618882Y-10379436D01*
X12618882Y-10379436D02*
X12628406Y-10388960D01*
X12628406Y-10388960D02*
X12647453Y-10398484D01*
X12647453Y-10398484D02*
X12685548Y-10398484D01*
X12685548Y-10398484D02*
X12704596Y-10388960D01*
X12704596Y-10388960D02*
X12714120Y-10379436D01*
X12714120Y-10379436D02*
X12723644Y-10360389D01*
X12723644Y-10360389D02*
X12723644Y-10312770D01*
X12723644Y-10312770D02*
X12714120Y-10293722D01*
X12714120Y-10293722D02*
X12704596Y-10284198D01*
X12704596Y-10284198D02*
X12685548Y-10274674D01*
X12685548Y-10274674D02*
X12647453Y-10274674D01*
X12647453Y-10274674D02*
X12628406Y-10284198D01*
X12628406Y-10284198D02*
X12618882Y-10293722D01*
X12618882Y-10293722D02*
X12609358Y-10312770D01*
X12799834Y-10198484D02*
X12799834Y-10236579D01*
X12876025Y-10198484D02*
X12876025Y-10236579D01*
X13171263Y-10474674D02*
X13161739Y-10465150D01*
X13161739Y-10465150D02*
X13142691Y-10436579D01*
X13142691Y-10436579D02*
X13133168Y-10417531D01*
X13133168Y-10417531D02*
X13123644Y-10388960D01*
X13123644Y-10388960D02*
X13114120Y-10341341D01*
X13114120Y-10341341D02*
X13114120Y-10303246D01*
X13114120Y-10303246D02*
X13123644Y-10255627D01*
X13123644Y-10255627D02*
X13133168Y-10227055D01*
X13133168Y-10227055D02*
X13142691Y-10208008D01*
X13142691Y-10208008D02*
X13161739Y-10179436D01*
X13161739Y-10179436D02*
X13171263Y-10169912D01*
X13237929Y-10217531D02*
X13247453Y-10208008D01*
X13247453Y-10208008D02*
X13266501Y-10198484D01*
X13266501Y-10198484D02*
X13314120Y-10198484D01*
X13314120Y-10198484D02*
X13333168Y-10208008D01*
X13333168Y-10208008D02*
X13342691Y-10217531D01*
X13342691Y-10217531D02*
X13352215Y-10236579D01*
X13352215Y-10236579D02*
X13352215Y-10255627D01*
X13352215Y-10255627D02*
X13342691Y-10284198D01*
X13342691Y-10284198D02*
X13228406Y-10398484D01*
X13228406Y-10398484D02*
X13352215Y-10398484D01*
X13466501Y-10284198D02*
X13447453Y-10274674D01*
X13447453Y-10274674D02*
X13437929Y-10265150D01*
X13437929Y-10265150D02*
X13428406Y-10246103D01*
X13428406Y-10246103D02*
X13428406Y-10236579D01*
X13428406Y-10236579D02*
X13437929Y-10217531D01*
X13437929Y-10217531D02*
X13447453Y-10208008D01*
X13447453Y-10208008D02*
X13466501Y-10198484D01*
X13466501Y-10198484D02*
X13504596Y-10198484D01*
X13504596Y-10198484D02*
X13523644Y-10208008D01*
X13523644Y-10208008D02*
X13533168Y-10217531D01*
X13533168Y-10217531D02*
X13542691Y-10236579D01*
X13542691Y-10236579D02*
X13542691Y-10246103D01*
X13542691Y-10246103D02*
X13533168Y-10265150D01*
X13533168Y-10265150D02*
X13523644Y-10274674D01*
X13523644Y-10274674D02*
X13504596Y-10284198D01*
X13504596Y-10284198D02*
X13466501Y-10284198D01*
X13466501Y-10284198D02*
X13447453Y-10293722D01*
X13447453Y-10293722D02*
X13437929Y-10303246D01*
X13437929Y-10303246D02*
X13428406Y-10322293D01*
X13428406Y-10322293D02*
X13428406Y-10360389D01*
X13428406Y-10360389D02*
X13437929Y-10379436D01*
X13437929Y-10379436D02*
X13447453Y-10388960D01*
X13447453Y-10388960D02*
X13466501Y-10398484D01*
X13466501Y-10398484D02*
X13504596Y-10398484D01*
X13504596Y-10398484D02*
X13523644Y-10388960D01*
X13523644Y-10388960D02*
X13533168Y-10379436D01*
X13533168Y-10379436D02*
X13542691Y-10360389D01*
X13542691Y-10360389D02*
X13542691Y-10322293D01*
X13542691Y-10322293D02*
X13533168Y-10303246D01*
X13533168Y-10303246D02*
X13523644Y-10293722D01*
X13523644Y-10293722D02*
X13504596Y-10284198D01*
X13780787Y-10398484D02*
X13780787Y-10198484D01*
X13866501Y-10398484D02*
X13866501Y-10293722D01*
X13866501Y-10293722D02*
X13856977Y-10274674D01*
X13856977Y-10274674D02*
X13837930Y-10265150D01*
X13837930Y-10265150D02*
X13809358Y-10265150D01*
X13809358Y-10265150D02*
X13790310Y-10274674D01*
X13790310Y-10274674D02*
X13780787Y-10284198D01*
X13990310Y-10398484D02*
X13971263Y-10388960D01*
X13971263Y-10388960D02*
X13961739Y-10379436D01*
X13961739Y-10379436D02*
X13952215Y-10360389D01*
X13952215Y-10360389D02*
X13952215Y-10303246D01*
X13952215Y-10303246D02*
X13961739Y-10284198D01*
X13961739Y-10284198D02*
X13971263Y-10274674D01*
X13971263Y-10274674D02*
X13990310Y-10265150D01*
X13990310Y-10265150D02*
X14018882Y-10265150D01*
X14018882Y-10265150D02*
X14037930Y-10274674D01*
X14037930Y-10274674D02*
X14047453Y-10284198D01*
X14047453Y-10284198D02*
X14056977Y-10303246D01*
X14056977Y-10303246D02*
X14056977Y-10360389D01*
X14056977Y-10360389D02*
X14047453Y-10379436D01*
X14047453Y-10379436D02*
X14037930Y-10388960D01*
X14037930Y-10388960D02*
X14018882Y-10398484D01*
X14018882Y-10398484D02*
X13990310Y-10398484D01*
X14171263Y-10398484D02*
X14152215Y-10388960D01*
X14152215Y-10388960D02*
X14142691Y-10369912D01*
X14142691Y-10369912D02*
X14142691Y-10198484D01*
X14323644Y-10388960D02*
X14304596Y-10398484D01*
X14304596Y-10398484D02*
X14266501Y-10398484D01*
X14266501Y-10398484D02*
X14247453Y-10388960D01*
X14247453Y-10388960D02*
X14237930Y-10369912D01*
X14237930Y-10369912D02*
X14237930Y-10293722D01*
X14237930Y-10293722D02*
X14247453Y-10274674D01*
X14247453Y-10274674D02*
X14266501Y-10265150D01*
X14266501Y-10265150D02*
X14304596Y-10265150D01*
X14304596Y-10265150D02*
X14323644Y-10274674D01*
X14323644Y-10274674D02*
X14333168Y-10293722D01*
X14333168Y-10293722D02*
X14333168Y-10312770D01*
X14333168Y-10312770D02*
X14237930Y-10331817D01*
X14409358Y-10388960D02*
X14428406Y-10398484D01*
X14428406Y-10398484D02*
X14466501Y-10398484D01*
X14466501Y-10398484D02*
X14485549Y-10388960D01*
X14485549Y-10388960D02*
X14495072Y-10369912D01*
X14495072Y-10369912D02*
X14495072Y-10360389D01*
X14495072Y-10360389D02*
X14485549Y-10341341D01*
X14485549Y-10341341D02*
X14466501Y-10331817D01*
X14466501Y-10331817D02*
X14437930Y-10331817D01*
X14437930Y-10331817D02*
X14418882Y-10322293D01*
X14418882Y-10322293D02*
X14409358Y-10303246D01*
X14409358Y-10303246D02*
X14409358Y-10293722D01*
X14409358Y-10293722D02*
X14418882Y-10274674D01*
X14418882Y-10274674D02*
X14437930Y-10265150D01*
X14437930Y-10265150D02*
X14466501Y-10265150D01*
X14466501Y-10265150D02*
X14485549Y-10274674D01*
X14561739Y-10474674D02*
X14571263Y-10465150D01*
X14571263Y-10465150D02*
X14590311Y-10436579D01*
X14590311Y-10436579D02*
X14599834Y-10417531D01*
X14599834Y-10417531D02*
X14609358Y-10388960D01*
X14609358Y-10388960D02*
X14618882Y-10341341D01*
X14618882Y-10341341D02*
X14618882Y-10303246D01*
X14618882Y-10303246D02*
X14609358Y-10255627D01*
X14609358Y-10255627D02*
X14599834Y-10227055D01*
X14599834Y-10227055D02*
X14590311Y-10208008D01*
X14590311Y-10208008D02*
X14571263Y-10179436D01*
X14571263Y-10179436D02*
X14561739Y-10169912D01*
D14*
X9556200Y-10531000D02*
X9556200Y-10611000D01*
X9516200Y-10571000D02*
X9596200Y-10571000D01*
D11*
X9895072Y-10462484D02*
X9914120Y-10462484D01*
X9914120Y-10462484D02*
X9933167Y-10472008D01*
X9933167Y-10472008D02*
X9942691Y-10481531D01*
X9942691Y-10481531D02*
X9952215Y-10500579D01*
X9952215Y-10500579D02*
X9961739Y-10538674D01*
X9961739Y-10538674D02*
X9961739Y-10586293D01*
X9961739Y-10586293D02*
X9952215Y-10624389D01*
X9952215Y-10624389D02*
X9942691Y-10643436D01*
X9942691Y-10643436D02*
X9933167Y-10652960D01*
X9933167Y-10652960D02*
X9914120Y-10662484D01*
X9914120Y-10662484D02*
X9895072Y-10662484D01*
X9895072Y-10662484D02*
X9876024Y-10652960D01*
X9876024Y-10652960D02*
X9866501Y-10643436D01*
X9866501Y-10643436D02*
X9856977Y-10624389D01*
X9856977Y-10624389D02*
X9847453Y-10586293D01*
X9847453Y-10586293D02*
X9847453Y-10538674D01*
X9847453Y-10538674D02*
X9856977Y-10500579D01*
X9856977Y-10500579D02*
X9866501Y-10481531D01*
X9866501Y-10481531D02*
X9876024Y-10472008D01*
X9876024Y-10472008D02*
X9895072Y-10462484D01*
X10047453Y-10643436D02*
X10056977Y-10652960D01*
X10056977Y-10652960D02*
X10047453Y-10662484D01*
X10047453Y-10662484D02*
X10037929Y-10652960D01*
X10037929Y-10652960D02*
X10047453Y-10643436D01*
X10047453Y-10643436D02*
X10047453Y-10662484D01*
X10171263Y-10548198D02*
X10152215Y-10538674D01*
X10152215Y-10538674D02*
X10142691Y-10529150D01*
X10142691Y-10529150D02*
X10133167Y-10510103D01*
X10133167Y-10510103D02*
X10133167Y-10500579D01*
X10133167Y-10500579D02*
X10142691Y-10481531D01*
X10142691Y-10481531D02*
X10152215Y-10472008D01*
X10152215Y-10472008D02*
X10171263Y-10462484D01*
X10171263Y-10462484D02*
X10209358Y-10462484D01*
X10209358Y-10462484D02*
X10228405Y-10472008D01*
X10228405Y-10472008D02*
X10237929Y-10481531D01*
X10237929Y-10481531D02*
X10247453Y-10500579D01*
X10247453Y-10500579D02*
X10247453Y-10510103D01*
X10247453Y-10510103D02*
X10237929Y-10529150D01*
X10237929Y-10529150D02*
X10228405Y-10538674D01*
X10228405Y-10538674D02*
X10209358Y-10548198D01*
X10209358Y-10548198D02*
X10171263Y-10548198D01*
X10171263Y-10548198D02*
X10152215Y-10557722D01*
X10152215Y-10557722D02*
X10142691Y-10567246D01*
X10142691Y-10567246D02*
X10133167Y-10586293D01*
X10133167Y-10586293D02*
X10133167Y-10624389D01*
X10133167Y-10624389D02*
X10142691Y-10643436D01*
X10142691Y-10643436D02*
X10152215Y-10652960D01*
X10152215Y-10652960D02*
X10171263Y-10662484D01*
X10171263Y-10662484D02*
X10209358Y-10662484D01*
X10209358Y-10662484D02*
X10228405Y-10652960D01*
X10228405Y-10652960D02*
X10237929Y-10643436D01*
X10237929Y-10643436D02*
X10247453Y-10624389D01*
X10247453Y-10624389D02*
X10247453Y-10586293D01*
X10247453Y-10586293D02*
X10237929Y-10567246D01*
X10237929Y-10567246D02*
X10228405Y-10557722D01*
X10228405Y-10557722D02*
X10209358Y-10548198D01*
X10371263Y-10462484D02*
X10390310Y-10462484D01*
X10390310Y-10462484D02*
X10409358Y-10472008D01*
X10409358Y-10472008D02*
X10418882Y-10481531D01*
X10418882Y-10481531D02*
X10428405Y-10500579D01*
X10428405Y-10500579D02*
X10437929Y-10538674D01*
X10437929Y-10538674D02*
X10437929Y-10586293D01*
X10437929Y-10586293D02*
X10428405Y-10624389D01*
X10428405Y-10624389D02*
X10418882Y-10643436D01*
X10418882Y-10643436D02*
X10409358Y-10652960D01*
X10409358Y-10652960D02*
X10390310Y-10662484D01*
X10390310Y-10662484D02*
X10371263Y-10662484D01*
X10371263Y-10662484D02*
X10352215Y-10652960D01*
X10352215Y-10652960D02*
X10342691Y-10643436D01*
X10342691Y-10643436D02*
X10333167Y-10624389D01*
X10333167Y-10624389D02*
X10323644Y-10586293D01*
X10323644Y-10586293D02*
X10323644Y-10538674D01*
X10323644Y-10538674D02*
X10333167Y-10500579D01*
X10333167Y-10500579D02*
X10342691Y-10481531D01*
X10342691Y-10481531D02*
X10352215Y-10472008D01*
X10352215Y-10472008D02*
X10371263Y-10462484D01*
X10561739Y-10462484D02*
X10580786Y-10462484D01*
X10580786Y-10462484D02*
X10599834Y-10472008D01*
X10599834Y-10472008D02*
X10609358Y-10481531D01*
X10609358Y-10481531D02*
X10618882Y-10500579D01*
X10618882Y-10500579D02*
X10628405Y-10538674D01*
X10628405Y-10538674D02*
X10628405Y-10586293D01*
X10628405Y-10586293D02*
X10618882Y-10624389D01*
X10618882Y-10624389D02*
X10609358Y-10643436D01*
X10609358Y-10643436D02*
X10599834Y-10652960D01*
X10599834Y-10652960D02*
X10580786Y-10662484D01*
X10580786Y-10662484D02*
X10561739Y-10662484D01*
X10561739Y-10662484D02*
X10542691Y-10652960D01*
X10542691Y-10652960D02*
X10533167Y-10643436D01*
X10533167Y-10643436D02*
X10523644Y-10624389D01*
X10523644Y-10624389D02*
X10514120Y-10586293D01*
X10514120Y-10586293D02*
X10514120Y-10538674D01*
X10514120Y-10538674D02*
X10523644Y-10500579D01*
X10523644Y-10500579D02*
X10533167Y-10481531D01*
X10533167Y-10481531D02*
X10542691Y-10472008D01*
X10542691Y-10472008D02*
X10561739Y-10462484D01*
X10714120Y-10662484D02*
X10714120Y-10529150D01*
X10714120Y-10548198D02*
X10723644Y-10538674D01*
X10723644Y-10538674D02*
X10742691Y-10529150D01*
X10742691Y-10529150D02*
X10771263Y-10529150D01*
X10771263Y-10529150D02*
X10790310Y-10538674D01*
X10790310Y-10538674D02*
X10799834Y-10557722D01*
X10799834Y-10557722D02*
X10799834Y-10662484D01*
X10799834Y-10557722D02*
X10809358Y-10538674D01*
X10809358Y-10538674D02*
X10828405Y-10529150D01*
X10828405Y-10529150D02*
X10856977Y-10529150D01*
X10856977Y-10529150D02*
X10876025Y-10538674D01*
X10876025Y-10538674D02*
X10885548Y-10557722D01*
X10885548Y-10557722D02*
X10885548Y-10662484D01*
X10980786Y-10662484D02*
X10980786Y-10529150D01*
X10980786Y-10548198D02*
X10990310Y-10538674D01*
X10990310Y-10538674D02*
X11009358Y-10529150D01*
X11009358Y-10529150D02*
X11037929Y-10529150D01*
X11037929Y-10529150D02*
X11056977Y-10538674D01*
X11056977Y-10538674D02*
X11066501Y-10557722D01*
X11066501Y-10557722D02*
X11066501Y-10662484D01*
X11066501Y-10557722D02*
X11076025Y-10538674D01*
X11076025Y-10538674D02*
X11095072Y-10529150D01*
X11095072Y-10529150D02*
X11123644Y-10529150D01*
X11123644Y-10529150D02*
X11142691Y-10538674D01*
X11142691Y-10538674D02*
X11152215Y-10557722D01*
X11152215Y-10557722D02*
X11152215Y-10662484D01*
X11542691Y-10452960D02*
X11371263Y-10710103D01*
X11799834Y-10462484D02*
X11818882Y-10462484D01*
X11818882Y-10462484D02*
X11837929Y-10472008D01*
X11837929Y-10472008D02*
X11847453Y-10481531D01*
X11847453Y-10481531D02*
X11856977Y-10500579D01*
X11856977Y-10500579D02*
X11866501Y-10538674D01*
X11866501Y-10538674D02*
X11866501Y-10586293D01*
X11866501Y-10586293D02*
X11856977Y-10624389D01*
X11856977Y-10624389D02*
X11847453Y-10643436D01*
X11847453Y-10643436D02*
X11837929Y-10652960D01*
X11837929Y-10652960D02*
X11818882Y-10662484D01*
X11818882Y-10662484D02*
X11799834Y-10662484D01*
X11799834Y-10662484D02*
X11780786Y-10652960D01*
X11780786Y-10652960D02*
X11771263Y-10643436D01*
X11771263Y-10643436D02*
X11761739Y-10624389D01*
X11761739Y-10624389D02*
X11752215Y-10586293D01*
X11752215Y-10586293D02*
X11752215Y-10538674D01*
X11752215Y-10538674D02*
X11761739Y-10500579D01*
X11761739Y-10500579D02*
X11771263Y-10481531D01*
X11771263Y-10481531D02*
X11780786Y-10472008D01*
X11780786Y-10472008D02*
X11799834Y-10462484D01*
X11952215Y-10643436D02*
X11961739Y-10652960D01*
X11961739Y-10652960D02*
X11952215Y-10662484D01*
X11952215Y-10662484D02*
X11942691Y-10652960D01*
X11942691Y-10652960D02*
X11952215Y-10643436D01*
X11952215Y-10643436D02*
X11952215Y-10662484D01*
X12085548Y-10462484D02*
X12104596Y-10462484D01*
X12104596Y-10462484D02*
X12123644Y-10472008D01*
X12123644Y-10472008D02*
X12133167Y-10481531D01*
X12133167Y-10481531D02*
X12142691Y-10500579D01*
X12142691Y-10500579D02*
X12152215Y-10538674D01*
X12152215Y-10538674D02*
X12152215Y-10586293D01*
X12152215Y-10586293D02*
X12142691Y-10624389D01*
X12142691Y-10624389D02*
X12133167Y-10643436D01*
X12133167Y-10643436D02*
X12123644Y-10652960D01*
X12123644Y-10652960D02*
X12104596Y-10662484D01*
X12104596Y-10662484D02*
X12085548Y-10662484D01*
X12085548Y-10662484D02*
X12066501Y-10652960D01*
X12066501Y-10652960D02*
X12056977Y-10643436D01*
X12056977Y-10643436D02*
X12047453Y-10624389D01*
X12047453Y-10624389D02*
X12037929Y-10586293D01*
X12037929Y-10586293D02*
X12037929Y-10538674D01*
X12037929Y-10538674D02*
X12047453Y-10500579D01*
X12047453Y-10500579D02*
X12056977Y-10481531D01*
X12056977Y-10481531D02*
X12066501Y-10472008D01*
X12066501Y-10472008D02*
X12085548Y-10462484D01*
X12218882Y-10462484D02*
X12342691Y-10462484D01*
X12342691Y-10462484D02*
X12276025Y-10538674D01*
X12276025Y-10538674D02*
X12304596Y-10538674D01*
X12304596Y-10538674D02*
X12323644Y-10548198D01*
X12323644Y-10548198D02*
X12333167Y-10557722D01*
X12333167Y-10557722D02*
X12342691Y-10576770D01*
X12342691Y-10576770D02*
X12342691Y-10624389D01*
X12342691Y-10624389D02*
X12333167Y-10643436D01*
X12333167Y-10643436D02*
X12323644Y-10652960D01*
X12323644Y-10652960D02*
X12304596Y-10662484D01*
X12304596Y-10662484D02*
X12247453Y-10662484D01*
X12247453Y-10662484D02*
X12228406Y-10652960D01*
X12228406Y-10652960D02*
X12218882Y-10643436D01*
X12533167Y-10662484D02*
X12418882Y-10662484D01*
X12476025Y-10662484D02*
X12476025Y-10462484D01*
X12476025Y-10462484D02*
X12456977Y-10491055D01*
X12456977Y-10491055D02*
X12437929Y-10510103D01*
X12437929Y-10510103D02*
X12418882Y-10519627D01*
X12714120Y-10462484D02*
X12618882Y-10462484D01*
X12618882Y-10462484D02*
X12609358Y-10557722D01*
X12609358Y-10557722D02*
X12618882Y-10548198D01*
X12618882Y-10548198D02*
X12637929Y-10538674D01*
X12637929Y-10538674D02*
X12685548Y-10538674D01*
X12685548Y-10538674D02*
X12704596Y-10548198D01*
X12704596Y-10548198D02*
X12714120Y-10557722D01*
X12714120Y-10557722D02*
X12723644Y-10576770D01*
X12723644Y-10576770D02*
X12723644Y-10624389D01*
X12723644Y-10624389D02*
X12714120Y-10643436D01*
X12714120Y-10643436D02*
X12704596Y-10652960D01*
X12704596Y-10652960D02*
X12685548Y-10662484D01*
X12685548Y-10662484D02*
X12637929Y-10662484D01*
X12637929Y-10662484D02*
X12618882Y-10652960D01*
X12618882Y-10652960D02*
X12609358Y-10643436D01*
X12799834Y-10462484D02*
X12799834Y-10500579D01*
X12876025Y-10462484D02*
X12876025Y-10500579D01*
X13171263Y-10738674D02*
X13161739Y-10729150D01*
X13161739Y-10729150D02*
X13142691Y-10700579D01*
X13142691Y-10700579D02*
X13133168Y-10681531D01*
X13133168Y-10681531D02*
X13123644Y-10652960D01*
X13123644Y-10652960D02*
X13114120Y-10605341D01*
X13114120Y-10605341D02*
X13114120Y-10567246D01*
X13114120Y-10567246D02*
X13123644Y-10519627D01*
X13123644Y-10519627D02*
X13133168Y-10491055D01*
X13133168Y-10491055D02*
X13142691Y-10472008D01*
X13142691Y-10472008D02*
X13161739Y-10443436D01*
X13161739Y-10443436D02*
X13171263Y-10433912D01*
X13342691Y-10462484D02*
X13247453Y-10462484D01*
X13247453Y-10462484D02*
X13237929Y-10557722D01*
X13237929Y-10557722D02*
X13247453Y-10548198D01*
X13247453Y-10548198D02*
X13266501Y-10538674D01*
X13266501Y-10538674D02*
X13314120Y-10538674D01*
X13314120Y-10538674D02*
X13333168Y-10548198D01*
X13333168Y-10548198D02*
X13342691Y-10557722D01*
X13342691Y-10557722D02*
X13352215Y-10576770D01*
X13352215Y-10576770D02*
X13352215Y-10624389D01*
X13352215Y-10624389D02*
X13342691Y-10643436D01*
X13342691Y-10643436D02*
X13333168Y-10652960D01*
X13333168Y-10652960D02*
X13314120Y-10662484D01*
X13314120Y-10662484D02*
X13266501Y-10662484D01*
X13266501Y-10662484D02*
X13247453Y-10652960D01*
X13247453Y-10652960D02*
X13237929Y-10643436D01*
X13590310Y-10662484D02*
X13590310Y-10462484D01*
X13676025Y-10662484D02*
X13676025Y-10557722D01*
X13676025Y-10557722D02*
X13666501Y-10538674D01*
X13666501Y-10538674D02*
X13647453Y-10529150D01*
X13647453Y-10529150D02*
X13618882Y-10529150D01*
X13618882Y-10529150D02*
X13599834Y-10538674D01*
X13599834Y-10538674D02*
X13590310Y-10548198D01*
X13799834Y-10662484D02*
X13780787Y-10652960D01*
X13780787Y-10652960D02*
X13771263Y-10643436D01*
X13771263Y-10643436D02*
X13761739Y-10624389D01*
X13761739Y-10624389D02*
X13761739Y-10567246D01*
X13761739Y-10567246D02*
X13771263Y-10548198D01*
X13771263Y-10548198D02*
X13780787Y-10538674D01*
X13780787Y-10538674D02*
X13799834Y-10529150D01*
X13799834Y-10529150D02*
X13828406Y-10529150D01*
X13828406Y-10529150D02*
X13847453Y-10538674D01*
X13847453Y-10538674D02*
X13856977Y-10548198D01*
X13856977Y-10548198D02*
X13866501Y-10567246D01*
X13866501Y-10567246D02*
X13866501Y-10624389D01*
X13866501Y-10624389D02*
X13856977Y-10643436D01*
X13856977Y-10643436D02*
X13847453Y-10652960D01*
X13847453Y-10652960D02*
X13828406Y-10662484D01*
X13828406Y-10662484D02*
X13799834Y-10662484D01*
X13980787Y-10662484D02*
X13961739Y-10652960D01*
X13961739Y-10652960D02*
X13952215Y-10633912D01*
X13952215Y-10633912D02*
X13952215Y-10462484D01*
X14133168Y-10652960D02*
X14114120Y-10662484D01*
X14114120Y-10662484D02*
X14076025Y-10662484D01*
X14076025Y-10662484D02*
X14056977Y-10652960D01*
X14056977Y-10652960D02*
X14047453Y-10633912D01*
X14047453Y-10633912D02*
X14047453Y-10557722D01*
X14047453Y-10557722D02*
X14056977Y-10538674D01*
X14056977Y-10538674D02*
X14076025Y-10529150D01*
X14076025Y-10529150D02*
X14114120Y-10529150D01*
X14114120Y-10529150D02*
X14133168Y-10538674D01*
X14133168Y-10538674D02*
X14142691Y-10557722D01*
X14142691Y-10557722D02*
X14142691Y-10576770D01*
X14142691Y-10576770D02*
X14047453Y-10595817D01*
X14218882Y-10652960D02*
X14237930Y-10662484D01*
X14237930Y-10662484D02*
X14276025Y-10662484D01*
X14276025Y-10662484D02*
X14295072Y-10652960D01*
X14295072Y-10652960D02*
X14304596Y-10633912D01*
X14304596Y-10633912D02*
X14304596Y-10624389D01*
X14304596Y-10624389D02*
X14295072Y-10605341D01*
X14295072Y-10605341D02*
X14276025Y-10595817D01*
X14276025Y-10595817D02*
X14247453Y-10595817D01*
X14247453Y-10595817D02*
X14228406Y-10586293D01*
X14228406Y-10586293D02*
X14218882Y-10567246D01*
X14218882Y-10567246D02*
X14218882Y-10557722D01*
X14218882Y-10557722D02*
X14228406Y-10538674D01*
X14228406Y-10538674D02*
X14247453Y-10529150D01*
X14247453Y-10529150D02*
X14276025Y-10529150D01*
X14276025Y-10529150D02*
X14295072Y-10538674D01*
X14371263Y-10738674D02*
X14380787Y-10729150D01*
X14380787Y-10729150D02*
X14399834Y-10700579D01*
X14399834Y-10700579D02*
X14409358Y-10681531D01*
X14409358Y-10681531D02*
X14418882Y-10652960D01*
X14418882Y-10652960D02*
X14428406Y-10605341D01*
X14428406Y-10605341D02*
X14428406Y-10567246D01*
X14428406Y-10567246D02*
X14418882Y-10519627D01*
X14418882Y-10519627D02*
X14409358Y-10491055D01*
X14409358Y-10491055D02*
X14399834Y-10472008D01*
X14399834Y-10472008D02*
X14380787Y-10443436D01*
X14380787Y-10443436D02*
X14371263Y-10433912D01*
D10*
X9581556Y-10870356D02*
X9581556Y-10799644D01*
X9510844Y-10799644D01*
X9510844Y-10870356D01*
X9581556Y-10870356D01*
D11*
X9961739Y-10926484D02*
X9847453Y-10926484D01*
X9904596Y-10926484D02*
X9904596Y-10726484D01*
X9904596Y-10726484D02*
X9885548Y-10755055D01*
X9885548Y-10755055D02*
X9866501Y-10774103D01*
X9866501Y-10774103D02*
X9847453Y-10783627D01*
X10047453Y-10907436D02*
X10056977Y-10916960D01*
X10056977Y-10916960D02*
X10047453Y-10926484D01*
X10047453Y-10926484D02*
X10037929Y-10916960D01*
X10037929Y-10916960D02*
X10047453Y-10907436D01*
X10047453Y-10907436D02*
X10047453Y-10926484D01*
X10180786Y-10726484D02*
X10199834Y-10726484D01*
X10199834Y-10726484D02*
X10218882Y-10736008D01*
X10218882Y-10736008D02*
X10228405Y-10745531D01*
X10228405Y-10745531D02*
X10237929Y-10764579D01*
X10237929Y-10764579D02*
X10247453Y-10802674D01*
X10247453Y-10802674D02*
X10247453Y-10850293D01*
X10247453Y-10850293D02*
X10237929Y-10888389D01*
X10237929Y-10888389D02*
X10228405Y-10907436D01*
X10228405Y-10907436D02*
X10218882Y-10916960D01*
X10218882Y-10916960D02*
X10199834Y-10926484D01*
X10199834Y-10926484D02*
X10180786Y-10926484D01*
X10180786Y-10926484D02*
X10161739Y-10916960D01*
X10161739Y-10916960D02*
X10152215Y-10907436D01*
X10152215Y-10907436D02*
X10142691Y-10888389D01*
X10142691Y-10888389D02*
X10133167Y-10850293D01*
X10133167Y-10850293D02*
X10133167Y-10802674D01*
X10133167Y-10802674D02*
X10142691Y-10764579D01*
X10142691Y-10764579D02*
X10152215Y-10745531D01*
X10152215Y-10745531D02*
X10161739Y-10736008D01*
X10161739Y-10736008D02*
X10180786Y-10726484D01*
X10371263Y-10726484D02*
X10390310Y-10726484D01*
X10390310Y-10726484D02*
X10409358Y-10736008D01*
X10409358Y-10736008D02*
X10418882Y-10745531D01*
X10418882Y-10745531D02*
X10428405Y-10764579D01*
X10428405Y-10764579D02*
X10437929Y-10802674D01*
X10437929Y-10802674D02*
X10437929Y-10850293D01*
X10437929Y-10850293D02*
X10428405Y-10888389D01*
X10428405Y-10888389D02*
X10418882Y-10907436D01*
X10418882Y-10907436D02*
X10409358Y-10916960D01*
X10409358Y-10916960D02*
X10390310Y-10926484D01*
X10390310Y-10926484D02*
X10371263Y-10926484D01*
X10371263Y-10926484D02*
X10352215Y-10916960D01*
X10352215Y-10916960D02*
X10342691Y-10907436D01*
X10342691Y-10907436D02*
X10333167Y-10888389D01*
X10333167Y-10888389D02*
X10323644Y-10850293D01*
X10323644Y-10850293D02*
X10323644Y-10802674D01*
X10323644Y-10802674D02*
X10333167Y-10764579D01*
X10333167Y-10764579D02*
X10342691Y-10745531D01*
X10342691Y-10745531D02*
X10352215Y-10736008D01*
X10352215Y-10736008D02*
X10371263Y-10726484D01*
X10561739Y-10726484D02*
X10580786Y-10726484D01*
X10580786Y-10726484D02*
X10599834Y-10736008D01*
X10599834Y-10736008D02*
X10609358Y-10745531D01*
X10609358Y-10745531D02*
X10618882Y-10764579D01*
X10618882Y-10764579D02*
X10628405Y-10802674D01*
X10628405Y-10802674D02*
X10628405Y-10850293D01*
X10628405Y-10850293D02*
X10618882Y-10888389D01*
X10618882Y-10888389D02*
X10609358Y-10907436D01*
X10609358Y-10907436D02*
X10599834Y-10916960D01*
X10599834Y-10916960D02*
X10580786Y-10926484D01*
X10580786Y-10926484D02*
X10561739Y-10926484D01*
X10561739Y-10926484D02*
X10542691Y-10916960D01*
X10542691Y-10916960D02*
X10533167Y-10907436D01*
X10533167Y-10907436D02*
X10523644Y-10888389D01*
X10523644Y-10888389D02*
X10514120Y-10850293D01*
X10514120Y-10850293D02*
X10514120Y-10802674D01*
X10514120Y-10802674D02*
X10523644Y-10764579D01*
X10523644Y-10764579D02*
X10533167Y-10745531D01*
X10533167Y-10745531D02*
X10542691Y-10736008D01*
X10542691Y-10736008D02*
X10561739Y-10726484D01*
X10714120Y-10926484D02*
X10714120Y-10793150D01*
X10714120Y-10812198D02*
X10723644Y-10802674D01*
X10723644Y-10802674D02*
X10742691Y-10793150D01*
X10742691Y-10793150D02*
X10771263Y-10793150D01*
X10771263Y-10793150D02*
X10790310Y-10802674D01*
X10790310Y-10802674D02*
X10799834Y-10821722D01*
X10799834Y-10821722D02*
X10799834Y-10926484D01*
X10799834Y-10821722D02*
X10809358Y-10802674D01*
X10809358Y-10802674D02*
X10828405Y-10793150D01*
X10828405Y-10793150D02*
X10856977Y-10793150D01*
X10856977Y-10793150D02*
X10876025Y-10802674D01*
X10876025Y-10802674D02*
X10885548Y-10821722D01*
X10885548Y-10821722D02*
X10885548Y-10926484D01*
X10980786Y-10926484D02*
X10980786Y-10793150D01*
X10980786Y-10812198D02*
X10990310Y-10802674D01*
X10990310Y-10802674D02*
X11009358Y-10793150D01*
X11009358Y-10793150D02*
X11037929Y-10793150D01*
X11037929Y-10793150D02*
X11056977Y-10802674D01*
X11056977Y-10802674D02*
X11066501Y-10821722D01*
X11066501Y-10821722D02*
X11066501Y-10926484D01*
X11066501Y-10821722D02*
X11076025Y-10802674D01*
X11076025Y-10802674D02*
X11095072Y-10793150D01*
X11095072Y-10793150D02*
X11123644Y-10793150D01*
X11123644Y-10793150D02*
X11142691Y-10802674D01*
X11142691Y-10802674D02*
X11152215Y-10821722D01*
X11152215Y-10821722D02*
X11152215Y-10926484D01*
X11542691Y-10716960D02*
X11371263Y-10974103D01*
X11799834Y-10726484D02*
X11818882Y-10726484D01*
X11818882Y-10726484D02*
X11837929Y-10736008D01*
X11837929Y-10736008D02*
X11847453Y-10745531D01*
X11847453Y-10745531D02*
X11856977Y-10764579D01*
X11856977Y-10764579D02*
X11866501Y-10802674D01*
X11866501Y-10802674D02*
X11866501Y-10850293D01*
X11866501Y-10850293D02*
X11856977Y-10888389D01*
X11856977Y-10888389D02*
X11847453Y-10907436D01*
X11847453Y-10907436D02*
X11837929Y-10916960D01*
X11837929Y-10916960D02*
X11818882Y-10926484D01*
X11818882Y-10926484D02*
X11799834Y-10926484D01*
X11799834Y-10926484D02*
X11780786Y-10916960D01*
X11780786Y-10916960D02*
X11771263Y-10907436D01*
X11771263Y-10907436D02*
X11761739Y-10888389D01*
X11761739Y-10888389D02*
X11752215Y-10850293D01*
X11752215Y-10850293D02*
X11752215Y-10802674D01*
X11752215Y-10802674D02*
X11761739Y-10764579D01*
X11761739Y-10764579D02*
X11771263Y-10745531D01*
X11771263Y-10745531D02*
X11780786Y-10736008D01*
X11780786Y-10736008D02*
X11799834Y-10726484D01*
X11952215Y-10907436D02*
X11961739Y-10916960D01*
X11961739Y-10916960D02*
X11952215Y-10926484D01*
X11952215Y-10926484D02*
X11942691Y-10916960D01*
X11942691Y-10916960D02*
X11952215Y-10907436D01*
X11952215Y-10907436D02*
X11952215Y-10926484D01*
X12085548Y-10726484D02*
X12104596Y-10726484D01*
X12104596Y-10726484D02*
X12123644Y-10736008D01*
X12123644Y-10736008D02*
X12133167Y-10745531D01*
X12133167Y-10745531D02*
X12142691Y-10764579D01*
X12142691Y-10764579D02*
X12152215Y-10802674D01*
X12152215Y-10802674D02*
X12152215Y-10850293D01*
X12152215Y-10850293D02*
X12142691Y-10888389D01*
X12142691Y-10888389D02*
X12133167Y-10907436D01*
X12133167Y-10907436D02*
X12123644Y-10916960D01*
X12123644Y-10916960D02*
X12104596Y-10926484D01*
X12104596Y-10926484D02*
X12085548Y-10926484D01*
X12085548Y-10926484D02*
X12066501Y-10916960D01*
X12066501Y-10916960D02*
X12056977Y-10907436D01*
X12056977Y-10907436D02*
X12047453Y-10888389D01*
X12047453Y-10888389D02*
X12037929Y-10850293D01*
X12037929Y-10850293D02*
X12037929Y-10802674D01*
X12037929Y-10802674D02*
X12047453Y-10764579D01*
X12047453Y-10764579D02*
X12056977Y-10745531D01*
X12056977Y-10745531D02*
X12066501Y-10736008D01*
X12066501Y-10736008D02*
X12085548Y-10726484D01*
X12218882Y-10726484D02*
X12342691Y-10726484D01*
X12342691Y-10726484D02*
X12276025Y-10802674D01*
X12276025Y-10802674D02*
X12304596Y-10802674D01*
X12304596Y-10802674D02*
X12323644Y-10812198D01*
X12323644Y-10812198D02*
X12333167Y-10821722D01*
X12333167Y-10821722D02*
X12342691Y-10840770D01*
X12342691Y-10840770D02*
X12342691Y-10888389D01*
X12342691Y-10888389D02*
X12333167Y-10907436D01*
X12333167Y-10907436D02*
X12323644Y-10916960D01*
X12323644Y-10916960D02*
X12304596Y-10926484D01*
X12304596Y-10926484D02*
X12247453Y-10926484D01*
X12247453Y-10926484D02*
X12228406Y-10916960D01*
X12228406Y-10916960D02*
X12218882Y-10907436D01*
X12437929Y-10926484D02*
X12476025Y-10926484D01*
X12476025Y-10926484D02*
X12495072Y-10916960D01*
X12495072Y-10916960D02*
X12504596Y-10907436D01*
X12504596Y-10907436D02*
X12523644Y-10878865D01*
X12523644Y-10878865D02*
X12533167Y-10840770D01*
X12533167Y-10840770D02*
X12533167Y-10764579D01*
X12533167Y-10764579D02*
X12523644Y-10745531D01*
X12523644Y-10745531D02*
X12514120Y-10736008D01*
X12514120Y-10736008D02*
X12495072Y-10726484D01*
X12495072Y-10726484D02*
X12456977Y-10726484D01*
X12456977Y-10726484D02*
X12437929Y-10736008D01*
X12437929Y-10736008D02*
X12428406Y-10745531D01*
X12428406Y-10745531D02*
X12418882Y-10764579D01*
X12418882Y-10764579D02*
X12418882Y-10812198D01*
X12418882Y-10812198D02*
X12428406Y-10831246D01*
X12428406Y-10831246D02*
X12437929Y-10840770D01*
X12437929Y-10840770D02*
X12456977Y-10850293D01*
X12456977Y-10850293D02*
X12495072Y-10850293D01*
X12495072Y-10850293D02*
X12514120Y-10840770D01*
X12514120Y-10840770D02*
X12523644Y-10831246D01*
X12523644Y-10831246D02*
X12533167Y-10812198D01*
X12704596Y-10793150D02*
X12704596Y-10926484D01*
X12656977Y-10716960D02*
X12609358Y-10859817D01*
X12609358Y-10859817D02*
X12733167Y-10859817D01*
X12799834Y-10726484D02*
X12799834Y-10764579D01*
X12876025Y-10726484D02*
X12876025Y-10764579D01*
X13171263Y-11002674D02*
X13161739Y-10993150D01*
X13161739Y-10993150D02*
X13142691Y-10964579D01*
X13142691Y-10964579D02*
X13133168Y-10945531D01*
X13133168Y-10945531D02*
X13123644Y-10916960D01*
X13123644Y-10916960D02*
X13114120Y-10869341D01*
X13114120Y-10869341D02*
X13114120Y-10831246D01*
X13114120Y-10831246D02*
X13123644Y-10783627D01*
X13123644Y-10783627D02*
X13133168Y-10755055D01*
X13133168Y-10755055D02*
X13142691Y-10736008D01*
X13142691Y-10736008D02*
X13161739Y-10707436D01*
X13161739Y-10707436D02*
X13171263Y-10697912D01*
X13352215Y-10926484D02*
X13237929Y-10926484D01*
X13295072Y-10926484D02*
X13295072Y-10726484D01*
X13295072Y-10726484D02*
X13276025Y-10755055D01*
X13276025Y-10755055D02*
X13256977Y-10774103D01*
X13256977Y-10774103D02*
X13237929Y-10783627D01*
X13542691Y-10926484D02*
X13428406Y-10926484D01*
X13485548Y-10926484D02*
X13485548Y-10726484D01*
X13485548Y-10726484D02*
X13466501Y-10755055D01*
X13466501Y-10755055D02*
X13447453Y-10774103D01*
X13447453Y-10774103D02*
X13428406Y-10783627D01*
X13780787Y-10926484D02*
X13780787Y-10726484D01*
X13866501Y-10926484D02*
X13866501Y-10821722D01*
X13866501Y-10821722D02*
X13856977Y-10802674D01*
X13856977Y-10802674D02*
X13837930Y-10793150D01*
X13837930Y-10793150D02*
X13809358Y-10793150D01*
X13809358Y-10793150D02*
X13790310Y-10802674D01*
X13790310Y-10802674D02*
X13780787Y-10812198D01*
X13990310Y-10926484D02*
X13971263Y-10916960D01*
X13971263Y-10916960D02*
X13961739Y-10907436D01*
X13961739Y-10907436D02*
X13952215Y-10888389D01*
X13952215Y-10888389D02*
X13952215Y-10831246D01*
X13952215Y-10831246D02*
X13961739Y-10812198D01*
X13961739Y-10812198D02*
X13971263Y-10802674D01*
X13971263Y-10802674D02*
X13990310Y-10793150D01*
X13990310Y-10793150D02*
X14018882Y-10793150D01*
X14018882Y-10793150D02*
X14037930Y-10802674D01*
X14037930Y-10802674D02*
X14047453Y-10812198D01*
X14047453Y-10812198D02*
X14056977Y-10831246D01*
X14056977Y-10831246D02*
X14056977Y-10888389D01*
X14056977Y-10888389D02*
X14047453Y-10907436D01*
X14047453Y-10907436D02*
X14037930Y-10916960D01*
X14037930Y-10916960D02*
X14018882Y-10926484D01*
X14018882Y-10926484D02*
X13990310Y-10926484D01*
X14171263Y-10926484D02*
X14152215Y-10916960D01*
X14152215Y-10916960D02*
X14142691Y-10897912D01*
X14142691Y-10897912D02*
X14142691Y-10726484D01*
X14323644Y-10916960D02*
X14304596Y-10926484D01*
X14304596Y-10926484D02*
X14266501Y-10926484D01*
X14266501Y-10926484D02*
X14247453Y-10916960D01*
X14247453Y-10916960D02*
X14237930Y-10897912D01*
X14237930Y-10897912D02*
X14237930Y-10821722D01*
X14237930Y-10821722D02*
X14247453Y-10802674D01*
X14247453Y-10802674D02*
X14266501Y-10793150D01*
X14266501Y-10793150D02*
X14304596Y-10793150D01*
X14304596Y-10793150D02*
X14323644Y-10802674D01*
X14323644Y-10802674D02*
X14333168Y-10821722D01*
X14333168Y-10821722D02*
X14333168Y-10840770D01*
X14333168Y-10840770D02*
X14237930Y-10859817D01*
X14409358Y-10916960D02*
X14428406Y-10926484D01*
X14428406Y-10926484D02*
X14466501Y-10926484D01*
X14466501Y-10926484D02*
X14485549Y-10916960D01*
X14485549Y-10916960D02*
X14495072Y-10897912D01*
X14495072Y-10897912D02*
X14495072Y-10888389D01*
X14495072Y-10888389D02*
X14485549Y-10869341D01*
X14485549Y-10869341D02*
X14466501Y-10859817D01*
X14466501Y-10859817D02*
X14437930Y-10859817D01*
X14437930Y-10859817D02*
X14418882Y-10850293D01*
X14418882Y-10850293D02*
X14409358Y-10831246D01*
X14409358Y-10831246D02*
X14409358Y-10821722D01*
X14409358Y-10821722D02*
X14418882Y-10802674D01*
X14418882Y-10802674D02*
X14437930Y-10793150D01*
X14437930Y-10793150D02*
X14466501Y-10793150D01*
X14466501Y-10793150D02*
X14485549Y-10802674D01*
X14561739Y-11002674D02*
X14571263Y-10993150D01*
X14571263Y-10993150D02*
X14590311Y-10964579D01*
X14590311Y-10964579D02*
X14599834Y-10945531D01*
X14599834Y-10945531D02*
X14609358Y-10916960D01*
X14609358Y-10916960D02*
X14618882Y-10869341D01*
X14618882Y-10869341D02*
X14618882Y-10831246D01*
X14618882Y-10831246D02*
X14609358Y-10783627D01*
X14609358Y-10783627D02*
X14599834Y-10755055D01*
X14599834Y-10755055D02*
X14590311Y-10736008D01*
X14590311Y-10736008D02*
X14571263Y-10707436D01*
X14571263Y-10707436D02*
X14561739Y-10697912D01*
M02*
