%TF.GenerationSoftware,KiCad,Pcbnew,7.0.7*%
%TF.CreationDate,2023-10-21T14:21:19+02:00*%
%TF.ProjectId,G84-4100,4738342d-3431-4303-902e-6b696361645f,rev?*%
%TF.SameCoordinates,Original*%
%TF.FileFunction,Soldermask,Bot*%
%TF.FilePolarity,Negative*%
%FSLAX46Y46*%
G04 Gerber Fmt 4.6, Leading zero omitted, Abs format (unit mm)*
G04 Created by KiCad (PCBNEW 7.0.7) date 2023-10-21 14:21:19*
%MOMM*%
%LPD*%
G01*
G04 APERTURE LIST*
%ADD10C,3.200000*%
%ADD11R,1.700000X1.700000*%
%ADD12O,1.700000X1.700000*%
%ADD13R,1.350000X1.350000*%
%ADD14O,1.350000X1.350000*%
%ADD15R,1.000000X1.000000*%
%ADD16O,1.000000X1.000000*%
G04 APERTURE END LIST*
D10*
%TO.C,H1*%
X96012000Y-87630000D03*
%TD*%
D11*
%TO.C,J3*%
X101092000Y-77470000D03*
D12*
X101092000Y-74930000D03*
X101092000Y-72390000D03*
X101092000Y-69850000D03*
X101092000Y-67310000D03*
%TD*%
D10*
%TO.C,H2*%
X195072000Y-62230000D03*
%TD*%
D11*
%TO.C,J1*%
X184912000Y-88900000D03*
D12*
X184912000Y-86360000D03*
X187452000Y-88900000D03*
X187452000Y-86360000D03*
X189992000Y-88900000D03*
X189992000Y-86360000D03*
%TD*%
D13*
%TO.C,J2*%
X113792000Y-74580000D03*
D14*
X113792000Y-72580000D03*
X113792000Y-70580000D03*
X113792000Y-68580000D03*
X113792000Y-66580000D03*
%TD*%
D15*
%TO.C,J4*%
X169672000Y-60960000D03*
D16*
X168402000Y-60960000D03*
X167132000Y-60960000D03*
X165862000Y-60960000D03*
X164592000Y-60960000D03*
X163322000Y-60960000D03*
X162052000Y-60960000D03*
X160782000Y-60960000D03*
X159512000Y-60960000D03*
X158242000Y-60960000D03*
X156972000Y-60960000D03*
X155702000Y-60960000D03*
X154432000Y-60960000D03*
X153162000Y-60960000D03*
X151892000Y-60960000D03*
X150622000Y-60960000D03*
X149352000Y-60960000D03*
X148082000Y-60960000D03*
X146812000Y-60960000D03*
X145542000Y-60960000D03*
X144272000Y-60960000D03*
X143002000Y-60960000D03*
X141732000Y-60960000D03*
X140462000Y-60960000D03*
X139192000Y-60960000D03*
X137922000Y-60960000D03*
X136652000Y-60960000D03*
X135382000Y-60960000D03*
%TD*%
M02*
