%TF.GenerationSoftware,KiCad,Pcbnew,7.0.7*%
%TF.CreationDate,2023-10-21T14:21:19+02:00*%
%TF.ProjectId,G84-4100,4738342d-3431-4303-902e-6b696361645f,rev?*%
%TF.SameCoordinates,Original*%
%TF.FileFunction,Legend,Top*%
%TF.FilePolarity,Positive*%
%FSLAX46Y46*%
G04 Gerber Fmt 4.6, Leading zero omitted, Abs format (unit mm)*
G04 Created by KiCad (PCBNEW 7.0.7) date 2023-10-21 14:21:19*
%MOMM*%
%LPD*%
G01*
G04 APERTURE LIST*
G04 Aperture macros list*
%AMRoundRect*
0 Rectangle with rounded corners*
0 $1 Rounding radius*
0 $2 $3 $4 $5 $6 $7 $8 $9 X,Y pos of 4 corners*
0 Add a 4 corners polygon primitive as box body*
4,1,4,$2,$3,$4,$5,$6,$7,$8,$9,$2,$3,0*
0 Add four circle primitives for the rounded corners*
1,1,$1+$1,$2,$3*
1,1,$1+$1,$4,$5*
1,1,$1+$1,$6,$7*
1,1,$1+$1,$8,$9*
0 Add four rect primitives between the rounded corners*
20,1,$1+$1,$2,$3,$4,$5,0*
20,1,$1+$1,$4,$5,$6,$7,0*
20,1,$1+$1,$6,$7,$8,$9,0*
20,1,$1+$1,$8,$9,$2,$3,0*%
G04 Aperture macros list end*
%ADD10C,0.150000*%
%ADD11C,0.120000*%
%ADD12C,0.300000*%
%ADD13RoundRect,0.237500X-0.300000X-0.237500X0.300000X-0.237500X0.300000X0.237500X-0.300000X0.237500X0*%
%ADD14C,3.200000*%
%ADD15RoundRect,0.237500X-0.237500X0.300000X-0.237500X-0.300000X0.237500X-0.300000X0.237500X0.300000X0*%
%ADD16R,1.700000X1.700000*%
%ADD17O,1.700000X1.700000*%
%ADD18RoundRect,0.237500X-0.237500X0.250000X-0.237500X-0.250000X0.237500X-0.250000X0.237500X0.250000X0*%
%ADD19R,1.600000X1.400000*%
%ADD20R,1.400000X1.200000*%
%ADD21RoundRect,0.237500X0.300000X0.237500X-0.300000X0.237500X-0.300000X-0.237500X0.300000X-0.237500X0*%
%ADD22RoundRect,0.237500X-0.250000X-0.237500X0.250000X-0.237500X0.250000X0.237500X-0.250000X0.237500X0*%
%ADD23RoundRect,0.237500X0.237500X-0.250000X0.237500X0.250000X-0.237500X0.250000X-0.237500X-0.250000X0*%
%ADD24RoundRect,0.250000X-0.400000X-1.075000X0.400000X-1.075000X0.400000X1.075000X-0.400000X1.075000X0*%
%ADD25R,1.350000X1.350000*%
%ADD26O,1.350000X1.350000*%
%ADD27RoundRect,0.062500X0.062500X-0.375000X0.062500X0.375000X-0.062500X0.375000X-0.062500X-0.375000X0*%
%ADD28RoundRect,0.062500X0.375000X-0.062500X0.375000X0.062500X-0.375000X0.062500X-0.375000X-0.062500X0*%
%ADD29R,1.000000X1.000000*%
%ADD30O,1.000000X1.000000*%
%ADD31RoundRect,0.237500X0.237500X-0.300000X0.237500X0.300000X-0.237500X0.300000X-0.237500X-0.300000X0*%
G04 APERTURE END LIST*
D10*
X157091142Y-67001580D02*
X157043523Y-67049200D01*
X157043523Y-67049200D02*
X156900666Y-67096819D01*
X156900666Y-67096819D02*
X156805428Y-67096819D01*
X156805428Y-67096819D02*
X156662571Y-67049200D01*
X156662571Y-67049200D02*
X156567333Y-66953961D01*
X156567333Y-66953961D02*
X156519714Y-66858723D01*
X156519714Y-66858723D02*
X156472095Y-66668247D01*
X156472095Y-66668247D02*
X156472095Y-66525390D01*
X156472095Y-66525390D02*
X156519714Y-66334914D01*
X156519714Y-66334914D02*
X156567333Y-66239676D01*
X156567333Y-66239676D02*
X156662571Y-66144438D01*
X156662571Y-66144438D02*
X156805428Y-66096819D01*
X156805428Y-66096819D02*
X156900666Y-66096819D01*
X156900666Y-66096819D02*
X157043523Y-66144438D01*
X157043523Y-66144438D02*
X157091142Y-66192057D01*
X158043523Y-67096819D02*
X157472095Y-67096819D01*
X157757809Y-67096819D02*
X157757809Y-66096819D01*
X157757809Y-66096819D02*
X157662571Y-66239676D01*
X157662571Y-66239676D02*
X157567333Y-66334914D01*
X157567333Y-66334914D02*
X157472095Y-66382533D01*
X158662571Y-66096819D02*
X158757809Y-66096819D01*
X158757809Y-66096819D02*
X158853047Y-66144438D01*
X158853047Y-66144438D02*
X158900666Y-66192057D01*
X158900666Y-66192057D02*
X158948285Y-66287295D01*
X158948285Y-66287295D02*
X158995904Y-66477771D01*
X158995904Y-66477771D02*
X158995904Y-66715866D01*
X158995904Y-66715866D02*
X158948285Y-66906342D01*
X158948285Y-66906342D02*
X158900666Y-67001580D01*
X158900666Y-67001580D02*
X158853047Y-67049200D01*
X158853047Y-67049200D02*
X158757809Y-67096819D01*
X158757809Y-67096819D02*
X158662571Y-67096819D01*
X158662571Y-67096819D02*
X158567333Y-67049200D01*
X158567333Y-67049200D02*
X158519714Y-67001580D01*
X158519714Y-67001580D02*
X158472095Y-66906342D01*
X158472095Y-66906342D02*
X158424476Y-66715866D01*
X158424476Y-66715866D02*
X158424476Y-66477771D01*
X158424476Y-66477771D02*
X158472095Y-66287295D01*
X158472095Y-66287295D02*
X158519714Y-66192057D01*
X158519714Y-66192057D02*
X158567333Y-66144438D01*
X158567333Y-66144438D02*
X158662571Y-66096819D01*
X172553333Y-70209580D02*
X172505714Y-70257200D01*
X172505714Y-70257200D02*
X172362857Y-70304819D01*
X172362857Y-70304819D02*
X172267619Y-70304819D01*
X172267619Y-70304819D02*
X172124762Y-70257200D01*
X172124762Y-70257200D02*
X172029524Y-70161961D01*
X172029524Y-70161961D02*
X171981905Y-70066723D01*
X171981905Y-70066723D02*
X171934286Y-69876247D01*
X171934286Y-69876247D02*
X171934286Y-69733390D01*
X171934286Y-69733390D02*
X171981905Y-69542914D01*
X171981905Y-69542914D02*
X172029524Y-69447676D01*
X172029524Y-69447676D02*
X172124762Y-69352438D01*
X172124762Y-69352438D02*
X172267619Y-69304819D01*
X172267619Y-69304819D02*
X172362857Y-69304819D01*
X172362857Y-69304819D02*
X172505714Y-69352438D01*
X172505714Y-69352438D02*
X172553333Y-69400057D01*
X172934286Y-69400057D02*
X172981905Y-69352438D01*
X172981905Y-69352438D02*
X173077143Y-69304819D01*
X173077143Y-69304819D02*
X173315238Y-69304819D01*
X173315238Y-69304819D02*
X173410476Y-69352438D01*
X173410476Y-69352438D02*
X173458095Y-69400057D01*
X173458095Y-69400057D02*
X173505714Y-69495295D01*
X173505714Y-69495295D02*
X173505714Y-69590533D01*
X173505714Y-69590533D02*
X173458095Y-69733390D01*
X173458095Y-69733390D02*
X172886667Y-70304819D01*
X172886667Y-70304819D02*
X173505714Y-70304819D01*
X100758666Y-79254819D02*
X100758666Y-79969104D01*
X100758666Y-79969104D02*
X100711047Y-80111961D01*
X100711047Y-80111961D02*
X100615809Y-80207200D01*
X100615809Y-80207200D02*
X100472952Y-80254819D01*
X100472952Y-80254819D02*
X100377714Y-80254819D01*
X101139619Y-79254819D02*
X101758666Y-79254819D01*
X101758666Y-79254819D02*
X101425333Y-79635771D01*
X101425333Y-79635771D02*
X101568190Y-79635771D01*
X101568190Y-79635771D02*
X101663428Y-79683390D01*
X101663428Y-79683390D02*
X101711047Y-79731009D01*
X101711047Y-79731009D02*
X101758666Y-79826247D01*
X101758666Y-79826247D02*
X101758666Y-80064342D01*
X101758666Y-80064342D02*
X101711047Y-80159580D01*
X101711047Y-80159580D02*
X101663428Y-80207200D01*
X101663428Y-80207200D02*
X101568190Y-80254819D01*
X101568190Y-80254819D02*
X101282476Y-80254819D01*
X101282476Y-80254819D02*
X101187238Y-80207200D01*
X101187238Y-80207200D02*
X101139619Y-80159580D01*
X176871333Y-83766819D02*
X176538000Y-83290628D01*
X176299905Y-83766819D02*
X176299905Y-82766819D01*
X176299905Y-82766819D02*
X176680857Y-82766819D01*
X176680857Y-82766819D02*
X176776095Y-82814438D01*
X176776095Y-82814438D02*
X176823714Y-82862057D01*
X176823714Y-82862057D02*
X176871333Y-82957295D01*
X176871333Y-82957295D02*
X176871333Y-83100152D01*
X176871333Y-83100152D02*
X176823714Y-83195390D01*
X176823714Y-83195390D02*
X176776095Y-83243009D01*
X176776095Y-83243009D02*
X176680857Y-83290628D01*
X176680857Y-83290628D02*
X176299905Y-83290628D01*
X177204667Y-82766819D02*
X177823714Y-82766819D01*
X177823714Y-82766819D02*
X177490381Y-83147771D01*
X177490381Y-83147771D02*
X177633238Y-83147771D01*
X177633238Y-83147771D02*
X177728476Y-83195390D01*
X177728476Y-83195390D02*
X177776095Y-83243009D01*
X177776095Y-83243009D02*
X177823714Y-83338247D01*
X177823714Y-83338247D02*
X177823714Y-83576342D01*
X177823714Y-83576342D02*
X177776095Y-83671580D01*
X177776095Y-83671580D02*
X177728476Y-83719200D01*
X177728476Y-83719200D02*
X177633238Y-83766819D01*
X177633238Y-83766819D02*
X177347524Y-83766819D01*
X177347524Y-83766819D02*
X177252286Y-83719200D01*
X177252286Y-83719200D02*
X177204667Y-83671580D01*
X186118667Y-75137200D02*
X186261524Y-75184819D01*
X186261524Y-75184819D02*
X186499619Y-75184819D01*
X186499619Y-75184819D02*
X186594857Y-75137200D01*
X186594857Y-75137200D02*
X186642476Y-75089580D01*
X186642476Y-75089580D02*
X186690095Y-74994342D01*
X186690095Y-74994342D02*
X186690095Y-74899104D01*
X186690095Y-74899104D02*
X186642476Y-74803866D01*
X186642476Y-74803866D02*
X186594857Y-74756247D01*
X186594857Y-74756247D02*
X186499619Y-74708628D01*
X186499619Y-74708628D02*
X186309143Y-74661009D01*
X186309143Y-74661009D02*
X186213905Y-74613390D01*
X186213905Y-74613390D02*
X186166286Y-74565771D01*
X186166286Y-74565771D02*
X186118667Y-74470533D01*
X186118667Y-74470533D02*
X186118667Y-74375295D01*
X186118667Y-74375295D02*
X186166286Y-74280057D01*
X186166286Y-74280057D02*
X186213905Y-74232438D01*
X186213905Y-74232438D02*
X186309143Y-74184819D01*
X186309143Y-74184819D02*
X186547238Y-74184819D01*
X186547238Y-74184819D02*
X186690095Y-74232438D01*
X187023429Y-74184819D02*
X187261524Y-75184819D01*
X187261524Y-75184819D02*
X187452000Y-74470533D01*
X187452000Y-74470533D02*
X187642476Y-75184819D01*
X187642476Y-75184819D02*
X187880572Y-74184819D01*
X188785333Y-75184819D02*
X188213905Y-75184819D01*
X188499619Y-75184819D02*
X188499619Y-74184819D01*
X188499619Y-74184819D02*
X188404381Y-74327676D01*
X188404381Y-74327676D02*
X188309143Y-74422914D01*
X188309143Y-74422914D02*
X188213905Y-74470533D01*
X166909809Y-67288628D02*
X166909809Y-67764819D01*
X166576476Y-66764819D02*
X166909809Y-67288628D01*
X166909809Y-67288628D02*
X167243142Y-66764819D01*
X168100285Y-67764819D02*
X167528857Y-67764819D01*
X167814571Y-67764819D02*
X167814571Y-66764819D01*
X167814571Y-66764819D02*
X167719333Y-66907676D01*
X167719333Y-66907676D02*
X167624095Y-67002914D01*
X167624095Y-67002914D02*
X167528857Y-67050533D01*
X150963333Y-81291580D02*
X150915714Y-81339200D01*
X150915714Y-81339200D02*
X150772857Y-81386819D01*
X150772857Y-81386819D02*
X150677619Y-81386819D01*
X150677619Y-81386819D02*
X150534762Y-81339200D01*
X150534762Y-81339200D02*
X150439524Y-81243961D01*
X150439524Y-81243961D02*
X150391905Y-81148723D01*
X150391905Y-81148723D02*
X150344286Y-80958247D01*
X150344286Y-80958247D02*
X150344286Y-80815390D01*
X150344286Y-80815390D02*
X150391905Y-80624914D01*
X150391905Y-80624914D02*
X150439524Y-80529676D01*
X150439524Y-80529676D02*
X150534762Y-80434438D01*
X150534762Y-80434438D02*
X150677619Y-80386819D01*
X150677619Y-80386819D02*
X150772857Y-80386819D01*
X150772857Y-80386819D02*
X150915714Y-80434438D01*
X150915714Y-80434438D02*
X150963333Y-80482057D01*
X151820476Y-80386819D02*
X151630000Y-80386819D01*
X151630000Y-80386819D02*
X151534762Y-80434438D01*
X151534762Y-80434438D02*
X151487143Y-80482057D01*
X151487143Y-80482057D02*
X151391905Y-80624914D01*
X151391905Y-80624914D02*
X151344286Y-80815390D01*
X151344286Y-80815390D02*
X151344286Y-81196342D01*
X151344286Y-81196342D02*
X151391905Y-81291580D01*
X151391905Y-81291580D02*
X151439524Y-81339200D01*
X151439524Y-81339200D02*
X151534762Y-81386819D01*
X151534762Y-81386819D02*
X151725238Y-81386819D01*
X151725238Y-81386819D02*
X151820476Y-81339200D01*
X151820476Y-81339200D02*
X151868095Y-81291580D01*
X151868095Y-81291580D02*
X151915714Y-81196342D01*
X151915714Y-81196342D02*
X151915714Y-80958247D01*
X151915714Y-80958247D02*
X151868095Y-80863009D01*
X151868095Y-80863009D02*
X151820476Y-80815390D01*
X151820476Y-80815390D02*
X151725238Y-80767771D01*
X151725238Y-80767771D02*
X151534762Y-80767771D01*
X151534762Y-80767771D02*
X151439524Y-80815390D01*
X151439524Y-80815390D02*
X151391905Y-80863009D01*
X151391905Y-80863009D02*
X151344286Y-80958247D01*
X133437333Y-71066819D02*
X133104000Y-70590628D01*
X132865905Y-71066819D02*
X132865905Y-70066819D01*
X132865905Y-70066819D02*
X133246857Y-70066819D01*
X133246857Y-70066819D02*
X133342095Y-70114438D01*
X133342095Y-70114438D02*
X133389714Y-70162057D01*
X133389714Y-70162057D02*
X133437333Y-70257295D01*
X133437333Y-70257295D02*
X133437333Y-70400152D01*
X133437333Y-70400152D02*
X133389714Y-70495390D01*
X133389714Y-70495390D02*
X133342095Y-70543009D01*
X133342095Y-70543009D02*
X133246857Y-70590628D01*
X133246857Y-70590628D02*
X132865905Y-70590628D01*
X133818286Y-70162057D02*
X133865905Y-70114438D01*
X133865905Y-70114438D02*
X133961143Y-70066819D01*
X133961143Y-70066819D02*
X134199238Y-70066819D01*
X134199238Y-70066819D02*
X134294476Y-70114438D01*
X134294476Y-70114438D02*
X134342095Y-70162057D01*
X134342095Y-70162057D02*
X134389714Y-70257295D01*
X134389714Y-70257295D02*
X134389714Y-70352533D01*
X134389714Y-70352533D02*
X134342095Y-70495390D01*
X134342095Y-70495390D02*
X133770667Y-71066819D01*
X133770667Y-71066819D02*
X134389714Y-71066819D01*
X145121333Y-69955580D02*
X145073714Y-70003200D01*
X145073714Y-70003200D02*
X144930857Y-70050819D01*
X144930857Y-70050819D02*
X144835619Y-70050819D01*
X144835619Y-70050819D02*
X144692762Y-70003200D01*
X144692762Y-70003200D02*
X144597524Y-69907961D01*
X144597524Y-69907961D02*
X144549905Y-69812723D01*
X144549905Y-69812723D02*
X144502286Y-69622247D01*
X144502286Y-69622247D02*
X144502286Y-69479390D01*
X144502286Y-69479390D02*
X144549905Y-69288914D01*
X144549905Y-69288914D02*
X144597524Y-69193676D01*
X144597524Y-69193676D02*
X144692762Y-69098438D01*
X144692762Y-69098438D02*
X144835619Y-69050819D01*
X144835619Y-69050819D02*
X144930857Y-69050819D01*
X144930857Y-69050819D02*
X145073714Y-69098438D01*
X145073714Y-69098438D02*
X145121333Y-69146057D01*
X146026095Y-69050819D02*
X145549905Y-69050819D01*
X145549905Y-69050819D02*
X145502286Y-69527009D01*
X145502286Y-69527009D02*
X145549905Y-69479390D01*
X145549905Y-69479390D02*
X145645143Y-69431771D01*
X145645143Y-69431771D02*
X145883238Y-69431771D01*
X145883238Y-69431771D02*
X145978476Y-69479390D01*
X145978476Y-69479390D02*
X146026095Y-69527009D01*
X146026095Y-69527009D02*
X146073714Y-69622247D01*
X146073714Y-69622247D02*
X146073714Y-69860342D01*
X146073714Y-69860342D02*
X146026095Y-69955580D01*
X146026095Y-69955580D02*
X145978476Y-70003200D01*
X145978476Y-70003200D02*
X145883238Y-70050819D01*
X145883238Y-70050819D02*
X145645143Y-70050819D01*
X145645143Y-70050819D02*
X145549905Y-70003200D01*
X145549905Y-70003200D02*
X145502286Y-69955580D01*
X146137333Y-79005580D02*
X146089714Y-79053200D01*
X146089714Y-79053200D02*
X145946857Y-79100819D01*
X145946857Y-79100819D02*
X145851619Y-79100819D01*
X145851619Y-79100819D02*
X145708762Y-79053200D01*
X145708762Y-79053200D02*
X145613524Y-78957961D01*
X145613524Y-78957961D02*
X145565905Y-78862723D01*
X145565905Y-78862723D02*
X145518286Y-78672247D01*
X145518286Y-78672247D02*
X145518286Y-78529390D01*
X145518286Y-78529390D02*
X145565905Y-78338914D01*
X145565905Y-78338914D02*
X145613524Y-78243676D01*
X145613524Y-78243676D02*
X145708762Y-78148438D01*
X145708762Y-78148438D02*
X145851619Y-78100819D01*
X145851619Y-78100819D02*
X145946857Y-78100819D01*
X145946857Y-78100819D02*
X146089714Y-78148438D01*
X146089714Y-78148438D02*
X146137333Y-78196057D01*
X146994476Y-78434152D02*
X146994476Y-79100819D01*
X146756381Y-78053200D02*
X146518286Y-78767485D01*
X146518286Y-78767485D02*
X147137333Y-78767485D01*
X146663580Y-73794857D02*
X146711200Y-73842476D01*
X146711200Y-73842476D02*
X146758819Y-73985333D01*
X146758819Y-73985333D02*
X146758819Y-74080571D01*
X146758819Y-74080571D02*
X146711200Y-74223428D01*
X146711200Y-74223428D02*
X146615961Y-74318666D01*
X146615961Y-74318666D02*
X146520723Y-74366285D01*
X146520723Y-74366285D02*
X146330247Y-74413904D01*
X146330247Y-74413904D02*
X146187390Y-74413904D01*
X146187390Y-74413904D02*
X145996914Y-74366285D01*
X145996914Y-74366285D02*
X145901676Y-74318666D01*
X145901676Y-74318666D02*
X145806438Y-74223428D01*
X145806438Y-74223428D02*
X145758819Y-74080571D01*
X145758819Y-74080571D02*
X145758819Y-73985333D01*
X145758819Y-73985333D02*
X145806438Y-73842476D01*
X145806438Y-73842476D02*
X145854057Y-73794857D01*
X146758819Y-72842476D02*
X146758819Y-73413904D01*
X146758819Y-73128190D02*
X145758819Y-73128190D01*
X145758819Y-73128190D02*
X145901676Y-73223428D01*
X145901676Y-73223428D02*
X145996914Y-73318666D01*
X145996914Y-73318666D02*
X146044533Y-73413904D01*
X146758819Y-71890095D02*
X146758819Y-72461523D01*
X146758819Y-72175809D02*
X145758819Y-72175809D01*
X145758819Y-72175809D02*
X145901676Y-72271047D01*
X145901676Y-72271047D02*
X145996914Y-72366285D01*
X145996914Y-72366285D02*
X146044533Y-72461523D01*
X163663333Y-75543580D02*
X163615714Y-75591200D01*
X163615714Y-75591200D02*
X163472857Y-75638819D01*
X163472857Y-75638819D02*
X163377619Y-75638819D01*
X163377619Y-75638819D02*
X163234762Y-75591200D01*
X163234762Y-75591200D02*
X163139524Y-75495961D01*
X163139524Y-75495961D02*
X163091905Y-75400723D01*
X163091905Y-75400723D02*
X163044286Y-75210247D01*
X163044286Y-75210247D02*
X163044286Y-75067390D01*
X163044286Y-75067390D02*
X163091905Y-74876914D01*
X163091905Y-74876914D02*
X163139524Y-74781676D01*
X163139524Y-74781676D02*
X163234762Y-74686438D01*
X163234762Y-74686438D02*
X163377619Y-74638819D01*
X163377619Y-74638819D02*
X163472857Y-74638819D01*
X163472857Y-74638819D02*
X163615714Y-74686438D01*
X163615714Y-74686438D02*
X163663333Y-74734057D01*
X163996667Y-74638819D02*
X164663333Y-74638819D01*
X164663333Y-74638819D02*
X164234762Y-75638819D01*
X181784666Y-88608819D02*
X181784666Y-89323104D01*
X181784666Y-89323104D02*
X181737047Y-89465961D01*
X181737047Y-89465961D02*
X181641809Y-89561200D01*
X181641809Y-89561200D02*
X181498952Y-89608819D01*
X181498952Y-89608819D02*
X181403714Y-89608819D01*
X182784666Y-89608819D02*
X182213238Y-89608819D01*
X182498952Y-89608819D02*
X182498952Y-88608819D01*
X182498952Y-88608819D02*
X182403714Y-88751676D01*
X182403714Y-88751676D02*
X182308476Y-88846914D01*
X182308476Y-88846914D02*
X182213238Y-88894533D01*
X142581333Y-67764819D02*
X142248000Y-67288628D01*
X142009905Y-67764819D02*
X142009905Y-66764819D01*
X142009905Y-66764819D02*
X142390857Y-66764819D01*
X142390857Y-66764819D02*
X142486095Y-66812438D01*
X142486095Y-66812438D02*
X142533714Y-66860057D01*
X142533714Y-66860057D02*
X142581333Y-66955295D01*
X142581333Y-66955295D02*
X142581333Y-67098152D01*
X142581333Y-67098152D02*
X142533714Y-67193390D01*
X142533714Y-67193390D02*
X142486095Y-67241009D01*
X142486095Y-67241009D02*
X142390857Y-67288628D01*
X142390857Y-67288628D02*
X142009905Y-67288628D01*
X143438476Y-67098152D02*
X143438476Y-67764819D01*
X143200381Y-66717200D02*
X142962286Y-67431485D01*
X142962286Y-67431485D02*
X143581333Y-67431485D01*
X137755333Y-67764819D02*
X137422000Y-67288628D01*
X137183905Y-67764819D02*
X137183905Y-66764819D01*
X137183905Y-66764819D02*
X137564857Y-66764819D01*
X137564857Y-66764819D02*
X137660095Y-66812438D01*
X137660095Y-66812438D02*
X137707714Y-66860057D01*
X137707714Y-66860057D02*
X137755333Y-66955295D01*
X137755333Y-66955295D02*
X137755333Y-67098152D01*
X137755333Y-67098152D02*
X137707714Y-67193390D01*
X137707714Y-67193390D02*
X137660095Y-67241009D01*
X137660095Y-67241009D02*
X137564857Y-67288628D01*
X137564857Y-67288628D02*
X137183905Y-67288628D01*
X138612476Y-66764819D02*
X138422000Y-66764819D01*
X138422000Y-66764819D02*
X138326762Y-66812438D01*
X138326762Y-66812438D02*
X138279143Y-66860057D01*
X138279143Y-66860057D02*
X138183905Y-67002914D01*
X138183905Y-67002914D02*
X138136286Y-67193390D01*
X138136286Y-67193390D02*
X138136286Y-67574342D01*
X138136286Y-67574342D02*
X138183905Y-67669580D01*
X138183905Y-67669580D02*
X138231524Y-67717200D01*
X138231524Y-67717200D02*
X138326762Y-67764819D01*
X138326762Y-67764819D02*
X138517238Y-67764819D01*
X138517238Y-67764819D02*
X138612476Y-67717200D01*
X138612476Y-67717200D02*
X138660095Y-67669580D01*
X138660095Y-67669580D02*
X138707714Y-67574342D01*
X138707714Y-67574342D02*
X138707714Y-67336247D01*
X138707714Y-67336247D02*
X138660095Y-67241009D01*
X138660095Y-67241009D02*
X138612476Y-67193390D01*
X138612476Y-67193390D02*
X138517238Y-67145771D01*
X138517238Y-67145771D02*
X138326762Y-67145771D01*
X138326762Y-67145771D02*
X138231524Y-67193390D01*
X138231524Y-67193390D02*
X138183905Y-67241009D01*
X138183905Y-67241009D02*
X138136286Y-67336247D01*
X127174666Y-62167009D02*
X126841333Y-62167009D01*
X126841333Y-62690819D02*
X126841333Y-61690819D01*
X126841333Y-61690819D02*
X127317523Y-61690819D01*
X128222285Y-62690819D02*
X127650857Y-62690819D01*
X127936571Y-62690819D02*
X127936571Y-61690819D01*
X127936571Y-61690819D02*
X127841333Y-61833676D01*
X127841333Y-61833676D02*
X127746095Y-61928914D01*
X127746095Y-61928914D02*
X127650857Y-61976533D01*
X133437333Y-73098819D02*
X133104000Y-72622628D01*
X132865905Y-73098819D02*
X132865905Y-72098819D01*
X132865905Y-72098819D02*
X133246857Y-72098819D01*
X133246857Y-72098819D02*
X133342095Y-72146438D01*
X133342095Y-72146438D02*
X133389714Y-72194057D01*
X133389714Y-72194057D02*
X133437333Y-72289295D01*
X133437333Y-72289295D02*
X133437333Y-72432152D01*
X133437333Y-72432152D02*
X133389714Y-72527390D01*
X133389714Y-72527390D02*
X133342095Y-72575009D01*
X133342095Y-72575009D02*
X133246857Y-72622628D01*
X133246857Y-72622628D02*
X132865905Y-72622628D01*
X134389714Y-73098819D02*
X133818286Y-73098819D01*
X134104000Y-73098819D02*
X134104000Y-72098819D01*
X134104000Y-72098819D02*
X134008762Y-72241676D01*
X134008762Y-72241676D02*
X133913524Y-72336914D01*
X133913524Y-72336914D02*
X133818286Y-72384533D01*
X140041333Y-67764819D02*
X139708000Y-67288628D01*
X139469905Y-67764819D02*
X139469905Y-66764819D01*
X139469905Y-66764819D02*
X139850857Y-66764819D01*
X139850857Y-66764819D02*
X139946095Y-66812438D01*
X139946095Y-66812438D02*
X139993714Y-66860057D01*
X139993714Y-66860057D02*
X140041333Y-66955295D01*
X140041333Y-66955295D02*
X140041333Y-67098152D01*
X140041333Y-67098152D02*
X139993714Y-67193390D01*
X139993714Y-67193390D02*
X139946095Y-67241009D01*
X139946095Y-67241009D02*
X139850857Y-67288628D01*
X139850857Y-67288628D02*
X139469905Y-67288628D01*
X140946095Y-66764819D02*
X140469905Y-66764819D01*
X140469905Y-66764819D02*
X140422286Y-67241009D01*
X140422286Y-67241009D02*
X140469905Y-67193390D01*
X140469905Y-67193390D02*
X140565143Y-67145771D01*
X140565143Y-67145771D02*
X140803238Y-67145771D01*
X140803238Y-67145771D02*
X140898476Y-67193390D01*
X140898476Y-67193390D02*
X140946095Y-67241009D01*
X140946095Y-67241009D02*
X140993714Y-67336247D01*
X140993714Y-67336247D02*
X140993714Y-67574342D01*
X140993714Y-67574342D02*
X140946095Y-67669580D01*
X140946095Y-67669580D02*
X140898476Y-67717200D01*
X140898476Y-67717200D02*
X140803238Y-67764819D01*
X140803238Y-67764819D02*
X140565143Y-67764819D01*
X140565143Y-67764819D02*
X140469905Y-67717200D01*
X140469905Y-67717200D02*
X140422286Y-67669580D01*
X133437333Y-67923580D02*
X133389714Y-67971200D01*
X133389714Y-67971200D02*
X133246857Y-68018819D01*
X133246857Y-68018819D02*
X133151619Y-68018819D01*
X133151619Y-68018819D02*
X133008762Y-67971200D01*
X133008762Y-67971200D02*
X132913524Y-67875961D01*
X132913524Y-67875961D02*
X132865905Y-67780723D01*
X132865905Y-67780723D02*
X132818286Y-67590247D01*
X132818286Y-67590247D02*
X132818286Y-67447390D01*
X132818286Y-67447390D02*
X132865905Y-67256914D01*
X132865905Y-67256914D02*
X132913524Y-67161676D01*
X132913524Y-67161676D02*
X133008762Y-67066438D01*
X133008762Y-67066438D02*
X133151619Y-67018819D01*
X133151619Y-67018819D02*
X133246857Y-67018819D01*
X133246857Y-67018819D02*
X133389714Y-67066438D01*
X133389714Y-67066438D02*
X133437333Y-67114057D01*
X134008762Y-67447390D02*
X133913524Y-67399771D01*
X133913524Y-67399771D02*
X133865905Y-67352152D01*
X133865905Y-67352152D02*
X133818286Y-67256914D01*
X133818286Y-67256914D02*
X133818286Y-67209295D01*
X133818286Y-67209295D02*
X133865905Y-67114057D01*
X133865905Y-67114057D02*
X133913524Y-67066438D01*
X133913524Y-67066438D02*
X134008762Y-67018819D01*
X134008762Y-67018819D02*
X134199238Y-67018819D01*
X134199238Y-67018819D02*
X134294476Y-67066438D01*
X134294476Y-67066438D02*
X134342095Y-67114057D01*
X134342095Y-67114057D02*
X134389714Y-67209295D01*
X134389714Y-67209295D02*
X134389714Y-67256914D01*
X134389714Y-67256914D02*
X134342095Y-67352152D01*
X134342095Y-67352152D02*
X134294476Y-67399771D01*
X134294476Y-67399771D02*
X134199238Y-67447390D01*
X134199238Y-67447390D02*
X134008762Y-67447390D01*
X134008762Y-67447390D02*
X133913524Y-67495009D01*
X133913524Y-67495009D02*
X133865905Y-67542628D01*
X133865905Y-67542628D02*
X133818286Y-67637866D01*
X133818286Y-67637866D02*
X133818286Y-67828342D01*
X133818286Y-67828342D02*
X133865905Y-67923580D01*
X133865905Y-67923580D02*
X133913524Y-67971200D01*
X133913524Y-67971200D02*
X134008762Y-68018819D01*
X134008762Y-68018819D02*
X134199238Y-68018819D01*
X134199238Y-68018819D02*
X134294476Y-67971200D01*
X134294476Y-67971200D02*
X134342095Y-67923580D01*
X134342095Y-67923580D02*
X134389714Y-67828342D01*
X134389714Y-67828342D02*
X134389714Y-67637866D01*
X134389714Y-67637866D02*
X134342095Y-67542628D01*
X134342095Y-67542628D02*
X134294476Y-67495009D01*
X134294476Y-67495009D02*
X134199238Y-67447390D01*
X113458666Y-76094819D02*
X113458666Y-76809104D01*
X113458666Y-76809104D02*
X113411047Y-76951961D01*
X113411047Y-76951961D02*
X113315809Y-77047200D01*
X113315809Y-77047200D02*
X113172952Y-77094819D01*
X113172952Y-77094819D02*
X113077714Y-77094819D01*
X113887238Y-76190057D02*
X113934857Y-76142438D01*
X113934857Y-76142438D02*
X114030095Y-76094819D01*
X114030095Y-76094819D02*
X114268190Y-76094819D01*
X114268190Y-76094819D02*
X114363428Y-76142438D01*
X114363428Y-76142438D02*
X114411047Y-76190057D01*
X114411047Y-76190057D02*
X114458666Y-76285295D01*
X114458666Y-76285295D02*
X114458666Y-76380533D01*
X114458666Y-76380533D02*
X114411047Y-76523390D01*
X114411047Y-76523390D02*
X113839619Y-77094819D01*
X113839619Y-77094819D02*
X114458666Y-77094819D01*
X153670095Y-73114819D02*
X153670095Y-73924342D01*
X153670095Y-73924342D02*
X153717714Y-74019580D01*
X153717714Y-74019580D02*
X153765333Y-74067200D01*
X153765333Y-74067200D02*
X153860571Y-74114819D01*
X153860571Y-74114819D02*
X154051047Y-74114819D01*
X154051047Y-74114819D02*
X154146285Y-74067200D01*
X154146285Y-74067200D02*
X154193904Y-74019580D01*
X154193904Y-74019580D02*
X154241523Y-73924342D01*
X154241523Y-73924342D02*
X154241523Y-73114819D01*
X154670095Y-73210057D02*
X154717714Y-73162438D01*
X154717714Y-73162438D02*
X154812952Y-73114819D01*
X154812952Y-73114819D02*
X155051047Y-73114819D01*
X155051047Y-73114819D02*
X155146285Y-73162438D01*
X155146285Y-73162438D02*
X155193904Y-73210057D01*
X155193904Y-73210057D02*
X155241523Y-73305295D01*
X155241523Y-73305295D02*
X155241523Y-73400533D01*
X155241523Y-73400533D02*
X155193904Y-73543390D01*
X155193904Y-73543390D02*
X154622476Y-74114819D01*
X154622476Y-74114819D02*
X155241523Y-74114819D01*
X171033666Y-60414819D02*
X171033666Y-61129104D01*
X171033666Y-61129104D02*
X170986047Y-61271961D01*
X170986047Y-61271961D02*
X170890809Y-61367200D01*
X170890809Y-61367200D02*
X170747952Y-61414819D01*
X170747952Y-61414819D02*
X170652714Y-61414819D01*
X171938428Y-60748152D02*
X171938428Y-61414819D01*
X171700333Y-60367200D02*
X171462238Y-61081485D01*
X171462238Y-61081485D02*
X172081285Y-61081485D01*
X156221580Y-80938666D02*
X156269200Y-80986285D01*
X156269200Y-80986285D02*
X156316819Y-81129142D01*
X156316819Y-81129142D02*
X156316819Y-81224380D01*
X156316819Y-81224380D02*
X156269200Y-81367237D01*
X156269200Y-81367237D02*
X156173961Y-81462475D01*
X156173961Y-81462475D02*
X156078723Y-81510094D01*
X156078723Y-81510094D02*
X155888247Y-81557713D01*
X155888247Y-81557713D02*
X155745390Y-81557713D01*
X155745390Y-81557713D02*
X155554914Y-81510094D01*
X155554914Y-81510094D02*
X155459676Y-81462475D01*
X155459676Y-81462475D02*
X155364438Y-81367237D01*
X155364438Y-81367237D02*
X155316819Y-81224380D01*
X155316819Y-81224380D02*
X155316819Y-81129142D01*
X155316819Y-81129142D02*
X155364438Y-80986285D01*
X155364438Y-80986285D02*
X155412057Y-80938666D01*
X155316819Y-80605332D02*
X155316819Y-79986285D01*
X155316819Y-79986285D02*
X155697771Y-80319618D01*
X155697771Y-80319618D02*
X155697771Y-80176761D01*
X155697771Y-80176761D02*
X155745390Y-80081523D01*
X155745390Y-80081523D02*
X155793009Y-80033904D01*
X155793009Y-80033904D02*
X155888247Y-79986285D01*
X155888247Y-79986285D02*
X156126342Y-79986285D01*
X156126342Y-79986285D02*
X156221580Y-80033904D01*
X156221580Y-80033904D02*
X156269200Y-80081523D01*
X156269200Y-80081523D02*
X156316819Y-80176761D01*
X156316819Y-80176761D02*
X156316819Y-80462475D01*
X156316819Y-80462475D02*
X156269200Y-80557713D01*
X156269200Y-80557713D02*
X156221580Y-80605332D01*
X161631333Y-70209580D02*
X161583714Y-70257200D01*
X161583714Y-70257200D02*
X161440857Y-70304819D01*
X161440857Y-70304819D02*
X161345619Y-70304819D01*
X161345619Y-70304819D02*
X161202762Y-70257200D01*
X161202762Y-70257200D02*
X161107524Y-70161961D01*
X161107524Y-70161961D02*
X161059905Y-70066723D01*
X161059905Y-70066723D02*
X161012286Y-69876247D01*
X161012286Y-69876247D02*
X161012286Y-69733390D01*
X161012286Y-69733390D02*
X161059905Y-69542914D01*
X161059905Y-69542914D02*
X161107524Y-69447676D01*
X161107524Y-69447676D02*
X161202762Y-69352438D01*
X161202762Y-69352438D02*
X161345619Y-69304819D01*
X161345619Y-69304819D02*
X161440857Y-69304819D01*
X161440857Y-69304819D02*
X161583714Y-69352438D01*
X161583714Y-69352438D02*
X161631333Y-69400057D01*
X162583714Y-70304819D02*
X162012286Y-70304819D01*
X162298000Y-70304819D02*
X162298000Y-69304819D01*
X162298000Y-69304819D02*
X162202762Y-69447676D01*
X162202762Y-69447676D02*
X162107524Y-69542914D01*
X162107524Y-69542914D02*
X162012286Y-69590533D01*
D11*
%TO.C,C10*%
X157587733Y-67562000D02*
X157880267Y-67562000D01*
X157587733Y-68582000D02*
X157880267Y-68582000D01*
%TO.C,C2*%
X171452000Y-69703733D02*
X171452000Y-69996267D01*
X170432000Y-69703733D02*
X170432000Y-69996267D01*
%TO.C,J3*%
X102422000Y-78800000D02*
X101092000Y-78800000D01*
X102422000Y-77470000D02*
X102422000Y-78800000D01*
X102422000Y-76200000D02*
X102422000Y-65980000D01*
X102422000Y-76200000D02*
X99762000Y-76200000D01*
X102422000Y-65980000D02*
X99762000Y-65980000D01*
X99762000Y-76200000D02*
X99762000Y-65980000D01*
%TO.C,R3*%
X179442000Y-83057276D02*
X179442000Y-83566724D01*
X178397000Y-83057276D02*
X178397000Y-83566724D01*
%TO.C,SW1*%
X182352000Y-75730000D02*
X183352000Y-75730000D01*
X182352000Y-76730000D02*
X182352000Y-75730000D01*
X184352000Y-77730000D02*
X184352000Y-80330000D01*
X190352000Y-75780000D02*
X184552000Y-75780000D01*
X190452000Y-82280000D02*
X184452000Y-82280000D01*
X190552000Y-77730000D02*
X190552000Y-80330000D01*
%TO.C,Y1*%
X165132000Y-68320000D02*
X165132000Y-71620000D01*
X165132000Y-71620000D02*
X169132000Y-71620000D01*
%TO.C,C6*%
X151276267Y-80012000D02*
X150983733Y-80012000D01*
X151276267Y-78992000D02*
X150983733Y-78992000D01*
%TO.C,R2*%
X130555276Y-70089500D02*
X131064724Y-70089500D01*
X130555276Y-71134500D02*
X131064724Y-71134500D01*
%TO.C,C5*%
X148482267Y-70106000D02*
X148189733Y-70106000D01*
X148482267Y-69086000D02*
X148189733Y-69086000D01*
%TO.C,C4*%
X146450267Y-77726000D02*
X146157733Y-77726000D01*
X146450267Y-76706000D02*
X146157733Y-76706000D01*
%TO.C,C11*%
X146450267Y-76202000D02*
X146157733Y-76202000D01*
X146450267Y-75182000D02*
X146157733Y-75182000D01*
%TO.C,C7*%
X160990233Y-74674000D02*
X161282767Y-74674000D01*
X160990233Y-75694000D02*
X161282767Y-75694000D01*
%TO.C,J1*%
X183582000Y-90230000D02*
X183582000Y-88900000D01*
X184912000Y-90230000D02*
X183582000Y-90230000D01*
X186182000Y-90230000D02*
X191322000Y-90230000D01*
X186182000Y-90230000D02*
X186182000Y-87630000D01*
X191322000Y-90230000D02*
X191322000Y-85030000D01*
X183582000Y-87630000D02*
X183582000Y-85030000D01*
X186182000Y-87630000D02*
X183582000Y-87630000D01*
X183582000Y-85030000D02*
X191322000Y-85030000D01*
%TO.C,R4*%
X141209500Y-65024724D02*
X141209500Y-64515276D01*
X142254500Y-65024724D02*
X142254500Y-64515276D01*
%TO.C,R6*%
X138161500Y-65024724D02*
X138161500Y-64515276D01*
X139206500Y-65024724D02*
X139206500Y-64515276D01*
%TO.C,F1*%
X126784263Y-63161000D02*
X128231737Y-63161000D01*
X126784263Y-65871000D02*
X128231737Y-65871000D01*
%TO.C,R1*%
X130555276Y-72121500D02*
X131064724Y-72121500D01*
X130555276Y-73166500D02*
X131064724Y-73166500D01*
%TO.C,R5*%
X139685500Y-65024724D02*
X139685500Y-64515276D01*
X140730500Y-65024724D02*
X140730500Y-64515276D01*
%TO.C,C8*%
X130702267Y-68074000D02*
X130409733Y-68074000D01*
X130702267Y-67054000D02*
X130409733Y-67054000D01*
%TO.C,J2*%
X114852000Y-75640000D02*
X113792000Y-75640000D01*
X114852000Y-74580000D02*
X114852000Y-75640000D01*
X114852000Y-73580000D02*
X114852000Y-65520000D01*
X114852000Y-73580000D02*
X112732000Y-73580000D01*
X114852000Y-65520000D02*
X112732000Y-65520000D01*
X112732000Y-73580000D02*
X112732000Y-65520000D01*
%TO.C,U2*%
X158042000Y-77270000D02*
X157317000Y-77270000D01*
X150822000Y-76545000D02*
X150822000Y-77270000D01*
X158042000Y-76545000D02*
X158042000Y-77270000D01*
X150822000Y-70775000D02*
X150822000Y-70050000D01*
X158042000Y-70775000D02*
X158042000Y-70050000D01*
X150822000Y-70050000D02*
X151547000Y-70050000D01*
X158042000Y-70050000D02*
X157317000Y-70050000D01*
%TO.C,C3*%
X154942000Y-80625733D02*
X154942000Y-80918267D01*
X153922000Y-80625733D02*
X153922000Y-80918267D01*
%TO.C,C1*%
X162812000Y-69996267D02*
X162812000Y-69703733D01*
X163832000Y-69996267D02*
X163832000Y-69703733D01*
%TD*%
%LPC*%
D12*
X105988225Y-84222257D02*
X105845368Y-84150828D01*
X105845368Y-84150828D02*
X105631082Y-84150828D01*
X105631082Y-84150828D02*
X105416796Y-84222257D01*
X105416796Y-84222257D02*
X105273939Y-84365114D01*
X105273939Y-84365114D02*
X105202510Y-84507971D01*
X105202510Y-84507971D02*
X105131082Y-84793685D01*
X105131082Y-84793685D02*
X105131082Y-85007971D01*
X105131082Y-85007971D02*
X105202510Y-85293685D01*
X105202510Y-85293685D02*
X105273939Y-85436542D01*
X105273939Y-85436542D02*
X105416796Y-85579400D01*
X105416796Y-85579400D02*
X105631082Y-85650828D01*
X105631082Y-85650828D02*
X105773939Y-85650828D01*
X105773939Y-85650828D02*
X105988225Y-85579400D01*
X105988225Y-85579400D02*
X106059653Y-85507971D01*
X106059653Y-85507971D02*
X106059653Y-85007971D01*
X106059653Y-85007971D02*
X105773939Y-85007971D01*
X106916796Y-84793685D02*
X106773939Y-84722257D01*
X106773939Y-84722257D02*
X106702510Y-84650828D01*
X106702510Y-84650828D02*
X106631082Y-84507971D01*
X106631082Y-84507971D02*
X106631082Y-84436542D01*
X106631082Y-84436542D02*
X106702510Y-84293685D01*
X106702510Y-84293685D02*
X106773939Y-84222257D01*
X106773939Y-84222257D02*
X106916796Y-84150828D01*
X106916796Y-84150828D02*
X107202510Y-84150828D01*
X107202510Y-84150828D02*
X107345368Y-84222257D01*
X107345368Y-84222257D02*
X107416796Y-84293685D01*
X107416796Y-84293685D02*
X107488225Y-84436542D01*
X107488225Y-84436542D02*
X107488225Y-84507971D01*
X107488225Y-84507971D02*
X107416796Y-84650828D01*
X107416796Y-84650828D02*
X107345368Y-84722257D01*
X107345368Y-84722257D02*
X107202510Y-84793685D01*
X107202510Y-84793685D02*
X106916796Y-84793685D01*
X106916796Y-84793685D02*
X106773939Y-84865114D01*
X106773939Y-84865114D02*
X106702510Y-84936542D01*
X106702510Y-84936542D02*
X106631082Y-85079400D01*
X106631082Y-85079400D02*
X106631082Y-85365114D01*
X106631082Y-85365114D02*
X106702510Y-85507971D01*
X106702510Y-85507971D02*
X106773939Y-85579400D01*
X106773939Y-85579400D02*
X106916796Y-85650828D01*
X106916796Y-85650828D02*
X107202510Y-85650828D01*
X107202510Y-85650828D02*
X107345368Y-85579400D01*
X107345368Y-85579400D02*
X107416796Y-85507971D01*
X107416796Y-85507971D02*
X107488225Y-85365114D01*
X107488225Y-85365114D02*
X107488225Y-85079400D01*
X107488225Y-85079400D02*
X107416796Y-84936542D01*
X107416796Y-84936542D02*
X107345368Y-84865114D01*
X107345368Y-84865114D02*
X107202510Y-84793685D01*
X108773939Y-84650828D02*
X108773939Y-85650828D01*
X108416796Y-84079400D02*
X108059653Y-85150828D01*
X108059653Y-85150828D02*
X108988224Y-85150828D01*
X109559652Y-85079400D02*
X110702510Y-85079400D01*
X112059653Y-84650828D02*
X112059653Y-85650828D01*
X111702510Y-84079400D02*
X111345367Y-85150828D01*
X111345367Y-85150828D02*
X112273938Y-85150828D01*
X113631081Y-85650828D02*
X112773938Y-85650828D01*
X113202509Y-85650828D02*
X113202509Y-84150828D01*
X113202509Y-84150828D02*
X113059652Y-84365114D01*
X113059652Y-84365114D02*
X112916795Y-84507971D01*
X112916795Y-84507971D02*
X112773938Y-84579400D01*
X114559652Y-84150828D02*
X114702509Y-84150828D01*
X114702509Y-84150828D02*
X114845366Y-84222257D01*
X114845366Y-84222257D02*
X114916795Y-84293685D01*
X114916795Y-84293685D02*
X114988223Y-84436542D01*
X114988223Y-84436542D02*
X115059652Y-84722257D01*
X115059652Y-84722257D02*
X115059652Y-85079400D01*
X115059652Y-85079400D02*
X114988223Y-85365114D01*
X114988223Y-85365114D02*
X114916795Y-85507971D01*
X114916795Y-85507971D02*
X114845366Y-85579400D01*
X114845366Y-85579400D02*
X114702509Y-85650828D01*
X114702509Y-85650828D02*
X114559652Y-85650828D01*
X114559652Y-85650828D02*
X114416795Y-85579400D01*
X114416795Y-85579400D02*
X114345366Y-85507971D01*
X114345366Y-85507971D02*
X114273937Y-85365114D01*
X114273937Y-85365114D02*
X114202509Y-85079400D01*
X114202509Y-85079400D02*
X114202509Y-84722257D01*
X114202509Y-84722257D02*
X114273937Y-84436542D01*
X114273937Y-84436542D02*
X114345366Y-84293685D01*
X114345366Y-84293685D02*
X114416795Y-84222257D01*
X114416795Y-84222257D02*
X114559652Y-84150828D01*
X115988223Y-84150828D02*
X116131080Y-84150828D01*
X116131080Y-84150828D02*
X116273937Y-84222257D01*
X116273937Y-84222257D02*
X116345366Y-84293685D01*
X116345366Y-84293685D02*
X116416794Y-84436542D01*
X116416794Y-84436542D02*
X116488223Y-84722257D01*
X116488223Y-84722257D02*
X116488223Y-85079400D01*
X116488223Y-85079400D02*
X116416794Y-85365114D01*
X116416794Y-85365114D02*
X116345366Y-85507971D01*
X116345366Y-85507971D02*
X116273937Y-85579400D01*
X116273937Y-85579400D02*
X116131080Y-85650828D01*
X116131080Y-85650828D02*
X115988223Y-85650828D01*
X115988223Y-85650828D02*
X115845366Y-85579400D01*
X115845366Y-85579400D02*
X115773937Y-85507971D01*
X115773937Y-85507971D02*
X115702508Y-85365114D01*
X115702508Y-85365114D02*
X115631080Y-85079400D01*
X115631080Y-85079400D02*
X115631080Y-84722257D01*
X115631080Y-84722257D02*
X115702508Y-84436542D01*
X115702508Y-84436542D02*
X115773937Y-84293685D01*
X115773937Y-84293685D02*
X115845366Y-84222257D01*
X115845366Y-84222257D02*
X115988223Y-84150828D01*
X119273936Y-85793685D02*
X119131079Y-85722257D01*
X119131079Y-85722257D02*
X118988222Y-85579400D01*
X118988222Y-85579400D02*
X118773936Y-85365114D01*
X118773936Y-85365114D02*
X118631079Y-85293685D01*
X118631079Y-85293685D02*
X118488222Y-85293685D01*
X118559651Y-85650828D02*
X118416794Y-85579400D01*
X118416794Y-85579400D02*
X118273936Y-85436542D01*
X118273936Y-85436542D02*
X118202508Y-85150828D01*
X118202508Y-85150828D02*
X118202508Y-84650828D01*
X118202508Y-84650828D02*
X118273936Y-84365114D01*
X118273936Y-84365114D02*
X118416794Y-84222257D01*
X118416794Y-84222257D02*
X118559651Y-84150828D01*
X118559651Y-84150828D02*
X118845365Y-84150828D01*
X118845365Y-84150828D02*
X118988222Y-84222257D01*
X118988222Y-84222257D02*
X119131079Y-84365114D01*
X119131079Y-84365114D02*
X119202508Y-84650828D01*
X119202508Y-84650828D02*
X119202508Y-85150828D01*
X119202508Y-85150828D02*
X119131079Y-85436542D01*
X119131079Y-85436542D02*
X118988222Y-85579400D01*
X118988222Y-85579400D02*
X118845365Y-85650828D01*
X118845365Y-85650828D02*
X118559651Y-85650828D01*
X119845365Y-85650828D02*
X119845365Y-84150828D01*
X119845365Y-84150828D02*
X120345365Y-85222257D01*
X120345365Y-85222257D02*
X120845365Y-84150828D01*
X120845365Y-84150828D02*
X120845365Y-85650828D01*
X121559651Y-85650828D02*
X121559651Y-84150828D01*
X122416794Y-85650828D02*
X121773937Y-84793685D01*
X122416794Y-84150828D02*
X121559651Y-85007971D01*
X124059651Y-84650828D02*
X124416794Y-85650828D01*
X124416794Y-85650828D02*
X124773937Y-84650828D01*
X126131080Y-85650828D02*
X125273937Y-85650828D01*
X125702508Y-85650828D02*
X125702508Y-84150828D01*
X125702508Y-84150828D02*
X125559651Y-84365114D01*
X125559651Y-84365114D02*
X125416794Y-84507971D01*
X125416794Y-84507971D02*
X125273937Y-84579400D01*
X126773936Y-85507971D02*
X126845365Y-85579400D01*
X126845365Y-85579400D02*
X126773936Y-85650828D01*
X126773936Y-85650828D02*
X126702508Y-85579400D01*
X126702508Y-85579400D02*
X126773936Y-85507971D01*
X126773936Y-85507971D02*
X126773936Y-85650828D01*
X128273937Y-85650828D02*
X127416794Y-85650828D01*
X127845365Y-85650828D02*
X127845365Y-84150828D01*
X127845365Y-84150828D02*
X127702508Y-84365114D01*
X127702508Y-84365114D02*
X127559651Y-84507971D01*
X127559651Y-84507971D02*
X127416794Y-84579400D01*
X105202510Y-88065828D02*
X105202510Y-86565828D01*
X105202510Y-87137257D02*
X105345368Y-87065828D01*
X105345368Y-87065828D02*
X105631082Y-87065828D01*
X105631082Y-87065828D02*
X105773939Y-87137257D01*
X105773939Y-87137257D02*
X105845368Y-87208685D01*
X105845368Y-87208685D02*
X105916796Y-87351542D01*
X105916796Y-87351542D02*
X105916796Y-87780114D01*
X105916796Y-87780114D02*
X105845368Y-87922971D01*
X105845368Y-87922971D02*
X105773939Y-87994400D01*
X105773939Y-87994400D02*
X105631082Y-88065828D01*
X105631082Y-88065828D02*
X105345368Y-88065828D01*
X105345368Y-88065828D02*
X105202510Y-87994400D01*
X106416796Y-87065828D02*
X106773939Y-88065828D01*
X107131082Y-87065828D02*
X106773939Y-88065828D01*
X106773939Y-88065828D02*
X106631082Y-88422971D01*
X106631082Y-88422971D02*
X106559653Y-88494400D01*
X106559653Y-88494400D02*
X106416796Y-88565828D01*
X109702510Y-87922971D02*
X109631082Y-87994400D01*
X109631082Y-87994400D02*
X109416796Y-88065828D01*
X109416796Y-88065828D02*
X109273939Y-88065828D01*
X109273939Y-88065828D02*
X109059653Y-87994400D01*
X109059653Y-87994400D02*
X108916796Y-87851542D01*
X108916796Y-87851542D02*
X108845367Y-87708685D01*
X108845367Y-87708685D02*
X108773939Y-87422971D01*
X108773939Y-87422971D02*
X108773939Y-87208685D01*
X108773939Y-87208685D02*
X108845367Y-86922971D01*
X108845367Y-86922971D02*
X108916796Y-86780114D01*
X108916796Y-86780114D02*
X109059653Y-86637257D01*
X109059653Y-86637257D02*
X109273939Y-86565828D01*
X109273939Y-86565828D02*
X109416796Y-86565828D01*
X109416796Y-86565828D02*
X109631082Y-86637257D01*
X109631082Y-86637257D02*
X109702510Y-86708685D01*
X110559653Y-88065828D02*
X110416796Y-87994400D01*
X110416796Y-87994400D02*
X110345367Y-87922971D01*
X110345367Y-87922971D02*
X110273939Y-87780114D01*
X110273939Y-87780114D02*
X110273939Y-87351542D01*
X110273939Y-87351542D02*
X110345367Y-87208685D01*
X110345367Y-87208685D02*
X110416796Y-87137257D01*
X110416796Y-87137257D02*
X110559653Y-87065828D01*
X110559653Y-87065828D02*
X110773939Y-87065828D01*
X110773939Y-87065828D02*
X110916796Y-87137257D01*
X110916796Y-87137257D02*
X110988225Y-87208685D01*
X110988225Y-87208685D02*
X111059653Y-87351542D01*
X111059653Y-87351542D02*
X111059653Y-87780114D01*
X111059653Y-87780114D02*
X110988225Y-87922971D01*
X110988225Y-87922971D02*
X110916796Y-87994400D01*
X110916796Y-87994400D02*
X110773939Y-88065828D01*
X110773939Y-88065828D02*
X110559653Y-88065828D01*
X111631082Y-87994400D02*
X111845368Y-88065828D01*
X111845368Y-88065828D02*
X112202510Y-88065828D01*
X112202510Y-88065828D02*
X112345368Y-87994400D01*
X112345368Y-87994400D02*
X112416796Y-87922971D01*
X112416796Y-87922971D02*
X112488225Y-87780114D01*
X112488225Y-87780114D02*
X112488225Y-87637257D01*
X112488225Y-87637257D02*
X112416796Y-87494400D01*
X112416796Y-87494400D02*
X112345368Y-87422971D01*
X112345368Y-87422971D02*
X112202510Y-87351542D01*
X112202510Y-87351542D02*
X111916796Y-87280114D01*
X111916796Y-87280114D02*
X111773939Y-87208685D01*
X111773939Y-87208685D02*
X111702510Y-87137257D01*
X111702510Y-87137257D02*
X111631082Y-86994400D01*
X111631082Y-86994400D02*
X111631082Y-86851542D01*
X111631082Y-86851542D02*
X111702510Y-86708685D01*
X111702510Y-86708685D02*
X111773939Y-86637257D01*
X111773939Y-86637257D02*
X111916796Y-86565828D01*
X111916796Y-86565828D02*
X112273939Y-86565828D01*
X112273939Y-86565828D02*
X112488225Y-86637257D01*
X113773939Y-88065828D02*
X113773939Y-87280114D01*
X113773939Y-87280114D02*
X113702510Y-87137257D01*
X113702510Y-87137257D02*
X113559653Y-87065828D01*
X113559653Y-87065828D02*
X113273939Y-87065828D01*
X113273939Y-87065828D02*
X113131081Y-87137257D01*
X113773939Y-87994400D02*
X113631081Y-88065828D01*
X113631081Y-88065828D02*
X113273939Y-88065828D01*
X113273939Y-88065828D02*
X113131081Y-87994400D01*
X113131081Y-87994400D02*
X113059653Y-87851542D01*
X113059653Y-87851542D02*
X113059653Y-87708685D01*
X113059653Y-87708685D02*
X113131081Y-87565828D01*
X113131081Y-87565828D02*
X113273939Y-87494400D01*
X113273939Y-87494400D02*
X113631081Y-87494400D01*
X113631081Y-87494400D02*
X113773939Y-87422971D01*
X114488224Y-88065828D02*
X114488224Y-87065828D01*
X114488224Y-86565828D02*
X114416796Y-86637257D01*
X114416796Y-86637257D02*
X114488224Y-86708685D01*
X114488224Y-86708685D02*
X114559653Y-86637257D01*
X114559653Y-86637257D02*
X114488224Y-86565828D01*
X114488224Y-86565828D02*
X114488224Y-86708685D01*
X115416796Y-88065828D02*
X115273939Y-87994400D01*
X115273939Y-87994400D02*
X115202510Y-87851542D01*
X115202510Y-87851542D02*
X115202510Y-86565828D01*
X116559653Y-87994400D02*
X116416796Y-88065828D01*
X116416796Y-88065828D02*
X116131082Y-88065828D01*
X116131082Y-88065828D02*
X115988224Y-87994400D01*
X115988224Y-87994400D02*
X115916796Y-87851542D01*
X115916796Y-87851542D02*
X115916796Y-87280114D01*
X115916796Y-87280114D02*
X115988224Y-87137257D01*
X115988224Y-87137257D02*
X116131082Y-87065828D01*
X116131082Y-87065828D02*
X116416796Y-87065828D01*
X116416796Y-87065828D02*
X116559653Y-87137257D01*
X116559653Y-87137257D02*
X116631082Y-87280114D01*
X116631082Y-87280114D02*
X116631082Y-87422971D01*
X116631082Y-87422971D02*
X115916796Y-87565828D01*
X117273938Y-88065828D02*
X117273938Y-87065828D01*
X117273938Y-87351542D02*
X117345367Y-87208685D01*
X117345367Y-87208685D02*
X117416796Y-87137257D01*
X117416796Y-87137257D02*
X117559653Y-87065828D01*
X117559653Y-87065828D02*
X117702510Y-87065828D01*
D13*
%TO.C,C10*%
X156871500Y-68072000D03*
X158596500Y-68072000D03*
%TD*%
D14*
%TO.C,H1*%
X96012000Y-87630000D03*
%TD*%
D15*
%TO.C,C2*%
X170942000Y-68987500D03*
X170942000Y-70712500D03*
%TD*%
D16*
%TO.C,J3*%
X101092000Y-77470000D03*
D17*
X101092000Y-74930000D03*
X101092000Y-72390000D03*
X101092000Y-69850000D03*
X101092000Y-67310000D03*
%TD*%
D18*
%TO.C,R3*%
X178919500Y-82399500D03*
X178919500Y-84224500D03*
%TD*%
D19*
%TO.C,SW1*%
X183452000Y-76780000D03*
X191452000Y-76780000D03*
X183452000Y-81280000D03*
X191452000Y-81280000D03*
%TD*%
D20*
%TO.C,Y1*%
X166032000Y-70820000D03*
X168232000Y-70820000D03*
X168232000Y-69120000D03*
X166032000Y-69120000D03*
%TD*%
D21*
%TO.C,C6*%
X151992500Y-79502000D03*
X150267500Y-79502000D03*
%TD*%
D22*
%TO.C,R2*%
X129897500Y-70612000D03*
X131722500Y-70612000D03*
%TD*%
D21*
%TO.C,C5*%
X149198500Y-69596000D03*
X147473500Y-69596000D03*
%TD*%
%TO.C,C4*%
X147166500Y-77216000D03*
X145441500Y-77216000D03*
%TD*%
D14*
%TO.C,H2*%
X195072000Y-62230000D03*
%TD*%
D21*
%TO.C,C11*%
X147166500Y-75692000D03*
X145441500Y-75692000D03*
%TD*%
D13*
%TO.C,C7*%
X160274000Y-75184000D03*
X161999000Y-75184000D03*
%TD*%
D16*
%TO.C,J1*%
X184912000Y-88900000D03*
D17*
X184912000Y-86360000D03*
X187452000Y-88900000D03*
X187452000Y-86360000D03*
X189992000Y-88900000D03*
X189992000Y-86360000D03*
%TD*%
D23*
%TO.C,R4*%
X141732000Y-65682500D03*
X141732000Y-63857500D03*
%TD*%
%TO.C,R6*%
X138684000Y-65682500D03*
X138684000Y-63857500D03*
%TD*%
D24*
%TO.C,F1*%
X125958000Y-64516000D03*
X129058000Y-64516000D03*
%TD*%
D22*
%TO.C,R1*%
X129897500Y-72644000D03*
X131722500Y-72644000D03*
%TD*%
D23*
%TO.C,R5*%
X140208000Y-65682500D03*
X140208000Y-63857500D03*
%TD*%
D21*
%TO.C,C8*%
X131418500Y-67564000D03*
X129693500Y-67564000D03*
%TD*%
D25*
%TO.C,J2*%
X113792000Y-74580000D03*
D26*
X113792000Y-72580000D03*
X113792000Y-70580000D03*
X113792000Y-68580000D03*
X113792000Y-66580000D03*
%TD*%
D27*
%TO.C,U2*%
X151932000Y-77097500D03*
X152432000Y-77097500D03*
X152932000Y-77097500D03*
X153432000Y-77097500D03*
X153932000Y-77097500D03*
X154432000Y-77097500D03*
X154932000Y-77097500D03*
X155432000Y-77097500D03*
X155932000Y-77097500D03*
X156432000Y-77097500D03*
X156932000Y-77097500D03*
D28*
X157869500Y-76160000D03*
X157869500Y-75660000D03*
X157869500Y-75160000D03*
X157869500Y-74660000D03*
X157869500Y-74160000D03*
X157869500Y-73660000D03*
X157869500Y-73160000D03*
X157869500Y-72660000D03*
X157869500Y-72160000D03*
X157869500Y-71660000D03*
X157869500Y-71160000D03*
D27*
X156932000Y-70222500D03*
X156432000Y-70222500D03*
X155932000Y-70222500D03*
X155432000Y-70222500D03*
X154932000Y-70222500D03*
X154432000Y-70222500D03*
X153932000Y-70222500D03*
X153432000Y-70222500D03*
X152932000Y-70222500D03*
X152432000Y-70222500D03*
X151932000Y-70222500D03*
D28*
X150994500Y-71160000D03*
X150994500Y-71660000D03*
X150994500Y-72160000D03*
X150994500Y-72660000D03*
X150994500Y-73160000D03*
X150994500Y-73660000D03*
X150994500Y-74160000D03*
X150994500Y-74660000D03*
X150994500Y-75160000D03*
X150994500Y-75660000D03*
X150994500Y-76160000D03*
%TD*%
D29*
%TO.C,J4*%
X169672000Y-60960000D03*
D30*
X168402000Y-60960000D03*
X167132000Y-60960000D03*
X165862000Y-60960000D03*
X164592000Y-60960000D03*
X163322000Y-60960000D03*
X162052000Y-60960000D03*
X160782000Y-60960000D03*
X159512000Y-60960000D03*
X158242000Y-60960000D03*
X156972000Y-60960000D03*
X155702000Y-60960000D03*
X154432000Y-60960000D03*
X153162000Y-60960000D03*
X151892000Y-60960000D03*
X150622000Y-60960000D03*
X149352000Y-60960000D03*
X148082000Y-60960000D03*
X146812000Y-60960000D03*
X145542000Y-60960000D03*
X144272000Y-60960000D03*
X143002000Y-60960000D03*
X141732000Y-60960000D03*
X140462000Y-60960000D03*
X139192000Y-60960000D03*
X137922000Y-60960000D03*
X136652000Y-60960000D03*
X135382000Y-60960000D03*
%TD*%
D15*
%TO.C,C3*%
X154432000Y-79909500D03*
X154432000Y-81634500D03*
%TD*%
D31*
%TO.C,C1*%
X163322000Y-70712500D03*
X163322000Y-68987500D03*
%TD*%
%LPD*%
M02*
